<?xml version="1.0" standalone="no"?>
<!DOCTYPE svg PUBLIC "-//W3C//DTD SVG 1.1//EN" "http://www.w3.org/Graphics/SVG/1.1/DTD/svg11.dtd" >
<svg xmlns="http://www.w3.org/2000/svg" xmlns:xlink="http://www.w3.org/1999/xlink" version="1.1">
<metadata>
Created by FontForge 20170731 at Wed Sep  9 22:07:59 2020
 By Aleksey,,,
Copyright (c) 2013 by Lucas Sharp. All rights reserved.
</metadata>
<defs>
<font id="SharpSansNo1-Bold" horiz-adv-x="1204" >
  <font-face 
    font-family="Sharp Sans No1 Bold"
    font-weight="600"
    font-stretch="normal"
    units-per-em="2048"
    panose-1="0 0 0 0 0 0 0 0 0 0"
    ascent="1536"
    descent="-512"
    x-height="1024"
    cap-height="1495"
    bbox="-170 -541 2904.04 2257"
    underline-thickness="102"
    underline-position="-307"
    unicode-range="U+0020-F60B"
  />
<missing-glyph horiz-adv-x="1843" 
d="M174 0v1495h1495v-1495h-1495zM922 678l-580 -580h1159zM342 1397l580 -580l579 580h-1159zM991 748l580 -580v1159zM852 748l-580 579v-1159z" />
    <glyph glyph-name="interrobang" unicode="&#x21;&#x3f;" horiz-adv-x="1054" 
d="M399 383q-26 533 -26 868q-92 -50 -115 -157l-264 88q37 152 166.5 243t322.5 91q227 0 367.5 -119t140.5 -312q0 -79 -22 -138.5t-56.5 -96.5t-77 -68t-84.5 -62.5t-76.5 -69.5t-56.5 -99.5t-22 -142.5v-25h-197zM356 0v281h281v-281h-281zM707 1090q0 106 -97 157
q0 -183 -12 -377q30 32 42.5 47t32 44t27 60t7.5 69z" />
    <glyph glyph-name="interrobangdown" unicode="&#xa1;&#xbf;" horiz-adv-x="1054" 
d="M571 -492q-227 0 -367.5 119t-140.5 312q0 79 22 138.5t57 96.5t77 68t84 62.5t77 69.5t57 99.5t22 142.5v25h196q27 -558 27 -868q89 48 115 157l264 -88q-37 -152 -167 -243t-323 -91zM698 1024v-281h-280v281h280zM348 -66q0 -109 96 -157q0 141 11 377
q-30 -34 -41.5 -47.5t-31 -43.5t-27 -60.5t-7.5 -68.5z" />
    <glyph glyph-name=".notdef" horiz-adv-x="1843" 
d="M174 0v1495h1495v-1495h-1495zM922 678l-580 -580h1159zM342 1397l580 -580l579 580h-1159zM991 748l580 -580v1159zM852 748l-580 579v-1159z" />
    <glyph glyph-name=".null" horiz-adv-x="0" 
 />
    <glyph glyph-name="nonmarkingreturn" horiz-adv-x="682" 
 />
    <glyph glyph-name="space" unicode=" " horiz-adv-x="501" 
 />
    <glyph glyph-name="exclam" unicode="!" horiz-adv-x="423" 
d="M135 383q-28 188 -45.5 428t-17.5 444v240h280v-240q0 -204 -17.5 -444t-45.5 -428h-154zM72 0v281h280v-281h-280z" />
    <glyph glyph-name="quotedbl" unicode="&#x22;" horiz-adv-x="663" 
d="M141 1024q-18 43 -43.5 148.5t-25.5 150.5v172h219v-172q0 -46 -27 -151.5t-45 -147.5h-78zM442 1024q-18 43 -43.5 148.5t-25.5 150.5v172h219v-172q0 -46 -27 -151.5t-45 -147.5h-78z" />
    <glyph glyph-name="numbersign" unicode="#" horiz-adv-x="1638" 
d="M987 0v313h-352v-313h-285v313h-299v273h299v344h-299v272h299v293h285v-293h352v293h285v-293h315v-272h-315v-344h315v-273h-315v-313h-285zM635 930v-344h352v344h-352z" />
    <glyph glyph-name="dollar" unicode="$" 
d="M1157 446q0 -105 -46 -199t-138.5 -163t-216.5 -92v-238h-285v240q-269 49 -446 254l260 205q67 -116 194 -170v383q-64 19 -115.5 40.5t-106.5 57.5t-92 78.5t-61 105t-24 137.5q0 154 109 271t282 149v215h285v-221q199 -43 354 -201l-236 -178q-50 71 -126 107v-346
q65 -21 117.5 -44t109 -61t94.5 -82t63 -108t25 -140zM868 449q0 48 -31 81t-89 58v-314q56 24 88 72t32 103zM365 1096q0 -50 28.5 -80.5t85.5 -52.5v278q-54 -20 -84 -58t-30 -87z" />
    <glyph glyph-name="percent" unicode="%" horiz-adv-x="1685" 
d="M279 1149q0 -53 38.5 -91t90.5 -38t90.5 38t38.5 91t-38.5 91t-90.5 38t-90.5 -38t-38.5 -91zM911 344q0 152 107.5 259.5t259.5 107.5t259.5 -107.5t107.5 -259.5t-107.5 -259.5t-259.5 -107.5t-259.5 107.5t-107.5 259.5zM20 0l1285 1495h360l-1284 -1495h-361z
M1149 344q0 -52 38.5 -90.5t90.5 -38.5t90.5 38.5t38.5 90.5t-38.5 90.5t-90.5 38.5t-90.5 -38.5t-38.5 -90.5zM41 1149q0 152 107.5 259.5t259.5 107.5t259 -107.5t107 -259.5t-107 -259.5t-259 -107.5t-259.5 107.5t-107.5 259.5z" />
    <glyph glyph-name="ampersand" unicode="&#x26;" horiz-adv-x="1531" 
d="M1147 0l-117 115q-192 -138 -399 -138q-126 0 -228 29t-168.5 76.5t-111 112t-63.5 131.5t-19 139q0 135 69.5 241.5t188.5 176.5q-70 115 -70 245q0 165 122.5 276.5t307.5 111.5q179 0 287.5 -78t153.5 -205l-279 -98q-16 58 -53.5 92.5t-97.5 34.5q-62 0 -102 -38
t-40 -96q0 -79 39.5 -136t180.5 -200l9.5 -9.5t9 -8.5t9.5 -10l277 -279q87 125 118 269h-251v270h534v-131q0 -140 -59.5 -295.5t-163.5 -288.5l305 -309h-389zM629 227q115 0 221 64l-309 313l-82 82q-135 -81 -135 -219q0 -101 81 -170.5t224 -69.5z" />
    <glyph glyph-name="quotesingle" unicode="'" horiz-adv-x="362" 
d="M219 1024h-78q-18 43 -43.5 148.5t-25.5 150.5v172h219v-172q0 -46 -27 -151.5t-45 -147.5z" />
    <glyph glyph-name="parenleft" unicode="(" horiz-adv-x="790" 
d="M612 -520q-269 181 -420 438.5t-151 593.5q0 171 38 319.5t112 272t170.5 225t226.5 195.5l190 -205q-438 -293 -438 -807q0 -522 448 -799z" />
    <glyph glyph-name="parenright" unicode=")" horiz-adv-x="790" 
d="M451 508q0 513 -439 807l191 205q130 -94 226.5 -195.5t170.5 -225t112 -272t38 -319.5q0 -336 -151.5 -593.5t-420.5 -438.5l-176 233q449 278 449 799z" />
    <glyph glyph-name="asterisk" unicode="*" horiz-adv-x="825" 
d="M664 848l-175 156l46 -232h-244l47 232l-180 -156l-119 213l221 74l-221 77l125 209l174 -155l-47 231h244l-48 -235l181 159l120 -213l-229 -75l229 -76z" />
    <glyph glyph-name="plus" unicode="+" horiz-adv-x="901" 
d="M72 627v239h262v258h235v-258h260v-239h-260v-260h-235v260h-262z" />
    <glyph glyph-name="comma" unicode="," horiz-adv-x="423" 
d="M43 -240l70 418h247l-143 -418h-174z" />
    <glyph glyph-name="hyphen" unicode="-" horiz-adv-x="901" 
d="M72 401v240h757v-240h-757z" />
    <glyph glyph-name="period" unicode="." horiz-adv-x="423" 
d="M72 0v281h280v-281h-280z" />
    <glyph glyph-name="slash" unicode="/" horiz-adv-x="1048" 
d="M20 0l709 1495h301l-708 -1495h-302z" />
    <glyph glyph-name="zero" unicode="0" 
d="M600 262q106 0 166.5 61.5t60.5 155.5v527q0 104 -59.5 166.5t-163.5 62.5q-106 0 -166.5 -64.5t-60.5 -164.5v-525q0 -97 58.5 -158t164.5 -61zM602 -20q-242 0 -376 133.5t-134 353.5v549q0 214 143 357t367 143q151 0 268.5 -67.5t179.5 -180.5t62 -250v-551
q0 -222 -136.5 -354.5t-373.5 -132.5z" />
    <glyph glyph-name="one" unicode="1" 
d="M92 0v272h373v801q-35 -53 -104 -88t-138 -35h-22v299h10q70 0 123.5 23t83 60.5t43.5 78.5t14 84h275v-1223h362v-272h-1020z" />
    <glyph glyph-name="two" unicode="2" 
d="M92 0v268q0 74 27 143t65 119.5t102 105t113.5 88t124.5 79.5q155 97 196 128q110 87 111 167q0 74 -60.5 123t-168.5 49q-201 0 -297 -211l-246 123q76 158 213.5 246t327.5 88q240 0 380 -119t140 -301q0 -50 -13.5 -96.5t-32.5 -83t-54 -75.5t-64 -65.5t-78.5 -61
t-81 -54t-85.5 -52.5q-161 -98 -214 -142q-119 -96 -120 -194h735v-272h-1020z" />
    <glyph glyph-name="three" unicode="3" 
d="M612 -20q-194 0 -326.5 65t-240.5 211l248 178q113 -194 321 -194q107 0 175.5 54.5t68.5 149.5q0 87 -55.5 137t-167.5 50h-197v262h193q112 0 165.5 57.5t53.5 143.5q0 70 -62 122t-170 52q-119 0 -185.5 -43t-115.5 -142l-247 123q162 310 546 310q222 0 366 -114.5
t144 -295.5q0 -222 -174 -338q191 -106 191 -332q0 -198 -143.5 -327t-387.5 -129z" />
    <glyph glyph-name="four" unicode="4" 
d="M688 0v303h-606v260l571 932h312v-932h157v-260h-157v-303h-277zM377 563h311v506z" />
    <glyph glyph-name="five" unicode="5" 
d="M600 -20q-203 0 -342 79t-207 211l277 160q31 -87 103 -137.5t173 -50.5t176.5 75t75.5 187q0 116 -71 193t-189 77q-167 0 -264 -147l-254 131l106 737h895v-266h-671l-39 -264q114 69 270 69q83 0 157 -20.5t138 -64t110 -105.5t72.5 -149.5t26.5 -192.5
q0 -224 -154 -373t-389 -149z" />
    <glyph glyph-name="six" unicode="6" 
d="M604 -20q-154 0 -279 69t-194.5 187.5t-69.5 261.5q0 205 115 376l383 621h336l-315 -489q40 12 82 12q99 0 187.5 -38.5t153 -106t102.5 -164.5t38 -209q0 -227 -153.5 -373.5t-385.5 -146.5zM598 238q108 0 186 79t78 189q0 107 -78.5 186.5t-185.5 79.5t-182.5 -79.5
t-75.5 -188.5t75.5 -187.5t182.5 -78.5z" />
    <glyph glyph-name="seven" unicode="7" 
d="M221 0l592 1223h-721v272h1020v-248l-588 -1247h-303z" />
    <glyph glyph-name="eight" unicode="8" 
d="M600 -20q-252 0 -392 125.5t-140 343.5q0 225 182 348q-131 112 -131 290q0 195 134.5 312t356.5 117q219 0 353.5 -117.5t134.5 -311.5q0 -178 -140 -292q179 -124 179 -346q0 -218 -143 -343.5t-394 -125.5zM600 231q126 0 195 61.5t69 156.5t-68 156t-190 61
q-123 0 -193.5 -62t-70.5 -155q0 -96 66 -157t192 -61zM604 903q111 0 172.5 52t61.5 132q0 79 -61 133t-165 54q-107 0 -170 -54t-63 -133q0 -82 57.5 -133t167.5 -51z" />
    <glyph glyph-name="nine" unicode="9" 
d="M645 0h-336l312 483q-36 -8 -78 -8q-132 0 -242 65.5t-175 185.5t-65 269q0 227 153.5 374t385.5 147q154 0 279 -69t194.5 -188t69.5 -262q0 -205 -115 -376zM606 723q107 0 182.5 79.5t75.5 188.5t-75.5 187.5t-182.5 78.5q-108 0 -186 -79t-78 -189
q0 -107 78.5 -186.5t185.5 -79.5z" />
    <glyph glyph-name="colon" unicode=":" horiz-adv-x="423" 
d="M72 0v281h280v-281h-280zM72 743v281h280v-281h-280z" />
    <glyph glyph-name="semicolon" unicode=";" horiz-adv-x="423" 
d="M72 743v281h280v-281h-280zM43 -240l70 418h247l-143 -418h-174z" />
    <glyph glyph-name="less" unicode="&#x3c;" horiz-adv-x="901" 
d="M829 350l-757 275v239l757 273v-248l-450 -146l450 -145v-248z" />
    <glyph glyph-name="equal" unicode="=" horiz-adv-x="901" 
d="M72 795v239h757v-239h-757zM72 453v239h757v-239h-757z" />
    <glyph glyph-name="greater" unicode="&#x3e;" horiz-adv-x="901" 
d="M72 350v248l450 145l-450 146v248l757 -273v-239z" />
    <glyph glyph-name="question" unicode="?" horiz-adv-x="1054" 
d="M367 385v23q0 101 18.5 181t48 130t65 89t71.5 68.5t65.5 58t48 67.5t18.5 88q0 78 -52 128t-138 50q-77 0 -130 -48.5t-71 -125.5l-264 88q38 154 158 244t311 90q210 0 342.5 -119t132.5 -312q0 -79 -20.5 -140t-53.5 -100t-73 -72t-79.5 -65.5t-72.5 -70.5t-53.5 -96
t-20.5 -133v-23h-251zM352 0v281h281v-281h-281z" />
    <glyph glyph-name="at" unicode="@" horiz-adv-x="1609" 
d="M805 -256q-209 0 -384.5 102.5t-277.5 279t-102 386.5q0 209 102 385.5t278 279.5t384 103q170 0 316 -59t242.5 -156.5t151 -221t54.5 -253.5q0 -180 -97.5 -306t-254.5 -126q-165 0 -248 112q-83 -110 -256 -110q-62 0 -121.5 24.5t-106.5 69.5t-72 116.5t-16 157.5
q10 90 48.5 163t92 116.5t112 66.5t114.5 23q127 0 197 -76l8 64h223l-39 -371q-16 -135 82 -135q48 0 79.5 59t31.5 152q0 87 -38.5 171t-106 151t-171.5 108t-225 41q-149 0 -274 -73.5t-197 -200.5t-72 -277q0 -149 72 -275.5t197 -200t274 -73.5q119 0 222.5 47.5
t180.5 132.5l170 -139q-106 -121 -255 -189.5t-318 -68.5zM764 371q68 0 117 47.5t55 116.5q8 67 -31 114t-106 47q-69 0 -121 -46.5t-55 -114.5q-9 -69 32 -116.5t109 -47.5z" />
    <glyph glyph-name="A" unicode="A" horiz-adv-x="1404" 
d="M29 0l530 1495h287l530 -1495h-297l-90 260h-573l-90 -260h-297zM702 1090l-192 -558h385z" />
    <glyph glyph-name="B" unicode="B" horiz-adv-x="1167" 
d="M82 0v1495h467q250 0 387 -108.5t137 -311.5q0 -193 -162 -289q215 -99 215 -342q0 -219 -142 -331.5t-396 -112.5h-506zM573 635h-206v-373h221q124 0 188 49t64 140q0 95 -58 139.5t-209 44.5zM551 1233h-184v-332h182q237 0 237 174q0 83 -55 120.5t-180 37.5z" />
    <glyph glyph-name="C" unicode="C" horiz-adv-x="1505" 
d="M809 -20q-170 0 -315 60t-243.5 164t-154 244.5t-55.5 299.5q0 164 59.5 307.5t162 244t244.5 158.5t302 58q207 0 381 -100.5t274 -270.5l-250 -160q-135 250 -405 250q-208 0 -346.5 -140t-138.5 -347q0 -133 62 -243.5t172.5 -175.5t244.5 -65q147 0 255.5 76
t168.5 203l260 -137q-100 -195 -279.5 -310.5t-398.5 -115.5z" />
    <glyph glyph-name="D" unicode="D" horiz-adv-x="1320" 
d="M82 0v1495h407q186 0 336.5 -57t249.5 -157.5t152 -237t53 -295.5q0 -211 -98.5 -381.5t-276.5 -268.5t-403 -98h-420zM457 1231h-90v-967h102q238 0 382 137t144 347q0 221 -136 352t-402 131z" />
    <glyph glyph-name="E" unicode="E" horiz-adv-x="1034" 
d="M82 0v1495h887v-272h-602v-336h602v-273h-602v-342h602v-272h-887z" />
    <glyph glyph-name="F" unicode="F" horiz-adv-x="999" 
d="M82 0v1495h846v-272h-561v-336h561v-273h-561v-614h-285z" />
    <glyph glyph-name="G" unicode="G" horiz-adv-x="1589" 
d="M817 -20q-171 0 -317.5 62t-246 166.5t-156 244.5t-56.5 295q0 211 98 386.5t273.5 278.5t392.5 103q226 0 403.5 -104t276.5 -279l-250 -152q-140 258 -428 258q-133 0 -244.5 -66.5t-175 -179.5t-63.5 -245q0 -208 140 -350t353 -142q160 0 272 84t152 229h-469v273
h776v-115q0 -150 -52.5 -286t-146 -238t-232 -162.5t-300.5 -60.5z" />
    <glyph glyph-name="H" unicode="H" horiz-adv-x="1296" 
d="M930 0v612h-563v-612h-285v1495h285v-610h563v610h284v-1495h-284z" />
    <glyph glyph-name="I" unicode="I" horiz-adv-x="468" 
d="M92 0v1495h285v-1495h-285z" />
    <glyph glyph-name="J" unicode="J" horiz-adv-x="1030" 
d="M510 -20q-182 0 -309 92.5t-164 251.5l282 90q14 -73 65 -120.5t122 -47.5q79 0 118.5 52.5t39.5 133.5v1063h284v-1036q0 -227 -114.5 -353t-323.5 -126z" />
    <glyph glyph-name="K" unicode="K" horiz-adv-x="1261" 
d="M913 0l-391 715l-155 -195v-520h-285v1495h285v-602l483 602h346l-471 -582l512 -913h-324z" />
    <glyph glyph-name="L" unicode="L" horiz-adv-x="978" 
d="M82 0v1495h285v-1223h540v-272h-825z" />
    <glyph glyph-name="M" unicode="M" horiz-adv-x="1628" 
d="M82 0v1495h283l448 -623l465 623h268v-1495h-284v1036l-451 -608l-444 602v-1030h-285z" />
    <glyph glyph-name="N" unicode="N" horiz-adv-x="1406" 
d="M82 0v1495h324l634 -1006v1006h285v-1495h-303l-655 1038v-1038h-285z" />
    <glyph glyph-name="O" unicode="O" horiz-adv-x="1611" 
d="M805 -20q-209 0 -384.5 102.5t-277.5 279t-102 386.5q0 209 102 385.5t278 279.5t384 103q209 0 385.5 -103t278.5 -279.5t102 -385.5q0 -157 -60 -299.5t-162.5 -245t-244.5 -163t-299 -60.5zM805 260q132 0 243 65.5t175.5 178t64.5 244.5t-64.5 244t-175.5 177.5
t-243 65.5t-242.5 -65.5t-174.5 -177.5t-64 -244t64 -244.5t174.5 -178t242.5 -65.5z" />
    <glyph glyph-name="P" unicode="P" horiz-adv-x="1185" 
d="M82 0v1495h514q114 0 214.5 -42t171.5 -113.5t112 -170t41 -208.5t-41 -208.5t-112.5 -170.5t-172.5 -114t-215 -42h-227v-426h-285zM575 1231h-208v-541h208q120 0 196.5 78.5t76.5 192.5t-76.5 192t-196.5 78z" />
    <glyph glyph-name="Q" unicode="Q" horiz-adv-x="1611" 
d="M1255 0l-563 739h340l187 -241q69 119 69 250q0 132 -64.5 244t-175.5 177.5t-243 65.5t-242.5 -65.5t-174.5 -177.5t-64 -244t64 -244.5t174.5 -178t242.5 -65.5q64 0 139 21l178 -234q-150 -67 -317 -67q-209 0 -384.5 102.5t-277.5 279t-102 386.5q0 209 102 385.5
t278 279.5t384 103q209 0 385.5 -103t278.5 -279.5t102 -385.5q0 -281 -170 -488l203 -260h-349z" />
    <glyph glyph-name="R" unicode="R" horiz-adv-x="1173" 
d="M82 0v1495h469q252 0 401.5 -142t149.5 -360q0 -96 -30 -181t-96.5 -155.5t-162.5 -107.5l340 -549h-326l-448 739h139q79 0 139 24.5t93 63.5t49 81t16 85q0 117 -70.5 176.5t-226.5 59.5h-151v-1229h-285z" />
    <glyph glyph-name="S" unicode="S" horiz-adv-x="1153" 
d="M590 -20q-351 0 -586 268l260 205q56 -96 140.5 -148.5t183.5 -52.5q104 0 163.5 58t59.5 139q0 34 -16 61.5t-39.5 46.5t-64 37t-75.5 29.5t-87 27.5q-18 5 -27 8q-53 16 -87.5 28t-83.5 33t-81 42t-67.5 54t-56.5 70t-34.5 88t-13.5 111q0 182 141 306.5t356 124.5
q170 0 286 -56t218 -162l-235 -178q-94 142 -266 142q-97 0 -151 -46.5t-54 -119.5q0 -31 15 -57.5t37.5 -44.5t61.5 -36t73 -30t85 -29q21 -7 31 -10q52 -17 88.5 -30.5t85 -36t82.5 -45.5t69.5 -57t57 -72.5t35.5 -90t14 -111.5q0 -90 -35 -173.5t-99.5 -149t-164 -104.5
t-219.5 -39z" />
    <glyph glyph-name="T" unicode="T" horiz-adv-x="1181" 
d="M449 0v1223h-398v272h1079v-272h-397v-1223h-284z" />
    <glyph glyph-name="U" unicode="U" horiz-adv-x="1243" 
d="M621 -20q-118 0 -216 34.5t-170 100.5t-112.5 169t-40.5 234v977h285v-995q0 -108 72 -182t179 -74q108 0 183.5 74.5t75.5 181.5v995h284v-977q0 -173 -71 -296.5t-191 -182.5t-278 -59z" />
    <glyph glyph-name="V" unicode="V" horiz-adv-x="1343" 
d="M528 0l-499 1495h295l348 -1061l348 1061h295l-500 -1495h-287z" />
    <glyph glyph-name="W" unicode="W" horiz-adv-x="2088" 
d="M451 0l-424 1495h297l278 -1034l307 1034h281l307 -1030l275 1030h288l-422 -1495h-280l-309 1044l-308 -1044h-290z" />
    <glyph glyph-name="X" unicode="X" horiz-adv-x="1288" 
d="M948 0l-305 506l-303 -506h-320l455 756l-446 739h319l295 -491l297 491h320l-449 -739l457 -756h-320z" />
    <glyph glyph-name="Y" unicode="Y" horiz-adv-x="1288" 
d="M500 0v709l-475 786h313l305 -514l307 514h314l-480 -793v-702h-284z" />
    <glyph glyph-name="Z" unicode="Z" horiz-adv-x="1132" 
d="M72 0v262l651 961h-629v272h967v-260l-653 -963h653v-272h-989z" />
    <glyph glyph-name="bracketleft" unicode="[" horiz-adv-x="702" 
d="M72 -471v1966h559v-272h-275v-1422h275v-272h-559z" />
    <glyph glyph-name="backslash" unicode="\" horiz-adv-x="1048" 
d="M729 0l-709 1495h302l708 -1495h-301z" />
    <glyph glyph-name="bracketright" unicode="]" horiz-adv-x="702" 
d="M72 -471v272h274v1422h-274v272h559v-1966h-559z" />
    <glyph glyph-name="asciicircum" unicode="^" horiz-adv-x="964" 
d="M152 1126l243 349h174l244 -349h-211l-121 181l-119 -181h-210z" />
    <glyph glyph-name="underscore" unicode="_" horiz-adv-x="901" 
d="M72 -260v240h757v-240h-757z" />
    <glyph glyph-name="grave" unicode="`" horiz-adv-x="964" 
d="M520 1126l-307 349h262l234 -349h-189z" />
    <glyph glyph-name="a" unicode="a" horiz-adv-x="1196" 
d="M535 -20q-67 0 -135 20.5t-132.5 64t-115 104.5t-81 150t-30.5 193q0 105 29.5 194t79 150t114.5 104.5t134.5 63.5t140.5 20q192 0 305 -120v100h280v-1024h-280v115q-53 -62 -132.5 -98.5t-176.5 -36.5zM590 238q113 0 187.5 80.5t74.5 195.5t-74.5 194.5t-187.5 79.5
q-117 0 -196 -78t-79 -196t79 -197t196 -79z" />
    <glyph glyph-name="b" unicode="b" horiz-adv-x="1187" 
d="M664 -20q-99 0 -180 35t-132 96v-111h-280v1495h280v-584q110 133 307 133q71 0 140.5 -20t134 -63.5t113.5 -104.5t78.5 -150t29.5 -194q0 -104 -30.5 -193t-80 -150t-114 -104.5t-132 -64t-134.5 -20.5zM606 238q117 0 196 79t79 197t-79 196t-196 78
q-113 0 -187.5 -79.5t-74.5 -194.5t74.5 -195.5t187.5 -80.5z" />
    <glyph glyph-name="c" unicode="c" horiz-adv-x="1095" 
d="M571 -20q-145 0 -267 71t-192.5 193.5t-70.5 267.5t70.5 267.5t192.5 193.5t267 71q171 0 301.5 -88.5t192.5 -234.5l-250 -107q-30 73 -95.5 118.5t-146.5 45.5q-110 0 -186 -77.5t-76 -188.5t76 -188.5t186 -77.5q81 0 146.5 45.5t95.5 118.5l250 -107
q-62 -146 -192.5 -234.5t-301.5 -88.5z" />
    <glyph glyph-name="d" unicode="d" horiz-adv-x="1196" 
d="M535 -20q-67 0 -135 20.5t-132.5 64t-115 104.5t-81 150t-30.5 193q0 105 29.5 194t79 150t114.5 104.5t134.5 63.5t140.5 20q192 0 305 -120v571h280v-1495h-280v115q-53 -62 -132.5 -98.5t-176.5 -36.5zM590 238q113 0 187.5 80.5t74.5 195.5t-74.5 194.5t-187.5 79.5
q-117 0 -196 -78t-79 -196t79 -197t196 -79z" />
    <glyph glyph-name="e" unicode="e" horiz-adv-x="1144" 
d="M582 -20q-156 0 -280.5 71.5t-192.5 192.5t-68 268q0 145 71 267.5t193.5 193.5t267.5 71q153 0 275 -71t188 -191.5t66 -267.5v-102h-791q25 -87 95 -137t178 -50q84 0 151 43t101 117l223 -133q-69 -125 -191 -198.5t-286 -73.5zM575 799q-87 0 -152.5 -44t-98.5 -118
h495q-28 79 -91 120.5t-153 41.5z" />
    <glyph glyph-name="f" unicode="f" horiz-adv-x="749" 
d="M51 772v252h174v27q0 251 97.5 347.5t353.5 96.5h22v-262q-46 0 -74.5 -2t-51.5 -10.5t-34.5 -19.5t-19.5 -33.5t-10 -49t-2 -69.5v-25h192v-252h-192v-772h-281v772h-174z" />
    <glyph glyph-name="g" unicode="g" horiz-adv-x="1196" 
d="M535 -20q-67 0 -135 20.5t-132.5 64t-115 104.5t-81 150t-30.5 193q0 105 29.5 194t79 150t114.5 104.5t134.5 63.5t140.5 20q188 0 305 -131v111h280v-995q0 -109 -34.5 -203.5t-99.5 -166t-166.5 -112.5t-227.5 -41q-186 0 -327 83.5t-206 211.5l248 140
q87 -174 285 -174q110 0 179 73.5t69 177.5v97q-53 -62 -132.5 -98.5t-176.5 -36.5zM590 238q113 0 187.5 80.5t74.5 195.5t-74.5 194.5t-187.5 79.5q-117 0 -196 -78t-79 -196t79 -197t196 -79z" />
    <glyph glyph-name="h" unicode="h" horiz-adv-x="1091" 
d="M72 0v1495h278v-584q110 133 283 133q182 0 284.5 -110.5t102.5 -308.5v-625h-285v586q0 105 -47.5 162t-140.5 57q-85 0 -140 -62t-55 -184v-559h-280z" />
    <glyph glyph-name="i" unicode="i" horiz-adv-x="423" 
d="M72 0v1024h280v-1024h-280zM72 1126v281h280v-281h-280z" />
    <glyph glyph-name="j" unicode="j" horiz-adv-x="423" 
d="M-121 -471v262q55 0 86.5 4.5t55 14t33.5 32.5t14 52t4 81v1049h280v-1051q0 -251 -94 -347.5t-338 -96.5h-41zM72 1126v281h280v-281h-280z" />
    <glyph glyph-name="k" unicode="k" horiz-adv-x="1110" 
d="M768 0l-279 410l-137 -162v-248h-280v1495h280v-924l377 453h326l-373 -442l393 -582h-307z" />
    <glyph glyph-name="l" unicode="l" horiz-adv-x="423" 
d="M72 0v1495h280v-1495h-280z" />
    <glyph glyph-name="m" unicode="m" horiz-adv-x="1718" 
d="M72 0v1024h278v-109q102 129 273 129q221 0 315 -161q53 75 137 118t182 43q192 0 291 -109t99 -310v-625h-285v588q0 217 -178 217q-84 0 -134.5 -61t-50.5 -185v-559h-284v588q0 217 -178 217q-84 0 -134.5 -61t-50.5 -185v-559h-280z" />
    <glyph glyph-name="n" unicode="n" horiz-adv-x="1091" 
d="M72 0v1024h278v-115q50 64 123.5 99.5t159.5 35.5q182 0 284.5 -110.5t102.5 -308.5v-625h-285v588q0 104 -47.5 160.5t-140.5 56.5q-85 0 -140 -62t-55 -184v-559h-280z" />
    <glyph glyph-name="o" unicode="o" horiz-adv-x="1142" 
d="M571 -20q-145 0 -267 71t-192.5 193.5t-70.5 267.5t70.5 267.5t192.5 193.5t267 71t267.5 -71t193 -193.5t70.5 -267.5t-70.5 -267.5t-193 -193.5t-267.5 -71zM571 246q107 0 182.5 78.5t75.5 187.5t-75.5 187.5t-182.5 78.5q-108 0 -182 -78t-74 -188t74 -188t182 -78z
" />
    <glyph glyph-name="p" unicode="p" horiz-adv-x="1187" 
d="M664 -20q-101 0 -181.5 31.5t-130.5 88.5v-571h-280v1495h280v-117q113 137 307 137q71 0 140.5 -20t134 -63.5t113.5 -104.5t78.5 -150t29.5 -194q0 -104 -30.5 -193t-80 -150t-114 -104.5t-132 -64t-134.5 -20.5zM606 238q117 0 196 79t79 197t-79 196t-196 78
q-113 0 -187.5 -79.5t-74.5 -194.5t74.5 -195.5t187.5 -80.5z" />
    <glyph glyph-name="q" unicode="q" horiz-adv-x="1196" 
d="M535 -20q-67 0 -135 20.5t-132.5 64t-115 104.5t-81 150t-30.5 193q0 105 29.5 194t79 150t114.5 104.5t134.5 63.5t140.5 20q188 0 305 -131v111h280v-1495h-280v573q-109 -122 -309 -122zM590 238q113 0 187.5 80.5t74.5 195.5t-74.5 194.5t-187.5 79.5
q-117 0 -196 -78t-79 -196t79 -197t196 -79z" />
    <glyph glyph-name="r" unicode="r" horiz-adv-x="800" 
d="M72 0v1024h278v-168q81 168 283 168h112v-272h-178q-113 0 -164 -63.5t-51 -205.5v-483h-280z" />
    <glyph glyph-name="s" unicode="s" horiz-adv-x="956" 
d="M481 -20q-358 0 -471 276l269 104q55 -139 215 -139q66 0 103.5 26.5t37.5 65.5q0 42 -91 68q-32 8 -128 27q-62 11 -109.5 24.5t-99 38t-84.5 56.5t-54.5 82.5t-21.5 113.5q0 134 117.5 229t302.5 92q311 0 434 -237l-248 -105q-21 52 -70.5 82.5t-117.5 30.5
q-65 0 -99 -24t-34 -60q0 -32 44 -49.5t169 -42.5q61 -12 106 -25t98 -38t86.5 -57t56.5 -82.5t23 -114.5q0 -58 -27 -117.5t-78.5 -111t-137.5 -83t-191 -30.5z" />
    <glyph glyph-name="t" unicode="t" horiz-adv-x="759" 
d="M51 772v252h174v240l281 153v-393h192v-252h-192v-326q0 -43 2 -69.5t10 -49t19.5 -33.5t34.5 -19.5t51.5 -10.5t74.5 -2v-262h-41q-244 0 -338 96.5t-94 347.5v328h-174z" />
    <glyph glyph-name="u" unicode="u" horiz-adv-x="1091" 
d="M459 -20q-182 0 -284.5 110.5t-102.5 308.5v625h284v-588q0 -104 48 -160.5t141 -56.5q85 0 139.5 61.5t54.5 184.5v559h281v-1024h-279v113q-110 -133 -282 -133z" />
    <glyph glyph-name="v" unicode="v" horiz-adv-x="1116" 
d="M420 0l-387 1024h289l239 -666l234 666h284l-377 -1024h-282z" />
    <glyph glyph-name="w" unicode="w" horiz-adv-x="1810" 
d="M395 0l-344 1026l281 -2l209 -653l233 653h279l219 -653l221 653h279l-365 -1024h-270l-230 651l-239 -651h-273z" />
    <glyph glyph-name="x" unicode="x" horiz-adv-x="1150" 
d="M31 0l377 520l-363 504h342l199 -287l194 287h330l-354 -506l383 -518h-342l-215 299l-209 -299h-342z" />
    <glyph glyph-name="y" unicode="y" horiz-adv-x="1128" 
d="M223 -473l209 518l-407 979h294l252 -631l236 631h291l-594 -1497h-281z" />
    <glyph glyph-name="z" unicode="z" horiz-adv-x="1048" 
d="M61 0v250l539 526h-530v248h907v-252l-539 -524h549v-248h-926z" />
    <glyph glyph-name="braceleft" unicode="{" horiz-adv-x="757" 
d="M707 -471h-23q-256 0 -353.5 96.5t-97.5 347.5v197q0 65 -5.5 100t-26 61.5t-57.5 35t-103 8.5v262q66 0 103 8.5t57.5 35t26 61.5t5.5 100v209q0 251 97.5 347.5t353.5 96.5h23v-262q-55 0 -86.5 -4.5t-55 -14t-33.5 -32.5t-14 -52t-4 -81v-209q0 -132 -36.5 -213
t-119.5 -121q83 -40 119.5 -121t36.5 -213v-197q0 -52 4 -81t14 -52t33.5 -32.5t55 -14t86.5 -4.5v-262z" />
    <glyph glyph-name="bar" unicode="|" horiz-adv-x="428" 
d="M72 -471v1966h284v-1966h-284z" />
    <glyph glyph-name="braceright" unicode="}" horiz-adv-x="757" 
d="M51 -471v262q55 0 86.5 4.5t55 14t33.5 32.5t14 52t4 81v197q0 133 35 213.5t118 120.5q-83 40 -118 120.5t-35 213.5v209q0 52 -4 81t-14 52t-33.5 32.5t-55 14t-86.5 4.5v262h23q104 0 178 -14.5t127.5 -45.5t84.5 -84t45.5 -125.5t14.5 -174.5v-209q0 -65 6 -100.5
t26.5 -61.5t57.5 -34.5t103 -8.5v-262q-66 0 -103 -8.5t-57.5 -34.5t-26.5 -61.5t-6 -100.5v-197q0 -102 -14.5 -174.5t-45.5 -125.5t-84.5 -84t-127.5 -45.5t-178 -14.5h-23z" />
    <glyph glyph-name="asciitilde" unicode="~" horiz-adv-x="964" 
d="M129 1178q0 126 57.5 201t157.5 75q76 0 156 -49q4 -3 16 -10.5t16.5 -10.5t14 -8.5t15.5 -8t14 -6t15.5 -4.5t14.5 -1q56 0 56 90h161q0 -129 -55 -203t-160 -74q-37 0 -74.5 12t-52.5 20.5t-51 29.5q-60 35 -86 35q-53 0 -53 -88h-162z" />
    <glyph glyph-name="exclamdown" unicode="&#xa1;" horiz-adv-x="423" 
d="M72 -471v240q0 204 17.5 444t45.5 428h154q28 -188 45.5 -428t17.5 -444v-240h-280zM72 743v281h280v-281h-280z" />
    <glyph glyph-name="cent" unicode="&#xa2;" 
d="M475 -266v266q-182 50 -298 201t-116 346t116 346t298 201v268h285v-262q136 -30 237.5 -117.5t155.5 -212.5l-252 -108q-34 84 -107.5 135t-166.5 51q-124 0 -209.5 -87.5t-85.5 -213.5t85.5 -213.5t209.5 -87.5q92 0 166 50.5t108 133.5l252 -106q-53 -126 -155 -213
t-238 -117v-260h-285z" />
    <glyph glyph-name="sterling" unicode="&#xa3;" 
d="M111 672v225h110q-35 87 -35 190q0 194 124 311.5t333 117.5q184 0 300 -80.5t159 -223.5l-271 -96q-40 152 -184 152q-85 0 -128.5 -48t-43.5 -128q0 -83 49 -195h394v-225h-285q69 -163 69 -322q0 -57 -14 -106q39 -39 70 -39q39 0 51 24t12 95v165h291v-157
q0 -190 -60.5 -271t-220.5 -81q-114 0 -237 96q-89 -99 -213 -99q-158 0 -235.5 61.5t-77.5 172.5q0 106 69 175t189 69q86 0 168 -47q-5 24 -15 48t-28 54t-30 48.5t-39 58t-38 55.5h-233zM362 168q47 0 82 35q-60 43 -98 43q-19 0 -30 -11t-11 -26q0 -18 15 -29.5
t42 -11.5z" />
    <glyph glyph-name="currency" unicode="&#xa4;" horiz-adv-x="1583" 
d="M799 209q-142 0 -264 67l-263 -270l-206 203l268 274q-66 117 -66 258q0 142 68 265l-275 288l209 197l271 -283q122 66 258 66q135 0 254 -64l258 265l207 -201l-261 -266q72 -125 72 -267q0 -147 -74 -270l263 -272l-207 -199l-262 270q-116 -61 -250 -61zM799 475
q107 0 182.5 78.5t75.5 187.5t-75.5 188t-182.5 79q-108 0 -182 -78.5t-74 -188.5t74 -188t182 -78z" />
    <glyph glyph-name="yen" unicode="&#xa5;" 
d="M162 573v230h297v51l-414 641h320l239 -397l240 397h315l-416 -645v-47h299v-230h-299v-157h299v-230h-299v-186h-284v186h-297v230h297v157h-297z" />
    <glyph glyph-name="brokenbar" unicode="&#xa6;" horiz-adv-x="428" 
d="M72 635v860h284v-860h-284zM72 -471v860h284v-860h-284z" />
    <glyph glyph-name="section" unicode="&#xa7;" horiz-adv-x="1173" 
d="M582 -20q-186 0 -324 93t-174 216l283 78q19 -68 84 -111t153 -43q81 0 123.5 25.5t42.5 66.5q0 12 -4 23t-14 20t-20 16.5t-29 14.5t-33.5 12t-41.5 12t-44.5 11t-51 11.5t-53.5 12.5q-81 19 -141 37.5t-120 47t-97.5 62t-60.5 81t-23 106.5q0 79 48.5 144t125.5 98
q-64 80 -64 182q0 140 114 231.5t317 88.5q177 0 304.5 -83.5t161.5 -199.5l-268 -76q-11 59 -67 99t-138 40q-77 0 -117 -24t-40 -64q0 -50 69.5 -83t210.5 -66q81 -19 141.5 -37.5t120 -47t97.5 -61.5t61 -80t23 -104q0 -77 -42 -137.5t-114 -95.5q70 -73 70 -179
q0 -143 -131 -241.5t-338 -95.5zM641 653q75 -17 145 -43q68 28 68 80q0 14 -5 26t-17.5 22.5t-25.5 19.5t-37.5 18.5t-45 16.5t-56 16.5t-62.5 16.5t-73 18q-73 15 -137 43q-76 -25 -76 -82q0 -27 19.5 -47.5t68 -39t96.5 -31.5t138 -34z" />
    <glyph glyph-name="dieresis" unicode="&#xa8;" horiz-adv-x="964" 
d="M535 1126v281h280v-281h-280zM152 1126v281h280v-281h-280z" />
    <glyph glyph-name="copyright" unicode="&#xa9;" horiz-adv-x="1611" 
d="M805 -20q-209 0 -384.5 102.5t-277.5 279t-102 386.5q0 209 102 385.5t278 279.5t384 103q209 0 385.5 -103t278.5 -279.5t102 -385.5q0 -157 -60 -299.5t-162.5 -245t-244.5 -163t-299 -60.5zM805 197q149 0 275 74t199 201t73 276t-73 275.5t-199 200.5t-275 74
q-151 0 -275.5 -74t-194 -200t-69.5 -276t69.5 -276t194 -200.5t275.5 -74.5zM819 334q-182 0 -301 120t-119 294t119.5 293.5t300.5 119.5q121 0 220 -63.5t145 -161.5l-217 -98q-10 41 -49.5 70.5t-100.5 29.5q-79 0 -133.5 -55t-54.5 -135t54.5 -135.5t133.5 -55.5
q58 0 100.5 30.5t53.5 71.5l223 -77q-48 -109 -148.5 -178.5t-226.5 -69.5z" />
    <glyph glyph-name="ordfeminine" unicode="&#xaa;" horiz-adv-x="739" 
d="M305 891q-45 0 -90 18t-86 53t-66.5 96.5t-25.5 139.5q0 79 26 141.5t68 97.5t87.5 52.5t90.5 17.5q94 0 154 -63v51h205v-594h-205v62q-62 -72 -158 -72zM356 1079q50 0 81.5 35t31.5 86t-31.5 85t-81.5 34q-52 0 -85 -33t-33 -86q0 -52 33.5 -86.5t84.5 -34.5z" />
    <glyph glyph-name="guillemotleft" unicode="&#xab;" horiz-adv-x="978" 
d="M469 213l-377 231v158l377 232v-191l-203 -121l203 -119v-190zM887 213l-377 231v158l377 232v-191l-203 -121l203 -119v-190z" />
    <glyph glyph-name="logicalnot" unicode="&#xac;" horiz-adv-x="1234" 
d="M879 313v473h-822v273h1106v-746h-284z" />
    <glyph glyph-name="uni00AD" unicode="&#xad;" horiz-adv-x="901" 
d="M72 401v240h757v-240h-757z" />
    <glyph glyph-name="registered" unicode="&#xae;" horiz-adv-x="712" 
d="M356 881q-130 0 -222.5 93t-92.5 224t92.5 224.5t222.5 93.5t223 -93.5t93 -224.5t-93 -224t-223 -93zM213 1042v316h158q70 0 109.5 -30t39.5 -81q0 -76 -65 -100l59 -98q59 62 59 149q0 92 -63 154.5t-154 62.5q-92 0 -152.5 -62t-60.5 -155q0 -92 61 -155.5t152 -63.5
q89 0 152 63h-109l-77 148v-148h-109zM367 1272h-45v-66h45q41 0 41 33t-41 33z" />
    <glyph glyph-name="macron" unicode="&#xaf;" horiz-adv-x="964" 
d="M213 1126v177h541v-177h-541z" />
    <glyph glyph-name="degree" unicode="&#xb0;" horiz-adv-x="815" 
d="M408 782q-152 0 -259.5 107.5t-107.5 259.5t107.5 259.5t259.5 107.5t259 -107.5t107 -259.5t-107 -259.5t-259 -107.5zM408 1020q52 0 90.5 38t38.5 91t-38.5 91t-90.5 38t-90.5 -38t-38.5 -91t38.5 -91t90.5 -38z" />
    <glyph glyph-name="plusminus" unicode="&#xb1;" horiz-adv-x="901" 
d="M72 852v240h262v258h235v-258h260v-240h-260v-260h-235v260h-262zM72 238v239h757v-239h-757z" />
    <glyph glyph-name="twosuperior" unicode="&#xb2;" horiz-adv-x="675" 
d="M27 631v172q0 61 20 112t57.5 88t73 61.5t84.5 49.5q8 4 22 12q47 25 68.5 38.5t41.5 34.5t20 42q0 28 -21 46t-59 18q-43 0 -75.5 -32.5t-49.5 -78.5l-203 104q47 99 131 154t201 55q140 0 228.5 -74t88.5 -190q0 -58 -21 -106.5t-61 -85t-75.5 -59.5t-85.5 -48
q-94 -49 -115 -68q-15 -15 -18 -28h370v-217h-622z" />
    <glyph glyph-name="threesuperior" unicode="&#xb3;" horiz-adv-x="665" 
d="M324 618q-93 0 -177.5 27.5t-138.5 81.5l178 160q53 -56 123 -56q39 0 63.5 18.5t24.5 51.5q0 66 -116 66h-91v204h86q49 0 76 18.5t27 51.5q0 29 -22 45.5t-62 16.5q-32 0 -61 -15.5t-44 -40.5l-167 146q51 53 128 83.5t152 30.5q144 0 234 -70t90 -188q0 -100 -84 -168
q104 -65 104 -186q0 -120 -88.5 -198.5t-234.5 -78.5z" />
    <glyph glyph-name="acute" unicode="&#xb4;" horiz-adv-x="964" 
d="M213 1126l233 349h263l-308 -349h-188z" />
    <glyph glyph-name="mu" unicode="&#xb5;" horiz-adv-x="1071" 
d="M61 -471v1495h285v-532q0 -132 46.5 -201.5t139.5 -69.5q86 0 141.5 61t55.5 183v559h281v-1024h-279v98q-94 -118 -252 -118q-71 0 -139 30v-481h-279z" />
    <glyph glyph-name="mu" unicode="&#x3bc;" horiz-adv-x="1071" 
d="M61 -471v1495h285v-532q0 -132 46.5 -201.5t139.5 -69.5q86 0 141.5 61t55.5 183v559h281v-1024h-279v98q-94 -118 -252 -118q-71 0 -139 30v-481h-279z" />
    <glyph glyph-name="paragraph" unicode="&#xb6;" horiz-adv-x="1353" 
d="M672 0v618h-187q-190 0 -317 127t-127 312q0 184 127 311t315 127h799v-1495h-244v1231h-123v-1231h-243z" />
    <glyph glyph-name="periodcentered" unicode="&#xb7;" horiz-adv-x="423" 
d="M72 381v281h280v-281h-280z" />
    <glyph glyph-name="cedilla" unicode="&#xb8;" horiz-adv-x="964" 
d="M432 -492q-77 0 -154.5 33t-138.5 88l160 97q31 -24 47.5 -35.5t46 -22t62.5 -10.5q45 0 77.5 17.5t32.5 43.5q0 56 -116 56h-105v225h174v-109q113 4 174.5 -41t61.5 -122q0 -95 -93 -157.5t-229 -62.5z" />
    <glyph glyph-name="onesuperior" unicode="&#xb9;" horiz-adv-x="610" 
d="M27 631v217h166v332q-42 -54 -130 -54h-12v224h6q54 0 88 24.5t45 55t11 65.5h227v-647h160v-217h-561z" />
    <glyph glyph-name="ordmasculine" unicode="&#xba;" horiz-adv-x="686" 
d="M344 891q-128 0 -217.5 89.5t-89.5 217.5q0 129 89.5 219t217.5 90q127 0 216 -90t89 -219q0 -128 -89 -217.5t-216 -89.5zM344 1085q45 0 77 33.5t32 79.5q0 47 -31.5 81t-77.5 34q-47 0 -77.5 -33.5t-30.5 -81.5q0 -47 31 -80t77 -33z" />
    <glyph glyph-name="guillemotright" unicode="&#xbb;" horiz-adv-x="978" 
d="M510 213v190l203 119l-203 121v191l377 -232v-158zM92 213v190l203 119l-203 121v191l377 -232v-158z" />
    <glyph glyph-name="onequarter" unicode="&#xbc;" horiz-adv-x="1753" 
d="M172 0l1079 1495h328l-1079 -1495h-328zM1382 0v170h-344v207l342 487h219v-495h127v-199h-127v-170h-217zM27 631v217h166v332q-42 -54 -130 -54h-12v224h6q54 0 88 24.5t45 55t11 65.5h227v-647h160v-217h-561zM1280 369h102v147z" />
    <glyph glyph-name="onehalf" unicode="&#xbd;" horiz-adv-x="1783" 
d="M172 0l1079 1495h328l-1079 -1495h-328zM1135 0v172q0 61 20 112t57.5 88t73 61.5t84.5 49.5q8 4 22 12q47 25 68.5 38.5t41.5 34.5t20 42q0 28 -21 46t-59 18q-43 0 -75.5 -32.5t-49.5 -78.5l-203 105q47 99 131 154t201 55q140 0 228.5 -74.5t88.5 -190.5
q0 -58 -21 -106.5t-61 -85t-75.5 -59.5t-85.5 -48q-94 -48 -115 -67q-16 -15 -19 -29h371v-217h-622zM27 631v217h166v332q-42 -54 -130 -54h-12v224h6q54 0 88 24.5t45 55t11 65.5h227v-647h160v-217h-561z" />
    <glyph glyph-name="threequarters" unicode="&#xbe;" horiz-adv-x="1767" 
d="M186 0l1080 1495h327l-1079 -1495h-328zM1397 0v170h-344v207l342 487h219v-495h127v-199h-127v-170h-217zM324 618q-93 0 -177.5 27.5t-138.5 81.5l178 160q53 -56 123 -56q39 0 63.5 18.5t24.5 51.5q0 66 -116 66h-91v204h86q49 0 76 18.5t27 51.5q0 29 -22 45.5
t-62 16.5q-32 0 -61 -15.5t-44 -40.5l-167 146q51 53 128 83.5t152 30.5q144 0 234 -70t90 -188q0 -100 -84 -168q104 -65 104 -186q0 -120 -88.5 -198.5t-234.5 -78.5zM1294 369h103v147z" />
    <glyph glyph-name="questiondown" unicode="&#xbf;" horiz-adv-x="1054" 
d="M539 -492q-210 0 -343 119t-133 312q0 79 20.5 140t53.5 100t72.5 72t79.5 65.5t73 70.5t53.5 96t20.5 133v23h252v-23q0 -101 -18.5 -181t-48 -130t-65.5 -89t-72 -68.5t-65.5 -58t-48 -67.5t-18.5 -88q0 -78 52.5 -128t138.5 -50q77 0 129.5 48.5t70.5 125.5l265 -88
q-38 -154 -158 -244t-311 -90zM422 743v281h280v-281h-280z" />
    <glyph glyph-name="Agrave" unicode="&#xc0;" horiz-adv-x="1404" 
d="M29 0l530 1495h287l530 -1495h-297l-90 260h-573l-90 -260h-297zM702 1090l-192 -558h385zM614 1597l-307 349h262l234 -349h-189z" />
    <glyph glyph-name="Aacute" unicode="&#xc1;" horiz-adv-x="1404" 
d="M29 0l530 1495h287l530 -1495h-297l-90 260h-573l-90 -260h-297zM702 1090l-192 -558h385zM608 1597l234 349h262l-307 -349h-189z" />
    <glyph glyph-name="Acircumflex" unicode="&#xc2;" horiz-adv-x="1404" 
d="M29 0l530 1495h287l530 -1495h-297l-90 260h-573l-90 -260h-297zM371 1597l243 349h174l244 -349h-211l-121 181l-118 -181h-211zM702 1090l-192 -558h385z" />
    <glyph glyph-name="Atilde" unicode="&#xc3;" horiz-adv-x="1404" 
d="M29 0l530 1495h287l530 -1495h-297l-90 260h-573l-90 -260h-297zM354 1597q0 126 57.5 201.5t157.5 75.5q76 0 156 -49q4 -3 16 -10.5t16.5 -10.5t14 -8.5t15.5 -8t14 -6t15.5 -4.5t14.5 -1q56 0 56 90h162q0 -129 -55 -203t-160 -74q-37 0 -74.5 11.5t-53.5 20.5t-51 30
q-60 35 -86 35q-53 0 -53 -89h-162zM702 1090l-192 -558h385z" />
    <glyph glyph-name="Adieresis" unicode="&#xc4;" horiz-adv-x="1404" 
d="M29 0l530 1495h287l530 -1495h-297l-90 260h-573l-90 -260h-297zM702 1090l-192 -558h385zM754 1597v281h280v-281h-280zM371 1597v281h280v-281h-280z" />
    <glyph glyph-name="Aring" unicode="&#xc5;" horiz-adv-x="1404" 
d="M29 0l499 1409q-65 68 -65 166q0 101 69.5 171.5t167.5 70.5q101 0 171.5 -70.5t70.5 -171.5q0 -98 -68 -166l502 -1409h-297l-90 260h-573l-90 -260h-297zM702 1090l-192 -558h385zM621 1575q0 -31 21.5 -55t51.5 -25h13q32 1 54.5 25t22.5 55q0 34 -25 59t-59 25
q-32 0 -55.5 -25t-23.5 -59z" />
    <glyph glyph-name="AE" unicode="&#xc6;" horiz-adv-x="1910" 
d="M25 0l680 1495h1140v-272h-782l86 -336h696v-273h-626l86 -342h540v-272h-770l-63 258h-576l-114 -258h-297zM807 1087l-252 -565h391z" />
    <glyph glyph-name="Ccedilla" unicode="&#xc7;" horiz-adv-x="1505" 
d="M791 -492q-77 0 -154.5 33t-138.5 88l159 97q31 -24 47.5 -35.5t46 -22t62.5 -10.5q45 0 78 17.5t33 43.5q0 56 -117 56h-105v213q-198 23 -349 129.5t-231.5 270.5t-80.5 360q0 164 59.5 307.5t162 244t244.5 158.5t302 58q207 0 381 -100.5t274 -270.5l-250 -160
q-135 250 -405 250q-208 0 -346.5 -140t-138.5 -347q0 -133 62 -243.5t172.5 -175.5t244.5 -65q147 0 255.5 76t168.5 203l260 -137q-92 -179 -252.5 -292t-357.5 -130v-93q112 4 173.5 -41t61.5 -122q0 -95 -92.5 -157.5t-228.5 -62.5z" />
    <glyph glyph-name="Egrave" unicode="&#xc8;" horiz-adv-x="1034" 
d="M82 0v1495h887v-272h-602v-336h602v-273h-602v-342h602v-272h-887zM451 1597l-308 349h263l233 -349h-188z" />
    <glyph glyph-name="Eacute" unicode="&#xc9;" horiz-adv-x="1034" 
d="M82 0v1495h887v-272h-602v-336h602v-273h-602v-342h602v-272h-887zM412 1597l233 349h262l-307 -349h-188z" />
    <glyph glyph-name="Ecircumflex" unicode="&#xca;" horiz-adv-x="1034" 
d="M82 0v1495h887v-272h-602v-336h602v-273h-602v-342h602v-272h-887zM195 1597l243 349h174l244 -349h-211l-121 181l-118 -181h-211z" />
    <glyph glyph-name="Edieresis" unicode="&#xcb;" horiz-adv-x="1034" 
d="M82 0v1495h887v-272h-602v-336h602v-273h-602v-342h602v-272h-887zM586 1597v281h280v-281h-280zM203 1597v281h280v-281h-280z" />
    <glyph glyph-name="Igrave" unicode="&#xcc;" horiz-adv-x="468" 
d="M92 0v1495h285v-1495h-285zM141 1597l-307 349h262l234 -349h-189z" />
    <glyph glyph-name="Iacute" unicode="&#xcd;" horiz-adv-x="468" 
d="M92 0v1495h285v-1495h-285zM143 1597l234 349h262l-307 -349h-189z" />
    <glyph glyph-name="Icircumflex" unicode="&#xce;" horiz-adv-x="468" 
d="M92 0v1495h285v-1495h-285zM-94 1597l244 349h174l243 -349h-211l-120 181l-119 -181h-211z" />
    <glyph glyph-name="Idieresis" unicode="&#xcf;" horiz-adv-x="468" 
d="M307 1597v281h281v-281h-281zM-117 1597v281h281v-281h-281zM92 0v1495h285v-1495h-285z" />
    <glyph glyph-name="Eth" unicode="&#xd0;" horiz-adv-x="1419" 
d="M41 631v239h139v625h408q186 0 336.5 -57t249 -157.5t151.5 -237t53 -295.5q0 -211 -98.5 -381.5t-276.5 -268.5t-403 -98h-420v631h-139zM555 1231h-90v-361h334v-239h-334v-367h102q158 0 279 64t184.5 173.5t63.5 246.5q0 221 -136.5 352t-402.5 131z" />
    <glyph glyph-name="Ntilde" unicode="&#xd1;" horiz-adv-x="1406" 
d="M82 0v1495h324l634 -1006v1006h285v-1495h-303l-655 1038v-1038h-285zM352 1597q0 126 57.5 201.5t157.5 75.5q76 0 156 -49q4 -3 16 -10.5t16.5 -10.5t14 -8.5t15.5 -8t14 -6t15.5 -4.5t14.5 -1q56 0 56 90h162q0 -129 -55.5 -203t-160.5 -74q-37 0 -74.5 12t-52.5 20.5
t-51 29.5q-60 35 -86 35q-53 0 -53 -89h-162z" />
    <glyph glyph-name="Ograve" unicode="&#xd2;" horiz-adv-x="1611" 
d="M805 -20q-209 0 -384.5 102.5t-277.5 279t-102 386.5q0 209 102 385.5t278 279.5t384 103q209 0 385.5 -103t278.5 -279.5t102 -385.5q0 -157 -60 -299.5t-162.5 -245t-244.5 -163t-299 -60.5zM805 260q132 0 243 65.5t175.5 178t64.5 244.5t-64.5 244t-175.5 177.5
t-243 65.5t-242.5 -65.5t-174.5 -177.5t-64 -244t64 -244.5t174.5 -178t242.5 -65.5zM711 1597l-308 349h263l233 -349h-188z" />
    <glyph glyph-name="Oacute" unicode="&#xd3;" horiz-adv-x="1611" 
d="M805 -20q-209 0 -384.5 102.5t-277.5 279t-102 386.5q0 209 102 385.5t278 279.5t384 103q209 0 385.5 -103t278.5 -279.5t102 -385.5q0 -157 -60 -299.5t-162.5 -245t-244.5 -163t-299 -60.5zM805 260q132 0 243 65.5t175.5 178t64.5 244.5t-64.5 244t-175.5 177.5
t-243 65.5t-242.5 -65.5t-174.5 -177.5t-64 -244t64 -244.5t174.5 -178t242.5 -65.5zM698 1597l234 349h262l-307 -349h-189z" />
    <glyph glyph-name="Ocircumflex" unicode="&#xd4;" horiz-adv-x="1611" 
d="M805 -20q-209 0 -384.5 102.5t-277.5 279t-102 386.5q0 209 102 385.5t278 279.5t384 103q209 0 385.5 -103t278.5 -279.5t102 -385.5q0 -157 -60 -299.5t-162.5 -245t-244.5 -163t-299 -60.5zM805 260q132 0 243 65.5t175.5 178t64.5 244.5t-64.5 244t-175.5 177.5
t-243 65.5t-242.5 -65.5t-174.5 -177.5t-64 -244t64 -244.5t174.5 -178t242.5 -65.5zM467 1597l244 349h174l243 -349h-210l-121 181l-119 -181h-211z" />
    <glyph glyph-name="Otilde" unicode="&#xd5;" horiz-adv-x="1611" 
d="M805 -20q-209 0 -384.5 102.5t-277.5 279t-102 386.5q0 209 102 385.5t278 279.5t384 103q209 0 385.5 -103t278.5 -279.5t102 -385.5q0 -157 -60 -299.5t-162.5 -245t-244.5 -163t-299 -60.5zM805 260q132 0 243 65.5t175.5 178t64.5 244.5t-64.5 244t-175.5 177.5
t-243 65.5t-242.5 -65.5t-174.5 -177.5t-64 -244t64 -244.5t174.5 -178t242.5 -65.5zM446 1597q0 126 58 201.5t158 75.5q75 0 155 -49q4 -2 14.5 -9t14 -9.5t13 -8t14 -7.5t12.5 -6t13.5 -5t12.5 -2.5t13 -1.5q55 0 55 90h162q0 -129 -55 -203t-160 -74q-37 0 -74.5 12
t-52.5 20.5t-51 29.5q-60 35 -86 35q-54 0 -54 -89h-162z" />
    <glyph glyph-name="Odieresis" unicode="&#xd6;" horiz-adv-x="1611" 
d="M805 -20q-209 0 -384.5 102.5t-277.5 279t-102 386.5q0 209 102 385.5t278 279.5t384 103q209 0 385.5 -103t278.5 -279.5t102 -385.5q0 -157 -60 -299.5t-162.5 -245t-244.5 -163t-299 -60.5zM805 260q132 0 243 65.5t175.5 178t64.5 244.5t-64.5 244t-175.5 177.5
t-243 65.5t-242.5 -65.5t-174.5 -177.5t-64 -244t64 -244.5t174.5 -178t242.5 -65.5zM844 1597v281h280v-281h-280zM461 1597v281h280v-281h-280z" />
    <glyph glyph-name="multiply" unicode="&#xd7;" horiz-adv-x="901" 
d="M238 365l-166 165l213 213l-215 215l166 166l215 -215l215 215l165 -166l-215 -215l213 -213l-165 -165l-213 213z" />
    <glyph glyph-name="Oslash" unicode="&#xd8;" horiz-adv-x="1611" 
d="M41 0l192 236q-92 103 -142 234.5t-50 277.5q0 209 102 385.5t278 279.5t384 103q196 0 381 -103l67 82h328l-199 -244q189 -218 189 -503q0 -157 -60 -299.5t-162.5 -245t-244.5 -163t-299 -60.5q-200 0 -375 96l-61 -76h-328zM324 748q0 -161 90 -287l592 729
q-95 45 -201 45q-132 0 -242.5 -65.5t-174.5 -177.5t-64 -244zM805 260q132 0 243 65.5t175.5 178t64.5 244.5q0 153 -88 278l-588 -725q87 -41 193 -41z" />
    <glyph glyph-name="Ugrave" unicode="&#xd9;" horiz-adv-x="1243" 
d="M621 -20q-118 0 -216 34.5t-170 100.5t-112.5 169t-40.5 234v977h285v-995q0 -108 72 -182t179 -74q108 0 183.5 74.5t75.5 181.5v995h284v-977q0 -173 -71 -296.5t-191 -182.5t-278 -59zM545 1597l-307 349h262l233 -349h-188z" />
    <glyph glyph-name="Uacute" unicode="&#xda;" horiz-adv-x="1243" 
d="M621 -20q-118 0 -216 34.5t-170 100.5t-112.5 169t-40.5 234v977h285v-995q0 -108 72 -182t179 -74q108 0 183.5 74.5t75.5 181.5v995h284v-977q0 -173 -71 -296.5t-191 -182.5t-278 -59zM512 1597l233 349h263l-308 -349h-188z" />
    <glyph glyph-name="Ucircumflex" unicode="&#xdb;" horiz-adv-x="1243" 
d="M621 -20q-118 0 -216 34.5t-170 100.5t-112.5 169t-40.5 234v977h285v-995q0 -108 72 -182t179 -74q108 0 183.5 74.5t75.5 181.5v995h284v-977q0 -173 -71 -296.5t-191 -182.5t-278 -59zM291 1597l244 349h174l243 -349h-211l-120 181l-119 -181h-211z" />
    <glyph glyph-name="Udieresis" unicode="&#xdc;" horiz-adv-x="1243" 
d="M621 -20q-118 0 -216 34.5t-170 100.5t-112.5 169t-40.5 234v977h285v-995q0 -108 72 -182t179 -74q108 0 183.5 74.5t75.5 181.5v995h284v-977q0 -173 -71 -296.5t-191 -182.5t-278 -59zM682 1597v281h281v-281h-281zM299 1597v281h281v-281h-281z" />
    <glyph glyph-name="Yacute" unicode="&#xdd;" horiz-adv-x="1288" 
d="M500 0v709l-475 786h313l305 -514l307 514h314l-480 -793v-702h-284zM541 1597l233 349h262l-307 -349h-188z" />
    <glyph glyph-name="Thorn" unicode="&#xde;" horiz-adv-x="1140" 
d="M82 0v1495h285v-258h245q205 0 341.5 -138.5t136.5 -338.5q0 -202 -136.5 -340.5t-343.5 -138.5h-243v-281h-285zM596 973h-229v-428h229q93 0 152 62t59 153q0 90 -59 151.5t-152 61.5z" />
    <glyph glyph-name="germandbls" unicode="&#xdf;" horiz-adv-x="1060" 
d="M-121 -471v262q55 0 86.5 4.5t55 14t33.5 32.5t14 52t4 81v1059q-6 207 112.5 332t343.5 125q198 0 322.5 -118t124.5 -302q0 -191 -160 -303q-1 -1 -3 -2t-3 -2q91 -38 151 -129t60 -203q0 -199 -133 -325.5t-346 -126.5q-70 0 -103 6v245h99q87 0 141.5 56.5
t54.5 142.5q0 85 -67.5 143t-180.5 58h-47v254h47q100 0 160 53t60 133q0 79 -49 130.5t-132 51.5q-188 0 -188 -190v-1090q0 -129 -19 -211t-67.5 -136t-127 -75.5t-202.5 -21.5h-41z" />
    <glyph glyph-name="agrave" unicode="&#xe0;" horiz-adv-x="1196" 
d="M535 -20q-67 0 -135 20.5t-132.5 64t-115 104.5t-81 150t-30.5 193q0 105 29.5 194t79 150t114.5 104.5t134.5 63.5t140.5 20q192 0 305 -120v100h280v-1024h-280v115q-53 -62 -132.5 -98.5t-176.5 -36.5zM590 238q113 0 187.5 80.5t74.5 195.5t-74.5 194.5t-187.5 79.5
q-117 0 -196 -78t-79 -196t79 -197t196 -79zM473 1126l-307 349h262l234 -349h-189z" />
    <glyph glyph-name="aacute" unicode="&#xe1;" horiz-adv-x="1196" 
d="M535 -20q-67 0 -135 20.5t-132.5 64t-115 104.5t-81 150t-30.5 193q0 105 29.5 194t79 150t114.5 104.5t134.5 63.5t140.5 20q192 0 305 -120v100h280v-1024h-280v115q-53 -62 -132.5 -98.5t-176.5 -36.5zM590 238q113 0 187.5 80.5t74.5 195.5t-74.5 194.5t-187.5 79.5
q-117 0 -196 -78t-79 -196t79 -197t196 -79zM430 1126l234 349h262l-308 -349h-188z" />
    <glyph glyph-name="acircumflex" unicode="&#xe2;" horiz-adv-x="1196" 
d="M535 -20q-67 0 -135 20.5t-132.5 64t-115 104.5t-81 150t-30.5 193q0 105 29.5 194t79 150t114.5 104.5t134.5 63.5t140.5 20q192 0 305 -120v100h280v-1024h-280v115q-53 -62 -132.5 -98.5t-176.5 -36.5zM590 238q113 0 187.5 80.5t74.5 195.5t-74.5 194.5t-187.5 79.5
q-117 0 -196 -78t-79 -196t79 -197t196 -79zM293 1126l244 349h174l243 -349h-211l-120 181l-119 -181h-211z" />
    <glyph glyph-name="atilde" unicode="&#xe3;" horiz-adv-x="1196" 
d="M535 -20q-67 0 -135 20.5t-132.5 64t-115 104.5t-81 150t-30.5 193q0 105 29.5 194t79 150t114.5 104.5t134.5 63.5t140.5 20q192 0 305 -120v100h280v-1024h-280v115q-53 -62 -132.5 -98.5t-176.5 -36.5zM590 238q113 0 187.5 80.5t74.5 195.5t-74.5 194.5t-187.5 79.5
q-117 0 -196 -78t-79 -196t79 -197t196 -79zM250 1126q0 126 57.5 201.5t157.5 75.5q76 0 156 -49q4 -3 16 -10.5t16.5 -10.5t14 -8.5t15.5 -8t14 -6t15.5 -4.5t14.5 -1q55 0 55 90h162q0 -129 -55 -203t-160 -74q-37 0 -74.5 12t-52.5 20.5t-51 29.5q-59 34 -86 34
q-53 0 -53 -88h-162z" />
    <glyph glyph-name="adieresis" unicode="&#xe4;" horiz-adv-x="1196" 
d="M535 -20q-67 0 -135 20.5t-132.5 64t-115 104.5t-81 150t-30.5 193q0 105 29.5 194t79 150t114.5 104.5t134.5 63.5t140.5 20q192 0 305 -120v100h280v-1024h-280v115q-53 -62 -132.5 -98.5t-176.5 -36.5zM590 238q113 0 187.5 80.5t74.5 195.5t-74.5 194.5t-187.5 79.5
q-117 0 -196 -78t-79 -196t79 -197t196 -79zM659 1126v281h281v-281h-281zM276 1126v281h281v-281h-281z" />
    <glyph glyph-name="aring" unicode="&#xe5;" horiz-adv-x="1196" 
d="M535 -20q-67 0 -135 20.5t-132.5 64t-115 104.5t-81 150t-30.5 193q0 105 29.5 194t79 150t114.5 104.5t134.5 63.5t140.5 20q192 0 305 -120v100h280v-1024h-280v115q-53 -62 -132.5 -98.5t-176.5 -36.5zM590 238q113 0 187.5 80.5t74.5 195.5t-74.5 194.5t-187.5 79.5
q-117 0 -196 -78t-79 -196t79 -197t196 -79zM567 1112q-98 0 -167.5 70t-69.5 168q0 101 69 171t168 70q101 0 171.5 -70t70.5 -171q0 -99 -70.5 -168.5t-171.5 -69.5zM567 1270q34 0 59 24t25 56q0 34 -25 59t-59 25q-32 0 -56 -25t-24 -59q0 -32 24 -56t56 -24z" />
    <glyph glyph-name="ae" unicode="&#xe6;" horiz-adv-x="1810" 
d="M1249 -20q-136 0 -245 53t-179 149q-55 -91 -165 -146.5t-244 -55.5q-188 0 -281.5 79.5t-93.5 212.5q0 134 84.5 210t239.5 118q33 9 96.5 24.5t95 24.5t70 23.5t55 31.5t16.5 39q0 34 -40 58t-111 24q-110 0 -163.5 -48t-53.5 -120v-6h-254v4q0 185 120.5 287
t338.5 102q116 0 207.5 -34.5t146.5 -98.5q149 133 350 133q150 0 272 -71t190 -193t68 -268v-90h-792q22 -91 92.5 -144t181.5 -53q85 0 155.5 47t104.5 123l232 -94q-61 -144 -195 -232.5t-299 -88.5zM430 211q105 0 190 78.5t85 142.5v49q-5 -14 -61.5 -36.5
t-143.5 -43.5q-99 -24 -141 -50.5t-42 -69.5q0 -70 113 -70zM1241 799q-84 0 -148.5 -41t-97.5 -111h486q-31 73 -93.5 112.5t-146.5 39.5z" />
    <glyph glyph-name="ccedilla" unicode="&#xe7;" horiz-adv-x="1095" 
d="M571 -492q-77 0 -154 33t-138 88l159 97q31 -24 47.5 -35.5t46 -22t62.5 -10.5q45 0 78 17.5t33 43.5q0 56 -117 56h-105v213q-190 31 -316 178.5t-126 345.5q0 145 70.5 267.5t192.5 193.5t267 71q171 0 301.5 -88.5t192.5 -234.5l-250 -107q-30 73 -95.5 118.5
t-146.5 45.5q-110 0 -186 -77.5t-76 -188.5t76 -188.5t186 -77.5q81 0 146.5 45.5t95.5 118.5l250 -107q-53 -126 -160.5 -211t-247.5 -106v-95q113 4 174.5 -41t61.5 -122q0 -95 -93 -157.5t-229 -62.5z" />
    <glyph glyph-name="egrave" unicode="&#xe8;" horiz-adv-x="1144" 
d="M582 -20q-156 0 -280.5 71.5t-192.5 192.5t-68 268q0 145 71 267.5t193.5 193.5t267.5 71q153 0 275 -71t188 -191.5t66 -267.5v-102h-791q25 -87 95 -137t178 -50q84 0 151 43t101 117l223 -133q-69 -125 -191 -198.5t-286 -73.5zM500 1126l-307 349h262l233 -349h-188z
M575 799q-87 0 -152.5 -44t-98.5 -118h495q-28 79 -91 120.5t-153 41.5z" />
    <glyph glyph-name="eacute" unicode="&#xe9;" horiz-adv-x="1144" 
d="M582 -20q-156 0 -280.5 71.5t-192.5 192.5t-68 268q0 145 71 267.5t193.5 193.5t267.5 71q153 0 275 -71t188 -191.5t66 -267.5v-102h-791q25 -87 95 -137t178 -50q84 0 151 43t101 117l223 -133q-69 -125 -191 -198.5t-286 -73.5zM457 1126l233 349h262l-307 -349h-188z
M575 799q-87 0 -152.5 -44t-98.5 -118h495q-28 79 -91 120.5t-153 41.5z" />
    <glyph glyph-name="ecircumflex" unicode="&#xea;" horiz-adv-x="1144" 
d="M582 -20q-156 0 -280.5 71.5t-192.5 192.5t-68 268q0 145 71 267.5t193.5 193.5t267.5 71q153 0 275 -71t188 -191.5t66 -267.5v-102h-791q25 -87 95 -137t178 -50q84 0 151 43t101 117l223 -133q-69 -125 -191 -198.5t-286 -73.5zM233 1126l244 349h174l244 -349h-211
l-121 181l-119 -181h-211zM575 799q-87 0 -152.5 -44t-98.5 -118h495q-28 79 -91 120.5t-153 41.5z" />
    <glyph glyph-name="edieresis" unicode="&#xeb;" horiz-adv-x="1144" 
d="M582 -20q-156 0 -280.5 71.5t-192.5 192.5t-68 268q0 145 71 267.5t193.5 193.5t267.5 71q153 0 275 -71t188 -191.5t66 -267.5v-102h-791q25 -87 95 -137t178 -50q84 0 151 43t101 117l223 -133q-69 -125 -191 -198.5t-286 -73.5zM623 1126v281h280v-281h-280zM240 1126
v281h280v-281h-280zM575 799q-87 0 -152.5 -44t-98.5 -118h495q-28 79 -91 120.5t-153 41.5z" />
    <glyph glyph-name="igrave" unicode="&#xec;" horiz-adv-x="423" 
d="M72 0v1024h280v-1024h-280zM154 1126l-308 349h263l233 -349h-188z" />
    <glyph glyph-name="iacute" unicode="&#xed;" horiz-adv-x="423" 
d="M72 0v1024h280v-1024h-280zM80 1126l233 349h262l-307 -349h-188z" />
    <glyph glyph-name="icircumflex" unicode="&#xee;" horiz-adv-x="423" 
d="M72 0v1024h280v-1024h-280zM-119 1126l244 349h174l244 -349h-211l-121 181l-119 -181h-211z" />
    <glyph glyph-name="idieresis" unicode="&#xef;" horiz-adv-x="423" 
d="M283 1126v281h280v-281h-280zM-141 1126v281h280v-281h-280zM72 0v1024h280v-1024h-280z" />
    <glyph glyph-name="eth" unicode="&#xf0;" horiz-adv-x="1148" 
d="M213 1075l223 185q-104 88 -315 235h389q57 -45 104 -86l103 86h237l-227 -190q375 -375 375 -779q0 -152 -70.5 -277.5t-193 -197t-269.5 -71.5q-141 0 -261.5 68t-193.5 190.5t-73 271.5q0 222 143 366t357 144q101 0 176 -43q-65 90 -166 180l-98 -82h-240zM571 246
q104 0 181 79t77 185q0 111 -74 189.5t-182 78.5q-106 0 -182 -75.5t-76 -192.5q0 -113 75.5 -188.5t180.5 -75.5z" />
    <glyph glyph-name="ntilde" unicode="&#xf1;" horiz-adv-x="1091" 
d="M72 0v1024h278v-115q50 64 123.5 99.5t159.5 35.5q182 0 284.5 -110.5t102.5 -308.5v-625h-285v588q0 104 -47.5 160.5t-140.5 56.5q-85 0 -140 -62t-55 -184v-559h-280zM201 1128q0 126 57.5 201.5t157.5 75.5q75 0 155 -49q4 -2 14.5 -9t14 -9.5t13 -8t14 -7.5t12.5 -6
t13.5 -5t12.5 -2.5t13 -1.5q55 0 55 90h162q0 -129 -55 -203t-160 -74q-37 0 -74.5 12t-52.5 20.5t-51 29.5q-60 35 -86 35q-54 0 -54 -89h-161z" />
    <glyph glyph-name="ograve" unicode="&#xf2;" horiz-adv-x="1142" 
d="M571 -20q-145 0 -267 71t-192.5 193.5t-70.5 267.5t70.5 267.5t192.5 193.5t267 71t267.5 -71t193 -193.5t70.5 -267.5t-70.5 -267.5t-193 -193.5t-267.5 -71zM571 246q107 0 182.5 78.5t75.5 187.5t-75.5 187.5t-182.5 78.5q-108 0 -182 -78t-74 -188t74 -188t182 -78z
M485 1126l-307 349h262l234 -349h-189z" />
    <glyph glyph-name="oacute" unicode="&#xf3;" horiz-adv-x="1142" 
d="M571 -20q-145 0 -267 71t-192.5 193.5t-70.5 267.5t70.5 267.5t192.5 193.5t267 71t267.5 -71t193 -193.5t70.5 -267.5t-70.5 -267.5t-193 -193.5t-267.5 -71zM571 246q107 0 182.5 78.5t75.5 187.5t-75.5 187.5t-182.5 78.5q-108 0 -182 -78t-74 -188t74 -188t182 -78z
M469 1126l233 349h263l-308 -349h-188z" />
    <glyph glyph-name="ocircumflex" unicode="&#xf4;" horiz-adv-x="1142" 
d="M571 -20q-145 0 -267 71t-192.5 193.5t-70.5 267.5t70.5 267.5t192.5 193.5t267 71t267.5 -71t193 -193.5t70.5 -267.5t-70.5 -267.5t-193 -193.5t-267.5 -71zM571 246q107 0 182.5 78.5t75.5 187.5t-75.5 187.5t-182.5 78.5q-108 0 -182 -78t-74 -188t74 -188t182 -78z
M240 1126l243 349h174l244 -349h-211l-121 181l-118 -181h-211z" />
    <glyph glyph-name="otilde" unicode="&#xf5;" horiz-adv-x="1142" 
d="M571 -20q-145 0 -267 71t-192.5 193.5t-70.5 267.5t70.5 267.5t192.5 193.5t267 71t267.5 -71t193 -193.5t70.5 -267.5t-70.5 -267.5t-193 -193.5t-267.5 -71zM571 246q107 0 182.5 78.5t75.5 187.5t-75.5 187.5t-182.5 78.5q-108 0 -182 -78t-74 -188t74 -188t182 -78z
M233 1126q0 126 58 201.5t158 75.5q75 0 155 -49q4 -2 14.5 -9t14 -9.5t13 -8t14 -7.5t12.5 -6t13.5 -5t12.5 -2.5t13 -1.5q55 0 55 90h162q0 -129 -55 -203t-160 -74q-37 0 -74.5 12t-52.5 20.5t-51 29.5q-59 34 -86 34q-54 0 -54 -88h-162z" />
    <glyph glyph-name="odieresis" unicode="&#xf6;" horiz-adv-x="1142" 
d="M571 -20q-145 0 -267 71t-192.5 193.5t-70.5 267.5t70.5 267.5t192.5 193.5t267 71t267.5 -71t193 -193.5t70.5 -267.5t-70.5 -267.5t-193 -193.5t-267.5 -71zM571 246q107 0 182.5 78.5t75.5 187.5t-75.5 187.5t-182.5 78.5q-108 0 -182 -78t-74 -188t74 -188t182 -78z
M623 1126v281h280v-281h-280zM240 1126v281h280v-281h-280z" />
    <glyph glyph-name="divide" unicode="&#xf7;" horiz-adv-x="901" 
d="M72 627v239h757v-239h-757zM334 948v238h237v-238h-237zM334 307v238h237v-238h-237z" />
    <glyph glyph-name="oslash" unicode="&#xf8;" horiz-adv-x="1142" 
d="M571 -20q-132 0 -243 57l-31 -37h-285l144 178q-115 144 -115 334q0 145 70.5 267.5t192.5 193.5t267 71q129 0 240 -57l31 37h284l-143 -176q119 -148 119 -336q0 -145 -70.5 -267.5t-193 -193.5t-267.5 -71zM571 246q109 0 184.5 78t75.5 188q0 60 -26 117l-303 -375
q31 -8 69 -8zM311 512q0 -58 23 -115l301 373q-40 8 -64 8q-110 0 -185 -77.5t-75 -188.5z" />
    <glyph glyph-name="ugrave" unicode="&#xf9;" horiz-adv-x="1091" 
d="M459 -20q-182 0 -284.5 110.5t-102.5 308.5v625h284v-588q0 -104 48 -160.5t141 -56.5q85 0 139.5 61.5t54.5 184.5v559h281v-1024h-279v113q-110 -133 -282 -133zM457 1126l-307 349h262l233 -349h-188z" />
    <glyph glyph-name="uacute" unicode="&#xfa;" horiz-adv-x="1091" 
d="M459 -20q-182 0 -284.5 110.5t-102.5 308.5v625h284v-588q0 -104 48 -160.5t141 -56.5q85 0 139.5 61.5t54.5 184.5v559h281v-1024h-279v113q-110 -133 -282 -133zM440 1126l234 349h262l-307 -349h-189z" />
    <glyph glyph-name="ucircumflex" unicode="&#xfb;" horiz-adv-x="1091" 
d="M459 -20q-182 0 -284.5 110.5t-102.5 308.5v625h284v-588q0 -104 48 -160.5t141 -56.5q85 0 139.5 61.5t54.5 184.5v559h281v-1024h-279v113q-110 -133 -282 -133zM213 1126l244 349h174l243 -349h-210l-121 181l-119 -181h-211z" />
    <glyph glyph-name="udieresis" unicode="&#xfc;" horiz-adv-x="1091" 
d="M459 -20q-182 0 -284.5 110.5t-102.5 308.5v625h284v-588q0 -104 48 -160.5t141 -56.5q85 0 139.5 61.5t54.5 184.5v559h281v-1024h-279v113q-110 -133 -282 -133zM211 1126v281h281v-281h-281zM594 1126v281h280v-281h-280z" />
    <glyph glyph-name="yacute" unicode="&#xfd;" horiz-adv-x="1128" 
d="M223 -473l209 518l-407 979h294l252 -631l236 631h291l-594 -1497h-281zM463 1126l233 349h262l-307 -349h-188z" />
    <glyph glyph-name="thorn" unicode="&#xfe;" horiz-adv-x="1179" 
d="M668 -20q-100 0 -181.5 38.5t-134.5 104.5v-594h-280v1966h280v-588q51 64 131.5 100.5t180.5 36.5q70 0 137.5 -20t130.5 -63t110.5 -104.5t76 -150t28.5 -192.5q0 -105 -29.5 -194t-78 -150.5t-111 -105t-129 -64t-131.5 -20.5zM606 238q117 0 196 79t79 197t-79 196
t-196 78q-113 0 -187.5 -79.5t-74.5 -194.5t74.5 -195.5t187.5 -80.5z" />
    <glyph glyph-name="ydieresis" unicode="&#xff;" horiz-adv-x="1128" 
d="M223 -473l209 518l-407 979h294l252 -631l236 631h291l-594 -1497h-281zM240 1126v281h280v-281h-280zM623 1126v281h280v-281h-280z" />
    <glyph glyph-name="Amacron" unicode="&#x100;" horiz-adv-x="1404" 
d="M29 0l530 1495h287l530 -1495h-297l-90 260h-573l-90 -260h-297zM702 1090l-192 -558h385zM434 1597v177h541v-177h-541z" />
    <glyph glyph-name="amacron" unicode="&#x101;" horiz-adv-x="1196" 
d="M535 -20q-67 0 -135 20.5t-132.5 64t-115 104.5t-81 150t-30.5 193q0 105 29.5 194t79 150t114.5 104.5t134.5 63.5t140.5 20q192 0 305 -120v100h280v-1024h-280v115q-53 -62 -132.5 -98.5t-176.5 -36.5zM590 238q113 0 187.5 80.5t74.5 195.5t-74.5 194.5t-187.5 79.5
q-117 0 -196 -78t-79 -196t79 -197t196 -79zM352 1126v177h541v-177h-541z" />
    <glyph glyph-name="Abreve" unicode="&#x102;" horiz-adv-x="1404" 
d="M29 0l530 1495h287l530 -1495h-297l-90 260h-573l-90 -260h-297zM700 1587q-162 0 -245.5 95.5t-83.5 252.5h176q0 -190 153 -196q154 6 154 196h178q0 -152 -90.5 -250t-241.5 -98zM702 1090l-192 -558h385z" />
    <glyph glyph-name="abreve" unicode="&#x103;" horiz-adv-x="1196" 
d="M535 -20q-67 0 -135 20.5t-132.5 64t-115 104.5t-81 150t-30.5 193q0 105 29.5 194t79 150t114.5 104.5t134.5 63.5t140.5 20q192 0 305 -120v100h280v-1024h-280v115q-53 -62 -132.5 -98.5t-176.5 -36.5zM590 238q113 0 187.5 80.5t74.5 195.5t-74.5 194.5t-187.5 79.5
q-117 0 -196 -78t-79 -196t79 -197t196 -79zM594 1116q-162 0 -246 95.5t-84 252.5h176q0 -190 154 -196q154 6 154 196h178q0 -152 -90.5 -250t-241.5 -98z" />
    <glyph glyph-name="Aogonek" unicode="&#x104;" horiz-adv-x="1404" 
d="M1196 -465q-130 0 -212.5 64t-82.5 159q0 69 39 130t135 122l-86 250h-573l-90 -260h-297l530 1495h287l530 -1495q-174 -115 -220 -154t-46 -77q0 -32 24.5 -47t61.5 -15q26 0 50.5 10t34 17t38.5 30l164 -110q-58 -51 -137 -85t-150 -34zM702 1090l-192 -558h385z" />
    <glyph glyph-name="aogonek" unicode="&#x105;" horiz-adv-x="1196" 
d="M535 -20q-67 0 -135 20.5t-132.5 64t-115 104.5t-81 150t-30.5 193q0 105 29.5 194t79 150t114.5 104.5t134.5 63.5t140.5 20q192 0 305 -120v100h280v-1024h-10q-110 -65 -163.5 -126t-53.5 -101q0 -33 21 -50.5t55 -17.5q50 0 102 64l164 -113q-120 -127 -276 -127
q-118 0 -193.5 62.5t-77.5 158.5q-3 79 36 141.5t116 122.5v101q-53 -62 -132.5 -98.5t-176.5 -36.5zM590 238q113 0 187.5 80.5t74.5 195.5t-74.5 194.5t-187.5 79.5q-117 0 -196 -78t-79 -196t79 -197t196 -79z" />
    <glyph glyph-name="Cacute" unicode="&#x106;" horiz-adv-x="1505" 
d="M809 -20q-170 0 -315 60t-243.5 164t-154 244.5t-55.5 299.5q0 164 59.5 307.5t162 244t244.5 158.5t302 58q207 0 381 -100.5t274 -270.5l-250 -160q-135 250 -405 250q-208 0 -346.5 -140t-138.5 -347q0 -133 62 -243.5t172.5 -175.5t244.5 -65q147 0 255.5 76
t168.5 203l260 -137q-100 -195 -279.5 -310.5t-398.5 -115.5zM713 1597l233 349h262l-307 -349h-188z" />
    <glyph glyph-name="cacute" unicode="&#x107;" horiz-adv-x="1095" 
d="M571 -20q-145 0 -267 71t-192.5 193.5t-70.5 267.5t70.5 267.5t192.5 193.5t267 71q171 0 301.5 -88.5t192.5 -234.5l-250 -107q-30 73 -95.5 118.5t-146.5 45.5q-110 0 -186 -77.5t-76 -188.5t76 -188.5t186 -77.5q81 0 146.5 45.5t95.5 118.5l250 -107
q-62 -146 -192.5 -234.5t-301.5 -88.5zM471 1126l234 349h262l-308 -349h-188z" />
    <glyph glyph-name="Ccircumflex" unicode="&#x108;" horiz-adv-x="1505" 
d="M809 -20q-170 0 -315 60t-243.5 164t-154 244.5t-55.5 299.5q0 164 59.5 307.5t162 244t244.5 158.5t302 58q207 0 381 -100.5t274 -270.5l-250 -160q-135 250 -405 250q-208 0 -346.5 -140t-138.5 -347q0 -133 62 -243.5t172.5 -175.5t244.5 -65q147 0 255.5 76
t168.5 203l260 -137q-100 -195 -279.5 -310.5t-398.5 -115.5zM487 1597l244 349h174l244 -349h-211l-121 181l-119 -181h-211z" />
    <glyph glyph-name="ccircumflex" unicode="&#x109;" horiz-adv-x="1095" 
d="M571 -20q-145 0 -267 71t-192.5 193.5t-70.5 267.5t70.5 267.5t192.5 193.5t267 71q171 0 301.5 -88.5t192.5 -234.5l-250 -107q-30 73 -95.5 118.5t-146.5 45.5q-110 0 -186 -77.5t-76 -188.5t76 -188.5t186 -77.5q81 0 146.5 45.5t95.5 118.5l250 -107
q-62 -146 -192.5 -234.5t-301.5 -88.5zM248 1126l244 349h174l243 -349h-211l-120 181l-119 -181h-211z" />
    <glyph glyph-name="Cdotaccent" unicode="&#x10a;" horiz-adv-x="1505" 
d="M809 -20q-170 0 -315 60t-243.5 164t-154 244.5t-55.5 299.5q0 164 59.5 307.5t162 244t244.5 158.5t302 58q207 0 381 -100.5t274 -270.5l-250 -160q-135 250 -405 250q-208 0 -346.5 -140t-138.5 -347q0 -133 62 -243.5t172.5 -175.5t244.5 -65q147 0 255.5 76
t168.5 203l260 -137q-100 -195 -279.5 -310.5t-398.5 -115.5zM682 1597v281h281v-281h-281z" />
    <glyph glyph-name="cdotaccent" unicode="&#x10b;" horiz-adv-x="1095" 
d="M571 -20q-145 0 -267 71t-192.5 193.5t-70.5 267.5t70.5 267.5t192.5 193.5t267 71q171 0 301.5 -88.5t192.5 -234.5l-250 -107q-30 73 -95.5 118.5t-146.5 45.5q-110 0 -186 -77.5t-76 -188.5t76 -188.5t186 -77.5q81 0 146.5 45.5t95.5 118.5l250 -107
q-62 -146 -192.5 -234.5t-301.5 -88.5zM436 1126v281h281v-281h-281z" />
    <glyph glyph-name="Ccaron" unicode="&#x10c;" horiz-adv-x="1505" 
d="M809 -20q-170 0 -315 60t-243.5 164t-154 244.5t-55.5 299.5q0 164 59.5 307.5t162 244t244.5 158.5t302 58q207 0 381 -100.5t274 -270.5l-250 -160q-135 250 -405 250q-208 0 -346.5 -140t-138.5 -347q0 -133 62 -243.5t172.5 -175.5t244.5 -65q147 0 255.5 76
t168.5 203l260 -137q-100 -195 -279.5 -310.5t-398.5 -115.5zM727 1597l-244 349h211l119 -181l121 181h211l-244 -349h-174z" />
    <glyph glyph-name="ccaron" unicode="&#x10d;" horiz-adv-x="1095" 
d="M571 -20q-145 0 -267 71t-192.5 193.5t-70.5 267.5t70.5 267.5t192.5 193.5t267 71q171 0 301.5 -88.5t192.5 -234.5l-250 -107q-30 73 -95.5 118.5t-146.5 45.5q-110 0 -186 -77.5t-76 -188.5t76 -188.5t186 -77.5q81 0 146.5 45.5t95.5 118.5l250 -107
q-62 -146 -192.5 -234.5t-301.5 -88.5zM494 1126l-244 349h211l119 -181l120 181h211l-243 -349h-174z" />
    <glyph glyph-name="Dcaron" unicode="&#x10e;" horiz-adv-x="1320" 
d="M82 0v1495h407q186 0 336.5 -57t249.5 -157.5t152 -237t53 -295.5q0 -211 -98.5 -381.5t-276.5 -268.5t-403 -98h-420zM457 1231h-90v-967h102q238 0 382 137t144 347q0 221 -136 352t-402 131zM455 1597l-244 349h211l119 -181l121 181h210l-243 -349h-174z" />
    <glyph glyph-name="dcaron" unicode="&#x10f;" horiz-adv-x="1343" 
d="M535 -20q-67 0 -135 20.5t-132.5 64t-115 104.5t-81 150t-30.5 193q0 105 29.5 194t79 150t114.5 104.5t134.5 63.5t140.5 20q192 0 305 -120v571h280v-1495h-280v115q-53 -62 -132.5 -98.5t-176.5 -36.5zM590 238q113 0 187.5 80.5t74.5 195.5t-74.5 194.5t-187.5 79.5
q-117 0 -196 -78t-79 -196t79 -197t196 -79zM1208 1147l49 348h228l-103 -348h-174z" />
    <glyph glyph-name="Dcroat" unicode="&#x110;" horiz-adv-x="1419" 
d="M41 631v239h139v625h408q186 0 336.5 -57t249 -157.5t151.5 -237t53 -295.5q0 -211 -98.5 -381.5t-276.5 -268.5t-403 -98h-420v631h-139zM555 1231h-90v-361h334v-239h-334v-367h102q158 0 279 64t184.5 173.5t63.5 246.5q0 221 -136.5 352t-402.5 131z" />
    <glyph glyph-name="dcroat" unicode="&#x111;" horiz-adv-x="1196" 
d="M715 1126v177h129v192h280v-192h131v-177h-131v-1126h-280v115q-53 -62 -132.5 -98.5t-176.5 -36.5q-67 0 -135 20.5t-132.5 64t-115 104.5t-81 150t-30.5 193q0 105 29.5 194t79 150t114.5 104.5t134.5 63.5t140.5 20q192 0 305 -120v202h-129zM590 238
q113 0 187.5 80.5t74.5 195.5t-74.5 194.5t-187.5 79.5q-117 0 -196 -78t-79 -196t79 -197t196 -79z" />
    <glyph glyph-name="Emacron" unicode="&#x112;" horiz-adv-x="1034" 
d="M82 0v1495h887v-272h-602v-336h602v-273h-602v-342h602v-272h-887zM256 1597v177h541v-177h-541z" />
    <glyph glyph-name="emacron" unicode="&#x113;" horiz-adv-x="1144" 
d="M582 -20q-156 0 -280.5 71.5t-192.5 192.5t-68 268q0 145 71 267.5t193.5 193.5t267.5 71q153 0 275 -71t188 -191.5t66 -267.5v-102h-791q25 -87 95 -137t178 -50q84 0 151 43t101 117l223 -133q-69 -125 -191 -198.5t-286 -73.5zM303 1126v177h541v-177h-541zM575 799
q-87 0 -152.5 -44t-98.5 -118h495q-28 79 -91 120.5t-153 41.5z" />
    <glyph glyph-name="Ebreve" unicode="&#x114;" horiz-adv-x="1034" 
d="M82 0v1495h887v-272h-602v-336h602v-273h-602v-342h602v-272h-887zM532 1587q-162 0 -245.5 95.5t-83.5 252.5h176q0 -190 153 -196q154 6 154 196h178q0 -152 -90.5 -250t-241.5 -98z" />
    <glyph glyph-name="ebreve" unicode="&#x115;" horiz-adv-x="1144" 
d="M582 -20q-156 0 -280.5 71.5t-192.5 192.5t-68 268q0 145 71 267.5t193.5 193.5t267.5 71q153 0 275 -71t188 -191.5t66 -267.5v-102h-791q25 -87 95 -137t178 -50q84 0 151 43t101 117l223 -133q-69 -125 -191 -198.5t-286 -73.5zM573 1116q-162 0 -245.5 95.5
t-83.5 252.5h176q0 -190 153 -196q154 6 154 196h178q0 -152 -90.5 -250t-241.5 -98zM575 799q-87 0 -152.5 -44t-98.5 -118h495q-28 79 -91 120.5t-153 41.5z" />
    <glyph glyph-name="Edotaccent" unicode="&#x116;" horiz-adv-x="1034" 
d="M82 0v1495h887v-272h-602v-336h602v-273h-602v-342h602v-272h-887zM422 1597v281h280v-281h-280z" />
    <glyph glyph-name="edotaccent" unicode="&#x117;" horiz-adv-x="1144" 
d="M582 -20q-156 0 -280.5 71.5t-192.5 192.5t-68 268q0 145 71 267.5t193.5 193.5t267.5 71q153 0 275 -71t188 -191.5t66 -267.5v-102h-791q25 -87 95 -137t178 -50q84 0 151 43t101 117l223 -133q-69 -125 -191 -198.5t-286 -73.5zM436 1126v281h281v-281h-281zM575 799
q-87 0 -152.5 -44t-98.5 -118h495q-28 79 -91 120.5t-153 41.5z" />
    <glyph glyph-name="Eogonek" unicode="&#x118;" horiz-adv-x="1034" 
d="M82 0v1495h887v-272h-602v-336h602v-273h-602v-342h602v-272q-176 -116 -221.5 -154.5t-45.5 -76.5q0 -32 24.5 -47t61.5 -15q26 0 50.5 10t34 17t38.5 30l164 -110q-58 -51 -137 -85t-150 -34q-130 0 -212 64t-82 159q0 66 35.5 124t121.5 118h-569z" />
    <glyph glyph-name="eogonek" unicode="&#x119;" horiz-adv-x="1144" 
d="M557 -465q-130 0 -212.5 64t-82.5 159q0 66 36 125t124 117q-173 49 -277 189t-104 323q0 145 71 267.5t193.5 193.5t267.5 71q153 0 275 -71t188 -191.5t66 -267.5v-102h-791q25 -87 95 -137t178 -50q84 0 151 43t101 117l223 -133q-112 -199 -324 -252
q-173 -115 -218.5 -154t-45.5 -77q0 -32 24.5 -47t61.5 -15q26 0 50.5 10t34 17t38.5 30l164 -110q-58 -51 -137 -85t-150 -34zM575 799q-87 0 -152.5 -44t-98.5 -118h495q-28 79 -91 120.5t-153 41.5z" />
    <glyph glyph-name="Ecaron" unicode="&#x11a;" horiz-adv-x="1034" 
d="M82 0v1495h887v-272h-602v-336h602v-273h-602v-342h602v-272h-887zM436 1597l-243 349h210l119 -181l121 181h211l-244 -349h-174z" />
    <glyph glyph-name="ecaron" unicode="&#x11b;" horiz-adv-x="1144" 
d="M582 -20q-156 0 -280.5 71.5t-192.5 192.5t-68 268q0 145 71 267.5t193.5 193.5t267.5 71q153 0 275 -71t188 -191.5t66 -267.5v-102h-791q25 -87 95 -137t178 -50q84 0 151 43t101 117l223 -133q-69 -125 -191 -198.5t-286 -73.5zM489 1126l-243 349h211l118 -181
l121 181h211l-243 -349h-175zM575 799q-87 0 -152.5 -44t-98.5 -118h495q-28 79 -91 120.5t-153 41.5z" />
    <glyph glyph-name="Gcircumflex" unicode="&#x11c;" horiz-adv-x="1589" 
d="M817 -20q-171 0 -317.5 62t-246 166.5t-156 244.5t-56.5 295q0 211 98 386.5t273.5 278.5t392.5 103q226 0 403.5 -104t276.5 -279l-250 -152q-140 258 -428 258q-133 0 -244.5 -66.5t-175 -179.5t-63.5 -245q0 -208 140 -350t353 -142q160 0 272 84t152 229h-469v273
h776v-115q0 -150 -52.5 -286t-146 -238t-232 -162.5t-300.5 -60.5zM475 1597l244 349h174l244 -349h-211l-121 181l-119 -181h-211z" />
    <glyph glyph-name="gcircumflex" unicode="&#x11d;" horiz-adv-x="1196" 
d="M535 -20q-67 0 -135 20.5t-132.5 64t-115 104.5t-81 150t-30.5 193q0 105 29.5 194t79 150t114.5 104.5t134.5 63.5t140.5 20q188 0 305 -131v111h280v-995q0 -109 -34.5 -203.5t-99.5 -166t-166.5 -112.5t-227.5 -41q-186 0 -327 83.5t-206 211.5l248 140
q87 -174 285 -174q110 0 179 73.5t69 177.5v97q-53 -62 -132.5 -98.5t-176.5 -36.5zM590 238q113 0 187.5 80.5t74.5 195.5t-74.5 194.5t-187.5 79.5q-117 0 -196 -78t-79 -196t79 -197t196 -79zM270 1126l244 349h174l244 -349h-211l-121 181l-119 -181h-211z" />
    <glyph glyph-name="Gbreve" unicode="&#x11e;" horiz-adv-x="1589" 
d="M817 -20q-171 0 -317.5 62t-246 166.5t-156 244.5t-56.5 295q0 211 98 386.5t273.5 278.5t392.5 103q226 0 403.5 -104t276.5 -279l-250 -152q-140 258 -428 258q-133 0 -244.5 -66.5t-175 -179.5t-63.5 -245q0 -208 140 -350t353 -142q160 0 272 84t152 229h-469v273
h776v-115q0 -150 -52.5 -286t-146 -238t-232 -162.5t-300.5 -60.5zM803 1587q-162 0 -246 95.5t-84 252.5h176q0 -190 154 -196q153 6 153 196h179q0 -152 -90.5 -250t-241.5 -98z" />
    <glyph glyph-name="gbreve" unicode="&#x11f;" horiz-adv-x="1196" 
d="M535 -20q-67 0 -135 20.5t-132.5 64t-115 104.5t-81 150t-30.5 193q0 105 29.5 194t79 150t114.5 104.5t134.5 63.5t140.5 20q188 0 305 -131v111h280v-995q0 -109 -34.5 -203.5t-99.5 -166t-166.5 -112.5t-227.5 -41q-186 0 -327 83.5t-206 211.5l248 140
q87 -174 285 -174q110 0 179 73.5t69 177.5v97q-53 -62 -132.5 -98.5t-176.5 -36.5zM590 238q113 0 187.5 80.5t74.5 195.5t-74.5 194.5t-187.5 79.5q-117 0 -196 -78t-79 -196t79 -197t196 -79zM600 1116q-162 0 -246 95.5t-84 252.5h176q0 -190 154 -196q154 6 154 196
h178q0 -152 -90.5 -250t-241.5 -98z" />
    <glyph glyph-name="Gdotaccent" unicode="&#x120;" horiz-adv-x="1589" 
d="M817 -20q-171 0 -317.5 62t-246 166.5t-156 244.5t-56.5 295q0 211 98 386.5t273.5 278.5t392.5 103q226 0 403.5 -104t276.5 -279l-250 -152q-140 258 -428 258q-133 0 -244.5 -66.5t-175 -179.5t-63.5 -245q0 -208 140 -350t353 -142q160 0 272 84t152 229h-469v273
h776v-115q0 -150 -52.5 -286t-146 -238t-232 -162.5t-300.5 -60.5zM672 1597v281h280v-281h-280z" />
    <glyph glyph-name="gdotaccent" unicode="&#x121;" horiz-adv-x="1196" 
d="M535 -20q-67 0 -135 20.5t-132.5 64t-115 104.5t-81 150t-30.5 193q0 105 29.5 194t79 150t114.5 104.5t134.5 63.5t140.5 20q188 0 305 -131v111h280v-995q0 -109 -34.5 -203.5t-99.5 -166t-166.5 -112.5t-227.5 -41q-186 0 -327 83.5t-206 211.5l248 140
q87 -174 285 -174q110 0 179 73.5t69 177.5v97q-53 -62 -132.5 -98.5t-176.5 -36.5zM590 238q113 0 187.5 80.5t74.5 195.5t-74.5 194.5t-187.5 79.5q-117 0 -196 -78t-79 -196t79 -197t196 -79zM432 1126v281h281v-281h-281z" />
    <glyph glyph-name="Gcommaaccent" unicode="&#x122;" horiz-adv-x="1589" 
d="M817 -20q-171 0 -317.5 62t-246 166.5t-156 244.5t-56.5 295q0 211 98 386.5t273.5 278.5t392.5 103q226 0 403.5 -104t276.5 -279l-250 -152q-140 258 -428 258q-133 0 -244.5 -66.5t-175 -179.5t-63.5 -245q0 -208 140 -350t353 -142q160 0 272 84t152 229h-469v273
h776v-115q0 -150 -52.5 -286t-146 -238t-232 -162.5t-300.5 -60.5zM811 -510h-174l70 418h247z" />
    <glyph glyph-name="gcommaaccent" unicode="&#x123;" horiz-adv-x="1196" 
d="M535 -20q-67 0 -135 20.5t-132.5 64t-115 104.5t-81 150t-30.5 193q0 105 29.5 194t79 150t114.5 104.5t134.5 63.5t140.5 20q188 0 305 -131v111h280v-995q0 -109 -34.5 -203.5t-99.5 -166t-166.5 -112.5t-227.5 -41q-186 0 -327 83.5t-206 211.5l248 140
q87 -174 285 -174q110 0 179 73.5t69 177.5v97q-53 -62 -132.5 -98.5t-176.5 -36.5zM590 238q113 0 187.5 80.5t74.5 195.5t-74.5 194.5t-187.5 79.5q-117 0 -196 -78t-79 -196t79 -197t196 -79zM664 1126h-175l70 418h248z" />
    <glyph glyph-name="Hcircumflex" unicode="&#x124;" horiz-adv-x="1296" 
d="M930 0v612h-563v-612h-285v1495h285v-610h563v610h284v-1495h-284zM315 1597l244 349h174l244 -349h-211l-121 181l-119 -181h-211z" />
    <glyph glyph-name="hcircumflex" unicode="&#x125;" horiz-adv-x="1091" 
d="M72 0v1495h278v-584q110 133 283 133q182 0 284.5 -110.5t102.5 -308.5v-625h-285v586q0 105 -47.5 162t-140.5 57q-85 0 -140 -62t-55 -184v-559h-280zM-121 1597l244 349h174l244 -349h-211l-121 181l-119 -181h-211z" />
    <glyph glyph-name="Hbar" unicode="&#x126;" horiz-adv-x="1419" 
d="M29 1081v217h114v197h285v-197h563v197h285v-197h115v-217h-115v-1081h-285v612h-563v-612h-285v1081h-114zM428 1081v-196h563v196h-563z" />
    <glyph glyph-name="hbar" unicode="&#x127;" horiz-adv-x="1091" 
d="M-55 1143v176h127v176h278v-176h135v-176h-135v-232q110 133 283 133q182 0 284.5 -110.5t102.5 -308.5v-625h-285v586q0 105 -47.5 162t-140.5 57q-85 0 -140 -62t-55 -184v-559h-280v1143h-127z" />
    <glyph glyph-name="Itilde" unicode="&#x128;" horiz-adv-x="468" 
d="M92 0v1495h285v-1495h-285zM-96 1597q0 126 57.5 201.5t157.5 75.5q75 0 155 -49q4 -2 14.5 -9t14 -9.5t13 -8t14 -7.5t12.5 -6t13.5 -5t12.5 -2.5t13 -1.5q55 0 55 90h162q0 -129 -55 -203t-160 -74q-37 0 -74.5 12t-52.5 20.5t-51 29.5q-60 35 -86 35q-53 0 -53 -89
h-162z" />
    <glyph glyph-name="itilde" unicode="&#x129;" horiz-adv-x="423" 
d="M72 0v1024h280v-1024h-280zM-129 1126q0 126 57.5 201.5t157.5 75.5q76 0 156 -49q4 -3 16 -10.5t16.5 -10.5t14 -8.5t15.5 -8t14 -6t15.5 -4.5t14.5 -1q55 0 55 90h162q0 -129 -55 -203t-160 -74q-37 0 -74.5 12t-52.5 20.5t-51 29.5q-59 34 -86 34q-53 0 -53 -88h-162z
" />
    <glyph glyph-name="Imacron" unicode="&#x12a;" horiz-adv-x="468" 
d="M92 0v1495h285v-1495h-285zM-35 1597v177h541v-177h-541z" />
    <glyph glyph-name="imacron" unicode="&#x12b;" horiz-adv-x="423" 
d="M72 0v1024h280v-1024h-280zM-57 1126v177h540v-177h-540z" />
    <glyph glyph-name="Ibreve" unicode="&#x12c;" horiz-adv-x="468" 
d="M92 0v1495h285v-1495h-285zM231 1587q-162 0 -245.5 95.5t-83.5 252.5h176q0 -190 153 -196q154 6 154 196h178q0 -152 -90.5 -250t-241.5 -98z" />
    <glyph glyph-name="ibreve" unicode="&#x12d;" horiz-adv-x="423" 
d="M72 0v1024h280v-1024h-280zM209 1116q-162 0 -246 95.5t-84 252.5h176q0 -190 154 -196q153 6 153 196h179q0 -152 -90.5 -250t-241.5 -98z" />
    <glyph glyph-name="Iogonek" unicode="&#x12e;" horiz-adv-x="468" 
d="M217 -471q-118 0 -193 62.5t-77 158.5q-3 141 145 260v1485h285v-1495h-8q-110 -65 -163.5 -126t-53.5 -101q0 -33 21 -50.5t54 -17.5q51 0 103 64l164 -113q-120 -127 -277 -127z" />
    <glyph glyph-name="iogonek" unicode="&#x12f;" horiz-adv-x="423" 
d="M195 -471q-118 0 -193.5 62.5t-77.5 158.5q-1 78 36 140.5t112 121.5v1012h280v-1024h-6q-110 -65 -163.5 -126t-53.5 -101q0 -33 21 -50.5t55 -17.5q50 0 102 64l164 -113q-120 -127 -276 -127zM72 1126v281h280v-281h-280z" />
    <glyph glyph-name="Idotaccent" unicode="&#x130;" horiz-adv-x="468" 
d="M92 0v1495h285v-1495h-285zM92 1597v281h281v-281h-281z" />
    <glyph glyph-name="dotlessi" unicode="&#x131;" horiz-adv-x="423" 
d="M72 0v1024h280v-1024h-280z" />
    <glyph glyph-name="IJ" unicode="&#x132;" horiz-adv-x="1005" 
d="M485 0v279h9q93 0 119 25t26 118v1073h285v-1063q-1 -103 -11 -170t-34.5 -121t-70.5 -83t-114.5 -43.5t-169.5 -14.5h-39zM82 0v1495h285v-1495h-285z" />
    <glyph glyph-name="ij" unicode="&#x133;" horiz-adv-x="827" 
d="M72 -389v262h211q46 0 74.5 2t51.5 10.5t34.5 19.5t19.5 33.5t10 49t2 69.5v967h281v-969q0 -251 -94 -347.5t-338 -96.5h-252zM475 1126v281h281v-281h-281zM72 0v1024h280v-1024h-280zM72 1126v281h280v-281h-280z" />
    <glyph glyph-name="Jcircumflex" unicode="&#x134;" horiz-adv-x="1030" 
d="M510 -20q-182 0 -309 92.5t-164 251.5l282 90q14 -73 65 -120.5t122 -47.5q79 0 118.5 52.5t39.5 133.5v1063h284v-1036q0 -227 -114.5 -353t-323.5 -126zM465 1597l244 349h174l243 -349h-211l-120 181l-119 -181h-211z" />
    <glyph glyph-name="jcircumflex" unicode="&#x135;" horiz-adv-x="425" 
d="M-121 -471v262q55 0 86.5 4.5t55 14t33.5 32.5t14 52t4 81v1049h282v-1051q0 -250 -94.5 -347t-339.5 -97h-41zM-119 1126l244 349h174l244 -349h-211l-121 181l-119 -181h-211z" />
    <glyph glyph-name="Kcommaaccent" unicode="&#x136;" horiz-adv-x="1261" 
d="M913 0l-391 715l-155 -195v-520h-285v1495h285v-602l483 602h346l-471 -582l512 -913h-324zM627 -510h-174l69 418h248z" />
    <glyph glyph-name="kcommaaccent" unicode="&#x137;" horiz-adv-x="1110" 
d="M768 0l-279 410l-137 -162v-248h-280v1495h280v-924l377 453h326l-373 -442l393 -582h-307zM543 -510h-174l69 418h248z" />
    <glyph glyph-name="kgreenlandic" unicode="&#x138;" horiz-adv-x="1110" 
d="M768 0l-279 410l-137 -162v-248h-280v1024h280v-453l377 453h326l-373 -442l393 -582h-307z" />
    <glyph glyph-name="Lacute" unicode="&#x139;" horiz-adv-x="978" 
d="M82 0v1495h285v-1223h540v-272h-825zM127 1597l233 349h263l-308 -349h-188z" />
    <glyph glyph-name="lacute" unicode="&#x13a;" horiz-adv-x="423" 
d="M72 0v1495h280v-1495h-280zM115 1597l233 349h262l-307 -349h-188z" />
    <glyph glyph-name="Lcommaaccent" unicode="&#x13b;" horiz-adv-x="978" 
d="M82 0v1495h285v-1223h540v-272h-825zM475 -510h-174l70 418h247z" />
    <glyph glyph-name="lcommaaccent" unicode="&#x13c;" horiz-adv-x="423" 
d="M72 0v1495h280v-1495h-280zM190 -510h-174l70 418h248z" />
    <glyph glyph-name="Lcaron" unicode="&#x13d;" horiz-adv-x="978" 
d="M82 0v1495h285v-1223h540v-272h-825zM471 1147l49 348h228l-103 -348h-174z" />
    <glyph glyph-name="lcaron" unicode="&#x13e;" horiz-adv-x="571" 
d="M72 0v1495h280v-1495h-280zM440 1147l49 348h228l-103 -348h-174z" />
    <glyph glyph-name="Ldot" unicode="&#x13f;" horiz-adv-x="978" 
d="M82 0v1495h285v-1223h540v-272h-825zM627 598v281h280v-281h-280z" />
    <glyph glyph-name="ldot" unicode="&#x140;" horiz-adv-x="806" 
d="M72 0v1495h280v-1495h-280zM455 383v281h280v-281h-280z" />
    <glyph glyph-name="Lslash" unicode="&#x141;" horiz-adv-x="1071" 
d="M35 575v203l139 43v674h285v-582l325 105v-203l-325 -104v-439h540v-272h-825v618z" />
    <glyph glyph-name="lslash" unicode="&#x142;" horiz-adv-x="768" 
d="M53 647v203l183 53v592h280v-510l199 57v-202l-199 -58v-782h-280v700z" />
    <glyph glyph-name="Nacute" unicode="&#x143;" horiz-adv-x="1406" 
d="M82 0v1495h324l634 -1006v1006h285v-1495h-303l-655 1038v-1038h-285zM627 1597l233 349h262l-307 -349h-188z" />
    <glyph glyph-name="nacute" unicode="&#x144;" horiz-adv-x="1091" 
d="M72 0v1024h278v-115q50 64 123.5 99.5t159.5 35.5q182 0 284.5 -110.5t102.5 -308.5v-625h-285v588q0 104 -47.5 160.5t-140.5 56.5q-85 0 -140 -62t-55 -184v-559h-280zM479 1126l234 349h262l-307 -349h-189z" />
    <glyph glyph-name="Ncommaaccent" unicode="&#x145;" horiz-adv-x="1406" 
d="M82 0v1495h324l634 -1006v1006h285v-1495h-303l-655 1038v-1038h-285zM680 -510h-174l69 418h248z" />
    <glyph glyph-name="ncommaaccent" unicode="&#x146;" horiz-adv-x="1091" 
d="M72 0v1024h278v-115q50 64 123.5 99.5t159.5 35.5q182 0 284.5 -110.5t102.5 -308.5v-625h-285v588q0 104 -47.5 160.5t-140.5 56.5q-85 0 -140 -62t-55 -184v-559h-280zM571 -510h-174l70 418h248z" />
    <glyph glyph-name="Ncaron" unicode="&#x147;" horiz-adv-x="1406" 
d="M82 0v1495h324l634 -1006v1006h285v-1495h-303l-655 1038v-1038h-285zM623 1597l-244 349h211l119 -181l120 181h211l-243 -349h-174z" />
    <glyph glyph-name="ncaron" unicode="&#x148;" horiz-adv-x="1091" 
d="M72 0v1024h278v-115q50 64 123.5 99.5t159.5 35.5q182 0 284.5 -110.5t102.5 -308.5v-625h-285v588q0 104 -47.5 160.5t-140.5 56.5q-85 0 -140 -62t-55 -184v-559h-280zM477 1126l-244 349h211l119 -181l121 181h211l-244 -349h-174z" />
    <glyph glyph-name="Eng" unicode="&#x14a;" horiz-adv-x="1406" 
d="M891 -424v279h10q87 2 113 27t26 108v67l-673 1000v-1057h-285v1495h324l634 -942v942h285v-1495q-1 -241 -88 -332.5t-307 -91.5h-39z" />
    <glyph glyph-name="eng" unicode="&#x14b;" horiz-adv-x="1091" 
d="M543 -471v262q46 0 74.5 2t51.5 10.5t34.5 19.5t19.5 33.5t10 49t2 69.5v613q0 104 -47.5 160.5t-140.5 56.5q-85 0 -140 -62t-55 -184v-559h-280v1024h278v-115q50 64 123.5 99.5t159.5 35.5q182 0 284.5 -110.5t102.5 -308.5v-652q0 -250 -95.5 -347t-340.5 -97h-41z
" />
    <glyph glyph-name="Omacron" unicode="&#x14c;" horiz-adv-x="1611" 
d="M805 -20q-209 0 -384.5 102.5t-277.5 279t-102 386.5q0 209 102 385.5t278 279.5t384 103q209 0 385.5 -103t278.5 -279.5t102 -385.5q0 -157 -60 -299.5t-162.5 -245t-244.5 -163t-299 -60.5zM805 260q132 0 243 65.5t175.5 178t64.5 244.5t-64.5 244t-175.5 177.5
t-243 65.5t-242.5 -65.5t-174.5 -177.5t-64 -244t64 -244.5t174.5 -178t242.5 -65.5zM524 1597v177h541v-177h-541z" />
    <glyph glyph-name="omacron" unicode="&#x14d;" horiz-adv-x="1142" 
d="M571 -20q-145 0 -267 71t-192.5 193.5t-70.5 267.5t70.5 267.5t192.5 193.5t267 71t267.5 -71t193 -193.5t70.5 -267.5t-70.5 -267.5t-193 -193.5t-267.5 -71zM571 246q107 0 182.5 78.5t75.5 187.5t-75.5 187.5t-182.5 78.5q-108 0 -182 -78t-74 -188t74 -188t182 -78z
M303 1126v177h541v-177h-541z" />
    <glyph glyph-name="Obreve" unicode="&#x14e;" horiz-adv-x="1611" 
d="M805 -20q-209 0 -384.5 102.5t-277.5 279t-102 386.5q0 209 102 385.5t278 279.5t384 103q209 0 385.5 -103t278.5 -279.5t102 -385.5q0 -157 -60 -299.5t-162.5 -245t-244.5 -163t-299 -60.5zM805 260q132 0 243 65.5t175.5 178t64.5 244.5t-64.5 244t-175.5 177.5
t-243 65.5t-242.5 -65.5t-174.5 -177.5t-64 -244t64 -244.5t174.5 -178t242.5 -65.5zM791 1587q-162 0 -246 95.5t-84 252.5h176q0 -190 154 -196q153 6 153 196h178q0 -152 -90 -250t-241 -98z" />
    <glyph glyph-name="obreve" unicode="&#x14f;" horiz-adv-x="1142" 
d="M571 -20q-145 0 -267 71t-192.5 193.5t-70.5 267.5t70.5 267.5t192.5 193.5t267 71t267.5 -71t193 -193.5t70.5 -267.5t-70.5 -267.5t-193 -193.5t-267.5 -71zM571 246q107 0 182.5 78.5t75.5 187.5t-75.5 187.5t-182.5 78.5q-108 0 -182 -78t-74 -188t74 -188t182 -78z
M569 1116q-162 0 -245.5 95.5t-83.5 252.5h176q0 -190 153 -196q154 6 154 196h178q0 -152 -90.5 -250t-241.5 -98z" />
    <glyph glyph-name="Ohungarumlaut" unicode="&#x150;" horiz-adv-x="1611" 
d="M805 -20q-209 0 -384.5 102.5t-277.5 279t-102 386.5q0 209 102 385.5t278 279.5t384 103q209 0 385.5 -103t278.5 -279.5t102 -385.5q0 -157 -60 -299.5t-162.5 -245t-244.5 -163t-299 -60.5zM805 260q132 0 243 65.5t175.5 178t64.5 244.5t-64.5 244t-175.5 177.5
t-243 65.5t-242.5 -65.5t-174.5 -177.5t-64 -244t64 -244.5t174.5 -178t242.5 -65.5zM518 1597l234 349h247l-307 -349h-174zM860 1597l234 349h247l-307 -349h-174z" />
    <glyph glyph-name="ohungarumlaut" unicode="&#x151;" horiz-adv-x="1142" 
d="M571 -20q-145 0 -267 71t-192.5 193.5t-70.5 267.5t70.5 267.5t192.5 193.5t267 71t267.5 -71t193 -193.5t70.5 -267.5t-70.5 -267.5t-193 -193.5t-267.5 -71zM571 246q107 0 182.5 78.5t75.5 187.5t-75.5 187.5t-182.5 78.5q-108 0 -182 -78t-74 -188t74 -188t182 -78z
M307 1126l234 349h247l-307 -349h-174zM649 1126l234 349h247l-307 -349h-174z" />
    <glyph glyph-name="OE" unicode="&#x152;" horiz-adv-x="2240" 
d="M1288 0v164q-200 -184 -483 -184q-209 0 -384.5 102.5t-277.5 279t-102 386.5q0 209 102 385.5t278 279.5t384 103q280 0 483 -187v166h887v-272h-602v-336h602v-273h-602v-342h602v-272h-887zM805 260q132 0 243 65.5t175.5 178t64.5 244.5v20q-8 194 -148.5 330.5
t-334.5 136.5q-132 0 -242.5 -65.5t-174.5 -177.5t-64 -244t64 -244.5t174.5 -178t242.5 -65.5z" />
    <glyph glyph-name="oe" unicode="&#x153;" horiz-adv-x="1933" 
d="M571 -20q-145 0 -267 71t-192.5 193.5t-70.5 267.5t70.5 267.5t192.5 193.5t267 71q125 0 226 -47.5t170 -134.5q151 182 395 182q150 0 272 -71t190 -193t68 -268v-90h-792q22 -91 92.5 -144t181.5 -53q85 0 155.5 47t104.5 123l232 -94q-61 -144 -195 -232.5
t-299 -88.5q-260 0 -407 178q-150 -178 -394 -178zM571 246q109 0 184.5 78t75.5 188t-75.5 188t-184.5 78q-110 0 -185 -77.5t-75 -188.5t75 -188.5t185 -77.5zM1364 799q-84 0 -148.5 -41t-97.5 -111h486q-31 73 -93.5 112.5t-146.5 39.5z" />
    <glyph glyph-name="Racute" unicode="&#x154;" horiz-adv-x="1173" 
d="M82 0v1495h469q252 0 401.5 -142t149.5 -360q0 -96 -30 -181t-96.5 -155.5t-162.5 -107.5l340 -549h-326l-448 739h139q79 0 139 24.5t93 63.5t49 81t16 85q0 117 -70.5 176.5t-226.5 59.5h-151v-1229h-285zM426 1597l233 349h263l-308 -349h-188z" />
    <glyph glyph-name="racute" unicode="&#x155;" horiz-adv-x="800" 
d="M72 0v1024h278v-168q81 168 283 168h112v-272h-178q-113 0 -164 -63.5t-51 -205.5v-483h-280zM311 1126l234 349h262l-307 -349h-189z" />
    <glyph glyph-name="Rcommaaccent" unicode="&#x156;" horiz-adv-x="1173" 
d="M82 0v1495h469q252 0 401.5 -142t149.5 -360q0 -96 -30 -181t-96.5 -155.5t-162.5 -107.5l340 -549h-326l-448 739h139q79 0 139 24.5t93 63.5t49 81t16 85q0 117 -70.5 176.5t-226.5 59.5h-151v-1229h-285zM584 -510h-174l69 418h248z" />
    <glyph glyph-name="rcommaaccent" unicode="&#x157;" horiz-adv-x="800" 
d="M72 0v1024h278v-168q81 168 283 168h112v-272h-178q-113 0 -164 -63.5t-51 -205.5v-483h-280zM211 -510h-174l69 418h248z" />
    <glyph glyph-name="Rcaron" unicode="&#x158;" horiz-adv-x="1173" 
d="M82 0v1495h469q252 0 401.5 -142t149.5 -360q0 -96 -30 -181t-96.5 -155.5t-162.5 -107.5l340 -549h-326l-448 739h139q79 0 139 24.5t93 63.5t49 81t16 85q0 117 -70.5 176.5t-226.5 59.5h-151v-1229h-285zM457 1597l-244 349h211l119 -181l121 181h210l-243 -349h-174z
" />
    <glyph glyph-name="rcaron" unicode="&#x159;" horiz-adv-x="800" 
d="M72 0v1024h278v-168q81 168 283 168h112v-272h-178q-113 0 -164 -63.5t-51 -205.5v-483h-280zM311 1126l-243 349h211l118 -181l121 181h211l-244 -349h-174z" />
    <glyph glyph-name="Sacute" unicode="&#x15a;" horiz-adv-x="1153" 
d="M590 -20q-351 0 -586 268l260 205q56 -96 140.5 -148.5t183.5 -52.5q104 0 163.5 58t59.5 139q0 34 -16 61.5t-39.5 46.5t-64 37t-75.5 29.5t-87 27.5q-18 5 -27 8q-53 16 -87.5 28t-83.5 33t-81 42t-67.5 54t-56.5 70t-34.5 88t-13.5 111q0 182 141 306.5t356 124.5
q170 0 286 -56t218 -162l-235 -178q-94 142 -266 142q-97 0 -151 -46.5t-54 -119.5q0 -31 15 -57.5t37.5 -44.5t61.5 -36t73 -30t85 -29q21 -7 31 -10q52 -17 88.5 -30.5t85 -36t82.5 -45.5t69.5 -57t57 -72.5t35.5 -90t14 -111.5q0 -90 -35 -173.5t-99.5 -149t-164 -104.5
t-219.5 -39zM453 1597l233 349h262l-307 -349h-188z" />
    <glyph glyph-name="sacute" unicode="&#x15b;" horiz-adv-x="956" 
d="M481 -20q-358 0 -471 276l269 104q55 -139 215 -139q66 0 103.5 26.5t37.5 65.5q0 42 -91 68q-32 8 -128 27q-62 11 -109.5 24.5t-99 38t-84.5 56.5t-54.5 82.5t-21.5 113.5q0 134 117.5 229t302.5 92q311 0 434 -237l-248 -105q-21 52 -70.5 82.5t-117.5 30.5
q-65 0 -99 -24t-34 -60q0 -32 44 -49.5t169 -42.5q61 -12 106 -25t98 -38t86.5 -57t56.5 -82.5t23 -114.5q0 -58 -27 -117.5t-78.5 -111t-137.5 -83t-191 -30.5zM262 1126l234 349h262l-307 -349h-189z" />
    <glyph glyph-name="Scircumflex" unicode="&#x15c;" horiz-adv-x="1153" 
d="M590 -20q-351 0 -586 268l260 205q56 -96 140.5 -148.5t183.5 -52.5q104 0 163.5 58t59.5 139q0 34 -16 61.5t-39.5 46.5t-64 37t-75.5 29.5t-87 27.5q-18 5 -27 8q-53 16 -87.5 28t-83.5 33t-81 42t-67.5 54t-56.5 70t-34.5 88t-13.5 111q0 182 141 306.5t356 124.5
q170 0 286 -56t218 -162l-235 -178q-94 142 -266 142q-97 0 -151 -46.5t-54 -119.5q0 -31 15 -57.5t37.5 -44.5t61.5 -36t73 -30t85 -29q21 -7 31 -10q52 -17 88.5 -30.5t85 -36t82.5 -45.5t69.5 -57t57 -72.5t35.5 -90t14 -111.5q0 -90 -35 -173.5t-99.5 -149t-164 -104.5
t-219.5 -39zM236 1597l243 349h174l244 -349h-211l-121 181l-119 -181h-210z" />
    <glyph glyph-name="scircumflex" unicode="&#x15d;" horiz-adv-x="956" 
d="M481 -20q-358 0 -471 276l269 104q55 -139 215 -139q66 0 103.5 26.5t37.5 65.5q0 42 -91 68q-32 8 -128 27q-62 11 -109.5 24.5t-99 38t-84.5 56.5t-54.5 82.5t-21.5 113.5q0 134 117.5 229t302.5 92q311 0 434 -237l-248 -105q-21 52 -70.5 82.5t-117.5 30.5
q-65 0 -99 -24t-34 -60q0 -32 44 -49.5t169 -42.5q61 -12 106 -25t98 -38t86.5 -57t56.5 -82.5t23 -114.5q0 -58 -27 -117.5t-78.5 -111t-137.5 -83t-191 -30.5zM53 1126l244 349h174l244 -349h-211l-121 181l-119 -181h-211z" />
    <glyph glyph-name="Scedilla" unicode="&#x15e;" horiz-adv-x="1153" 
d="M557 -492q-77 0 -154.5 33t-138.5 88l160 97q31 -24 47.5 -35.5t46 -22t62.5 -10.5q45 0 77.5 17.5t32.5 43.5q0 56 -117 56h-104v213q-271 38 -465 260l260 205q56 -96 140.5 -148.5t183.5 -52.5q104 0 163.5 58t59.5 139q0 34 -16 61.5t-39.5 46.5t-64 37t-75.5 29.5
t-87 27.5q-18 5 -27 8q-53 16 -87.5 28t-83.5 33t-81 42t-67.5 54t-56.5 70t-34.5 88t-13.5 111q0 182 141 306.5t356 124.5q170 0 286 -56t218 -162l-235 -178q-94 142 -266 142q-97 0 -151 -46.5t-54 -119.5q0 -31 15 -57.5t37.5 -44.5t61.5 -36t73 -30t85 -29
q21 -7 31 -10q52 -17 88.5 -30.5t85 -36t82.5 -45.5t69.5 -57t57 -72.5t35.5 -90t14 -111.5q0 -85 -31.5 -164.5t-89 -143.5t-147 -106t-197.5 -50v-91q113 4 174.5 -41t61.5 -122q0 -95 -93 -157.5t-229 -62.5z" />
    <glyph glyph-name="scedilla" unicode="&#x15f;" horiz-adv-x="956" 
d="M379 -492q-77 0 -154.5 33t-138.5 88l160 97q31 -25 47 -35.5t45.5 -21.5t62.5 -11q45 0 78 17.5t33 43.5q0 56 -117 56h-104v225h10q-211 55 -291 256l269 104q55 -139 215 -139q66 0 103.5 26.5t37.5 65.5q0 42 -91 68q-32 8 -128 27q-62 11 -109.5 24.5t-99 38
t-84.5 56.5t-54.5 82.5t-21.5 113.5q0 134 117.5 229t302.5 92q311 0 434 -237l-248 -105q-21 52 -70.5 82.5t-117.5 30.5q-65 0 -99 -24t-34 -60q0 -32 44 -49.5t169 -42.5q61 -12 106 -25t98 -38t86.5 -57t56.5 -82.5t23 -114.5q0 -58 -27 -117.5t-78.5 -111t-137.5 -83
t-191 -30.5h-16v-89q112 4 173.5 -41t61.5 -122q0 -95 -92.5 -157.5t-228.5 -62.5z" />
    <glyph glyph-name="Scaron" unicode="&#x160;" horiz-adv-x="1153" 
d="M590 -20q-351 0 -586 268l260 205q56 -96 140.5 -148.5t183.5 -52.5q104 0 163.5 58t59.5 139q0 34 -16 61.5t-39.5 46.5t-64 37t-75.5 29.5t-87 27.5q-18 5 -27 8q-53 16 -87.5 28t-83.5 33t-81 42t-67.5 54t-56.5 70t-34.5 88t-13.5 111q0 182 141 306.5t356 124.5
q170 0 286 -56t218 -162l-235 -178q-94 142 -266 142q-97 0 -151 -46.5t-54 -119.5q0 -31 15 -57.5t37.5 -44.5t61.5 -36t73 -30t85 -29q21 -7 31 -10q52 -17 88.5 -30.5t85 -36t82.5 -45.5t69.5 -57t57 -72.5t35.5 -90t14 -111.5q0 -90 -35 -173.5t-99.5 -149t-164 -104.5
t-219.5 -39zM492 1597l-244 349h211l119 -181l120 181h211l-243 -349h-174z" />
    <glyph glyph-name="scaron" unicode="&#x161;" horiz-adv-x="956" 
d="M481 -20q-358 0 -471 276l269 104q55 -139 215 -139q66 0 103.5 26.5t37.5 65.5q0 42 -91 68q-32 8 -128 27q-62 11 -109.5 24.5t-99 38t-84.5 56.5t-54.5 82.5t-21.5 113.5q0 134 117.5 229t302.5 92q311 0 434 -237l-248 -105q-21 52 -70.5 82.5t-117.5 30.5
q-65 0 -99 -24t-34 -60q0 -32 44 -49.5t169 -42.5q61 -12 106 -25t98 -38t86.5 -57t56.5 -82.5t23 -114.5q0 -58 -27 -117.5t-78.5 -111t-137.5 -83t-191 -30.5zM309 1126l-243 349h210l119 -181l121 181h211l-244 -349h-174z" />
    <glyph glyph-name="Tcommaaccent" unicode="&#x162;" horiz-adv-x="1222" 
d="M475 0v1223h-397v272h1079v-272h-397v-1223h-285zM592 -510h-174l69 418h248z" />
    <glyph glyph-name="tcommaaccent" unicode="&#x163;" horiz-adv-x="759" 
d="M51 772v252h174v240l281 153v-393h192v-252h-192v-326q0 -43 2 -69.5t10 -49t19.5 -33.5t34.5 -19.5t51.5 -10.5t74.5 -2v-262h-41q-244 0 -338 96.5t-94 347.5v328h-174zM391 -510h-174l70 418h248z" />
    <glyph glyph-name="Tcaron" unicode="&#x164;" horiz-adv-x="1222" 
d="M475 0v1223h-397v272h1079v-272h-397v-1223h-285zM520 1597l-244 349h211l119 -181l121 181h211l-244 -349h-174z" />
    <glyph glyph-name="tcaron" unicode="&#x165;" horiz-adv-x="759" 
d="M51 772v252h174v240l281 153v-393h192v-252h-192v-326q0 -43 2 -69.5t10 -49t19.5 -33.5t34.5 -19.5t51.5 -10.5t74.5 -2v-262h-41q-244 0 -338 96.5t-94 347.5v328h-174zM614 1159l50 348h227l-103 -348h-174z" />
    <glyph glyph-name="Tbar" unicode="&#x166;" horiz-adv-x="1222" 
d="M215 612v273h260v338h-397v272h1079v-272h-397v-338h248v-273h-248v-612h-285v612h-260z" />
    <glyph glyph-name="tbar" unicode="&#x167;" horiz-adv-x="759" 
d="M51 799v225h174v240l281 153v-393h192v-225h-192v-152h192v-225h-192q0 -113 33 -142.5t159 -29.5v-250h-41q-240 0 -334.5 92.5t-97.5 329.5h-174v225h174v152h-174z" />
    <glyph glyph-name="Utilde" unicode="&#x168;" horiz-adv-x="1243" 
d="M621 -20q-118 0 -216 34.5t-170 100.5t-112.5 169t-40.5 234v977h285v-995q0 -108 72 -182t179 -74q108 0 183.5 74.5t75.5 181.5v995h284v-977q0 -173 -71 -296.5t-191 -182.5t-278 -59zM256 1597q0 126 57.5 201.5t157.5 75.5q76 0 156 -49q4 -3 16 -10.5t16.5 -10.5
t14 -8.5t15.5 -8t14 -6t15.5 -4.5t14.5 -1q55 0 55 90h162q0 -129 -55 -203t-160 -74q-37 0 -74.5 12t-52.5 20.5t-51 29.5q-60 35 -86 35q-53 0 -53 -89h-162z" />
    <glyph glyph-name="utilde" unicode="&#x169;" horiz-adv-x="1091" 
d="M459 -20q-182 0 -284.5 110.5t-102.5 308.5v625h284v-588q0 -104 48 -160.5t141 -56.5q85 0 139.5 61.5t54.5 184.5v559h281v-1024h-279v113q-110 -133 -282 -133zM201 1126q0 126 57.5 201.5t157.5 75.5q75 0 155 -49q4 -2 14.5 -9t14 -9.5t13 -8t14 -7.5t12.5 -6
t13.5 -5t12.5 -2.5t13 -1.5q55 0 55 90h162q0 -129 -55 -203t-160 -74q-37 0 -74.5 12t-52.5 20.5t-51 29.5q-59 34 -86 34q-54 0 -54 -88h-161z" />
    <glyph glyph-name="Umacron" unicode="&#x16a;" horiz-adv-x="1243" 
d="M621 -20q-118 0 -216 34.5t-170 100.5t-112.5 169t-40.5 234v977h285v-995q0 -108 72 -182t179 -74q108 0 183.5 74.5t75.5 181.5v995h284v-977q0 -173 -71 -296.5t-191 -182.5t-278 -59zM350 1597v177h541v-177h-541z" />
    <glyph glyph-name="umacron" unicode="&#x16b;" horiz-adv-x="1091" 
d="M459 -20q-182 0 -284.5 110.5t-102.5 308.5v625h284v-588q0 -104 48 -160.5t141 -56.5q85 0 139.5 61.5t54.5 184.5v559h281v-1024h-279v113q-110 -133 -282 -133zM276 1126v177h541v-177h-541z" />
    <glyph glyph-name="Ubreve" unicode="&#x16c;" horiz-adv-x="1243" 
d="M621 -20q-118 0 -216 34.5t-170 100.5t-112.5 169t-40.5 234v977h285v-995q0 -108 72 -182t179 -74q108 0 183.5 74.5t75.5 181.5v995h284v-977q0 -173 -71 -296.5t-191 -182.5t-278 -59zM629 1587q-162 0 -246 95.5t-84 252.5h176q0 -190 154 -196q153 6 153 196h179
q0 -152 -90.5 -250t-241.5 -98z" />
    <glyph glyph-name="ubreve" unicode="&#x16d;" horiz-adv-x="1091" 
d="M459 -20q-182 0 -284.5 110.5t-102.5 308.5v625h284v-588q0 -104 48 -160.5t141 -56.5q85 0 139.5 61.5t54.5 184.5v559h281v-1024h-279v113q-110 -133 -282 -133zM543 1116q-162 0 -246 95.5t-84 252.5h176q0 -190 154 -196q153 6 153 196h178q0 -152 -90 -250t-241 -98
z" />
    <glyph glyph-name="Uring" unicode="&#x16e;" horiz-adv-x="1243" 
d="M621 -20q-118 0 -216 34.5t-170 100.5t-112.5 169t-40.5 234v977h285v-995q0 -108 72 -182t179 -74q108 0 183.5 74.5t75.5 181.5v995h284v-977q0 -173 -71 -296.5t-191 -182.5t-278 -59zM616 1487q-98 0 -167.5 69.5t-69.5 167.5q0 101 69.5 171.5t167.5 70.5
q101 0 171.5 -70.5t70.5 -171.5q0 -98 -70.5 -167.5t-171.5 -69.5zM616 1645q34 0 59 23.5t25 55.5q0 34 -25 59t-59 25q-32 0 -55.5 -25t-23.5 -59q0 -32 23.5 -55.5t55.5 -23.5z" />
    <glyph glyph-name="uring" unicode="&#x16f;" horiz-adv-x="1091" 
d="M459 -20q-182 0 -284.5 110.5t-102.5 308.5v625h284v-588q0 -104 48 -160.5t141 -56.5q85 0 139.5 61.5t54.5 184.5v559h281v-1024h-279v113q-110 -133 -282 -133zM547 1118q-98 0 -168 70t-70 168q0 101 69.5 171t168.5 70q101 0 171 -70t70 -171q0 -99 -70 -168.5
t-171 -69.5zM547 1276q34 0 59 24t25 56q0 34 -25 59t-59 25q-32 0 -56 -25t-24 -59q0 -32 24 -56t56 -24z" />
    <glyph glyph-name="Uhungarumlaut" unicode="&#x170;" horiz-adv-x="1243" 
d="M621 -20q-118 0 -216 34.5t-170 100.5t-112.5 169t-40.5 234v977h285v-995q0 -108 72 -182t179 -74q108 0 183.5 74.5t75.5 181.5v995h284v-977q0 -173 -71 -296.5t-191 -182.5t-278 -59zM326 1597l233 349h248l-307 -349h-174zM668 1597l233 349h248l-307 -349h-174z
" />
    <glyph glyph-name="uhungarumlaut" unicode="&#x171;" horiz-adv-x="1091" 
d="M459 -20q-182 0 -284.5 110.5t-102.5 308.5v625h284v-588q0 -104 48 -160.5t141 -56.5q85 0 139.5 61.5t54.5 184.5v559h281v-1024h-279v113q-110 -133 -282 -133zM621 1126l233 349h248l-307 -349h-174zM279 1126l233 349h248l-307 -349h-174z" />
    <glyph glyph-name="Uogonek" unicode="&#x172;" horiz-adv-x="1243" 
d="M645 -455q-130 0 -212.5 64.5t-82.5 159.5q0 61 30 115t103 110q-185 35 -293 169.5t-108 354.5v977h285v-995q0 -108 72 -182t179 -74q108 0 183.5 74.5t75.5 181.5v995h284v-977q0 -198 -90 -327.5t-246 -180.5q-174 -115 -220 -154t-46 -77q0 -32 24.5 -47t61.5 -15
q10 0 20 1.5t17 3t16.5 6.5t14 7t15 9.5t13 9t14 11t13.5 10.5l164 -111q-58 -51 -137 -85t-150 -34z" />
    <glyph glyph-name="uogonek" unicode="&#x173;" horiz-adv-x="1091" 
d="M856 -471q-118 0 -193 62.5t-77 158.5q-3 80 36.5 144t118.5 124v95q-110 -133 -282 -133q-182 0 -284.5 110.5t-102.5 308.5v625h284v-588q0 -104 48 -160.5t141 -56.5q85 0 139.5 61.5t54.5 184.5v559h281v-1024h-12q-110 -65 -163.5 -126t-53.5 -101q0 -33 21 -50.5
t54 -17.5q51 0 103 64l164 -113q-120 -127 -277 -127z" />
    <glyph glyph-name="Wcircumflex" unicode="&#x174;" horiz-adv-x="2088" 
d="M451 0l-424 1495h297l278 -1034l307 1034h281l307 -1030l275 1030h288l-422 -1495h-280l-309 1044l-308 -1044h-290zM715 1597l243 349h175l243 -349h-211l-121 181l-118 -181h-211z" />
    <glyph glyph-name="wcircumflex" unicode="&#x175;" horiz-adv-x="1810" 
d="M395 0l-344 1026l281 -2l209 -653l233 653h279l219 -653l221 653h279l-365 -1024h-270l-230 651l-239 -651h-273zM575 1126l244 349h174l244 -349h-211l-121 181l-119 -181h-211z" />
    <glyph glyph-name="Ycircumflex" unicode="&#x176;" horiz-adv-x="1288" 
d="M500 0v709l-475 786h313l305 -514l307 514h314l-480 -793v-702h-284zM313 1597l244 349h174l244 -349h-211l-121 181l-119 -181h-211z" />
    <glyph glyph-name="ycircumflex" unicode="&#x177;" horiz-adv-x="1128" 
d="M223 -473l209 518l-407 979h294l252 -631l236 631h291l-594 -1497h-281zM233 1126l244 349h174l244 -349h-211l-121 181l-119 -181h-211z" />
    <glyph glyph-name="Ydieresis" unicode="&#x178;" horiz-adv-x="1288" 
d="M500 0v709l-475 786h313l305 -514l307 514h314l-480 -793v-702h-284zM311 1597v281h281v-281h-281zM694 1597v281h281v-281h-281z" />
    <glyph glyph-name="Zacute" unicode="&#x179;" horiz-adv-x="1132" 
d="M72 0v262l651 961h-629v272h967v-260l-653 -963h653v-272h-989zM453 1597l233 349h262l-307 -349h-188z" />
    <glyph glyph-name="zacute" unicode="&#x17a;" horiz-adv-x="1048" 
d="M61 0v250l539 526h-530v248h907v-252l-539 -524h549v-248h-926zM426 1126l233 349h263l-308 -349h-188z" />
    <glyph glyph-name="Zdotaccent" unicode="&#x17b;" horiz-adv-x="1132" 
d="M72 0v262l651 961h-629v272h967v-260l-653 -963h653v-272h-989zM436 1597v281h281v-281h-281z" />
    <glyph glyph-name="zdotaccent" unicode="&#x17c;" horiz-adv-x="1048" 
d="M61 0v250l539 526h-530v248h907v-252l-539 -524h549v-248h-926zM391 1126v281h281v-281h-281z" />
    <glyph glyph-name="Zcaron" unicode="&#x17d;" horiz-adv-x="1132" 
d="M72 0v262l651 961h-629v272h967v-260l-653 -963h653v-272h-989zM492 1597l-244 349h211l119 -181l120 181h211l-243 -349h-174z" />
    <glyph glyph-name="zcaron" unicode="&#x17e;" horiz-adv-x="1048" 
d="M61 0v250l539 526h-530v248h907v-252l-539 -524h549v-248h-926zM449 1126l-244 349h211l119 -181l120 181h211l-243 -349h-174z" />
    <glyph glyph-name="florin" unicode="&#x192;" 
d="M92 621v251h393l50 179q35 126 86 212.5t121.5 137t154.5 72.5t195 22h22v-262q-143 0 -202.5 -37t-90.5 -147l-49 -177h340v-251h-410l-49 -177q-68 -244 -186.5 -344t-327.5 -100h-47v262q126 0 186 39.5t89 144.5l47 175h-322z" />
    <glyph glyph-name="Aringacute" unicode="&#x1fa;" horiz-adv-x="1404" 
d="M29 0l499 1411q-65 68 -65 166q0 101 69.5 171.5t167.5 70.5q101 0 171.5 -70.5t70.5 -171.5q0 -98 -68 -166l502 -1411h-297l-90 260h-573l-90 -260h-297zM702 1090l-192 -558h385zM606 1909l234 348h262l-307 -348h-189zM700 1497q34 0 59 24t25 56q0 34 -25 59t-59 25
q-32 0 -55.5 -25t-23.5 -59q0 -32 23.5 -56t55.5 -24z" />
    <glyph glyph-name="aringacute" unicode="&#x1fb;" horiz-adv-x="1191" 
d="M535 -20q-67 0 -135 20.5t-132.5 64t-115 104.5t-81 150t-30.5 193q0 105 29.5 194t79 150t114.5 104.5t134.5 63.5t140.5 20q192 0 305 -120v100h280v-1024h-280v115q-53 -62 -132.5 -98.5t-176.5 -36.5zM590 238q113 0 187.5 80.5t74.5 195.5t-74.5 194.5t-187.5 79.5
q-117 0 -196 -78t-79 -196t79 -197t196 -79zM567 1112q-98 0 -167.5 70t-69.5 168q0 101 69 171t168 70q101 0 171.5 -70t70.5 -171q0 -99 -70.5 -168.5t-171.5 -69.5zM471 1663l234 348h262l-308 -348h-188zM567 1270q34 0 59 24t25 56q0 34 -25 59t-59 25q-32 0 -56 -25
t-24 -59q0 -32 24 -56t56 -24z" />
    <glyph glyph-name="AEacute" unicode="&#x1fc;" horiz-adv-x="1904" 
d="M25 0l680 1495h1140v-272h-782l86 -336h696v-273h-626l86 -342h540v-272h-770l-63 258h-576l-114 -258h-297zM807 1087l-252 -565h391zM995 1597l234 349h262l-307 -349h-189z" />
    <glyph glyph-name="aeacute" unicode="&#x1fd;" horiz-adv-x="1810" 
d="M1249 -20q-136 0 -245 53t-179 149q-55 -91 -165 -146.5t-244 -55.5q-188 0 -281.5 79.5t-93.5 212.5q0 134 84.5 210t239.5 118q33 9 96.5 24.5t95 24.5t70 23.5t55 31.5t16.5 39q0 34 -40 58t-111 24q-110 0 -163.5 -48t-53.5 -120v-6h-254v4q0 185 120.5 287
t338.5 102q116 0 207.5 -34.5t146.5 -98.5q149 133 350 133q150 0 272 -71t190 -193t68 -268v-90h-792q22 -91 92.5 -144t181.5 -53q85 0 155.5 47t104.5 123l232 -94q-61 -144 -195 -232.5t-299 -88.5zM809 1126l233 349h263l-308 -349h-188zM430 211q105 0 190 78.5
t85 142.5v49q-5 -14 -61.5 -36.5t-143.5 -43.5q-99 -24 -141 -50.5t-42 -69.5q0 -70 113 -70zM1241 799q-84 0 -148.5 -41t-97.5 -111h486q-31 73 -93.5 112.5t-146.5 39.5z" />
    <glyph glyph-name="Oslashacute" unicode="&#x1fe;" horiz-adv-x="1611" 
d="M41 0l192 236q-92 103 -142 234.5t-50 277.5q0 209 102 385.5t278 279.5t384 103q196 0 381 -103l67 82h328l-199 -244q189 -218 189 -503q0 -157 -60 -299.5t-162.5 -245t-244.5 -163t-299 -60.5q-200 0 -375 96l-61 -76h-328zM324 748q0 -161 90 -287l592 729
q-95 45 -201 45q-132 0 -242.5 -65.5t-174.5 -177.5t-64 -244zM805 260q132 0 243 65.5t175.5 178t64.5 244.5q0 153 -88 278l-588 -725q87 -41 193 -41zM678 1597l233 349h263l-308 -349h-188z" />
    <glyph glyph-name="oslashacute" unicode="&#x1ff;" horiz-adv-x="1142" 
d="M571 -20q-132 0 -243 57l-31 -37h-285l144 178q-115 144 -115 334q0 145 70.5 267.5t192.5 193.5t267 71q129 0 240 -57l31 37h284l-143 -176q119 -148 119 -336q0 -145 -70.5 -267.5t-193 -193.5t-267.5 -71zM473 1126l234 349h262l-307 -349h-189zM571 246
q109 0 184.5 78t75.5 188q0 60 -26 117l-303 -375q31 -8 69 -8zM311 512q0 -58 23 -115l301 373q-40 8 -64 8q-110 0 -185 -77.5t-75 -188.5z" />
    <glyph glyph-name="Scommaaccent" unicode="&#x218;" horiz-adv-x="1153" 
d="M590 -20q-351 0 -586 268l260 205q56 -96 140.5 -148.5t183.5 -52.5q104 0 163.5 58t59.5 139q0 34 -16 61.5t-39.5 46.5t-64 37t-75.5 29.5t-87 27.5q-18 5 -27 8q-53 16 -87.5 28t-83.5 33t-81 42t-67.5 54t-56.5 70t-34.5 88t-13.5 111q0 182 141 306.5t356 124.5
q170 0 286 -56t218 -162l-235 -178q-94 142 -266 142q-97 0 -151 -46.5t-54 -119.5q0 -31 15 -57.5t37.5 -44.5t61.5 -36t73 -30t85 -29q21 -7 31 -10q52 -17 88.5 -30.5t85 -36t82.5 -45.5t69.5 -57t57 -72.5t35.5 -90t14 -111.5q0 -90 -35 -173.5t-99.5 -149t-164 -104.5
t-219.5 -39zM553 -510h-174l70 418h247z" />
    <glyph glyph-name="scommaaccent" unicode="&#x219;" horiz-adv-x="956" 
d="M481 -20q-358 0 -471 276l269 104q55 -139 215 -139q66 0 103.5 26.5t37.5 65.5q0 42 -91 68q-32 8 -128 27q-62 11 -109.5 24.5t-99 38t-84.5 56.5t-54.5 82.5t-21.5 113.5q0 134 117.5 229t302.5 92q311 0 434 -237l-248 -105q-21 52 -70.5 82.5t-117.5 30.5
q-65 0 -99 -24t-34 -60q0 -32 44 -49.5t169 -42.5q61 -12 106 -25t98 -38t86.5 -57t56.5 -82.5t23 -114.5q0 -58 -27 -117.5t-78.5 -111t-137.5 -83t-191 -30.5zM393 -510h-174l70 418h248z" />
    <glyph glyph-name="dotlessj" unicode="&#x237;" horiz-adv-x="425" 
d="M-121 -471v262q55 0 86.5 4.5t55 14t33.5 32.5t14 52t4 81v1049h282v-1051q0 -250 -94.5 -347t-339.5 -97h-41z" />
    <glyph glyph-name="circumflex" unicode="&#x2c6;" horiz-adv-x="964" 
d="M152 1126l243 349h174l244 -349h-211l-121 181l-119 -181h-210z" />
    <glyph glyph-name="caron" unicode="&#x2c7;" horiz-adv-x="964" 
d="M393 1126l-243 349h210l119 -181l121 181h211l-244 -349h-174z" />
    <glyph glyph-name="breve" unicode="&#x2d8;" horiz-adv-x="964" 
d="M479 1116q-162 0 -245.5 95.5t-83.5 252.5h176q0 -190 153 -196q154 6 154 196h178q0 -152 -90.5 -250t-241.5 -98z" />
    <glyph glyph-name="dotaccent" unicode="&#x2d9;" horiz-adv-x="964" 
d="M322 1126v281h280v-281h-280z" />
    <glyph glyph-name="ring" unicode="&#x2da;" horiz-adv-x="964" 
d="M479 1118q-98 0 -167.5 70t-69.5 168q0 101 69 171t168 70q101 0 171.5 -70t70.5 -171q0 -99 -70.5 -168.5t-171.5 -69.5zM479 1276q34 0 59 24t25 56q0 34 -25 59t-59 25q-32 0 -56 -25t-24 -59q0 -32 24 -56t56 -24z" />
    <glyph glyph-name="ogonek" unicode="&#x2db;" horiz-adv-x="964" 
d="M473 -465q-130 0 -212.5 64t-82.5 159q0 88 67.5 165t239.5 163l168 -86q-174 -115 -220 -154t-46 -77q0 -32 24.5 -47t61.5 -15q26 0 50.5 10t34 17t38.5 30l164 -110q-58 -51 -137 -85t-150 -34z" />
    <glyph glyph-name="tilde" unicode="&#x2dc;" horiz-adv-x="964" 
d="M129 1126q0 126 57.5 201.5t157.5 75.5q76 0 156 -49q4 -3 16 -10.5t16.5 -10.5t14 -8.5t15.5 -8t14 -6t15.5 -4.5t14.5 -1q56 0 56 90h161q0 -129 -55 -203t-160 -74q-37 0 -74.5 12t-52.5 20.5t-51 29.5q-59 34 -86 34q-53 0 -53 -88h-162z" />
    <glyph glyph-name="hungarumlaut" unicode="&#x2dd;" horiz-adv-x="964" 
d="M70 1126l233 349h248l-307 -349h-174zM412 1126l233 349h248l-307 -349h-174z" />
    <glyph glyph-name="uni0328" unicode="&#x328;" horiz-adv-x="964" 
d="M504 -471q-118 0 -193.5 62.5t-77.5 158.5q-2 69 30.5 129.5t84.5 106t137 100.5l170 -86q-110 -65 -163.5 -126t-53.5 -101q0 -33 21 -50.5t55 -17.5q50 0 102 64l164 -113q-120 -127 -276 -127z" />
    <glyph glyph-name="pi" unicode="&#x3c0;" horiz-adv-x="1597" 
d="M74 1223v272h1450v-272h-260l-2 -801q0 -93 26 -118t119 -25h49v-279h-80q-85 0 -145.5 9t-105.5 31.5t-73 53.5t-45 82.5t-23 111t-7 144.5l2 791h-373v-1223h-284v1223h-248z" />
    <glyph glyph-name="pi" unicode="&#x3d6;" horiz-adv-x="1597" 
d="M74 1223v272h1450v-272h-260l-2 -801q0 -93 26 -118t119 -25h49v-279h-80q-85 0 -145.5 9t-105.5 31.5t-73 53.5t-45 82.5t-23 111t-7 144.5l2 791h-373v-1223h-284v1223h-248z" />
    <glyph glyph-name="uni0E3F" unicode="&#xe3f;" horiz-adv-x="997" 
d="M72 125v1221h364v149h142v-152q181 -12 277.5 -99.5t96.5 -244.5q0 -163 -135 -243q144 -83 144 -262q1 -167 -100.5 -259t-282.5 -108v-127h-142v125h-364zM352 621v-246h84v246h-84zM352 1096v-219h84v219h-84zM676 502q0 47 -23 74.5t-75 37.5v-231q98 25 98 119z
M674 991q0 86 -96 101v-211q96 17 96 110z" />
    <glyph glyph-name="Wgrave" unicode="&#x1e80;" horiz-adv-x="2088" 
d="M451 0l-424 1495h297l278 -1034l307 1034h281l307 -1030l275 1030h288l-422 -1495h-280l-309 1044l-308 -1044h-290zM942 1597l-307 349h262l233 -349h-188z" />
    <glyph glyph-name="wgrave" unicode="&#x1e81;" horiz-adv-x="1810" 
d="M395 0l-344 1026l281 -2l209 -653l233 653h279l219 -653l221 653h279l-365 -1024h-270l-230 651l-239 -651h-273zM811 1126l-307 349h262l233 -349h-188z" />
    <glyph glyph-name="Wacute" unicode="&#x1e82;" horiz-adv-x="2088" 
d="M451 0l-424 1495h297l278 -1034l307 1034h281l307 -1030l275 1030h288l-422 -1495h-280l-309 1044l-308 -1044h-290zM946 1597l234 349h262l-307 -349h-189z" />
    <glyph glyph-name="wacute" unicode="&#x1e83;" horiz-adv-x="1810" 
d="M395 0l-344 1026l281 -2l209 -653l233 653h279l219 -653l221 653h279l-365 -1024h-270l-230 651l-239 -651h-273zM817 1126l234 349h262l-307 -349h-189z" />
    <glyph glyph-name="Wdieresis" unicode="&#x1e84;" horiz-adv-x="2088" 
d="M451 0l-424 1495h297l278 -1034l307 1034h281l307 -1030l275 1030h288l-422 -1495h-280l-309 1044l-308 -1044h-290zM1098 1597v281h280v-281h-280zM715 1597v281h280v-281h-280z" />
    <glyph glyph-name="wdieresis" unicode="&#x1e85;" horiz-adv-x="1810" 
d="M395 0l-344 1026l281 -2l209 -653l233 653h279l219 -653l221 653h279l-365 -1024h-270l-230 651l-239 -651h-273zM958 1126v281h281v-281h-281zM575 1126v281h281v-281h-281z" />
    <glyph glyph-name="Ygrave" unicode="&#x1ef2;" horiz-adv-x="1288" 
d="M500 0v709l-475 786h313l305 -514l307 514h314l-480 -793v-702h-284zM545 1597l-307 349h262l233 -349h-188z" />
    <glyph glyph-name="ygrave" unicode="&#x1ef3;" horiz-adv-x="1128" 
d="M223 -473l209 518l-407 979h294l252 -631l236 631h291l-594 -1497h-281zM465 1126l-307 349h262l233 -349h-188z" />
    <glyph glyph-name="figuredash" unicode="&#x2012;" horiz-adv-x="1269" 
d="M72 401v240h1126v-240h-1126z" />
    <glyph glyph-name="endash" unicode="&#x2013;" horiz-adv-x="962" 
d="M72 401v240h819v-240h-819z" />
    <glyph glyph-name="emdash" unicode="&#x2014;" horiz-adv-x="1372" 
d="M72 401v240h1228v-240h-1228z" />
    <glyph glyph-name="uni2015" unicode="&#x2015;" horiz-adv-x="1986" 
d="M72 401v240h1843v-240h-1843z" />
    <glyph glyph-name="doublebar" unicode="&#x2016;" horiz-adv-x="835" 
d="M72 -471v1966h284v-1966h-284zM479 -471v1966h285v-1966h-285z" />
    <glyph glyph-name="quoteleft" unicode="&#x2018;" horiz-adv-x="423" 
d="M293 1495l69 -418h-174l-143 418h248z" />
    <glyph glyph-name="quoteright" unicode="&#x2019;" horiz-adv-x="423" 
d="M229 1077h-174l70 418h248z" />
    <glyph glyph-name="quotesinglbase" unicode="&#x201a;" horiz-adv-x="423" 
d="M217 -240h-174l70 418h247z" />
    <glyph glyph-name="reversequoteleft" unicode="&#x201b;" horiz-adv-x="423" 
d="M229 1077h-174l70 418h248z" />
    <glyph glyph-name="quotedblleft" unicode="&#x201c;" horiz-adv-x="757" 
d="M301 1495l70 -418h-174l-144 418h248zM635 1495l70 -418h-175l-143 418h248z" />
    <glyph glyph-name="quotedblright" unicode="&#x201d;" horiz-adv-x="757" 
d="M229 1077h-174l70 418h248zM563 1077h-174l70 418h248z" />
    <glyph glyph-name="quotedblbase" unicode="&#x201e;" horiz-adv-x="757" 
d="M217 -240h-174l70 418h247zM551 -240h-174l69 418h248z" />
    <glyph glyph-name="reversequotedblleft" unicode="&#x201f;" horiz-adv-x="757" 
d="M229 1077h-174l70 418h248zM563 1077h-174l70 418h248z" />
    <glyph glyph-name="dagger" unicode="&#x2020;" horiz-adv-x="1071" 
d="M72 770v254h321v471h285v-471h321v-254h-321v-770h-285v770h-321z" />
    <glyph glyph-name="daggerdbl" unicode="&#x2021;" horiz-adv-x="1071" 
d="M72 889v250h321v356h285v-356h321v-250h-321v-264h321v-250h-321v-375h-285v375h-321v250h321v264h-321z" />
    <glyph glyph-name="bullet" unicode="&#x2022;" horiz-adv-x="815" 
d="M408 291q-95 0 -163.5 68t-68.5 163t68.5 163.5t163.5 68.5t163 -68.5t68 -163.5t-68 -163t-163 -68z" />
    <glyph glyph-name="ellipsis" unicode="&#x2026;" horiz-adv-x="1189" 
d="M72 0v281h280v-281h-280zM455 0v281h280v-281h-280zM838 0v281h280v-281h-280z" />
    <glyph glyph-name="perthousand" unicode="&#x2030;" horiz-adv-x="2459" 
d="M20 0l1285 1495h360l-1284 -1495h-361zM1278 -23q-152 0 -259.5 107.5t-107.5 259.5t107.5 259.5t259.5 107.5t259.5 -107.5t107.5 -259.5t-107.5 -259.5t-259.5 -107.5zM1278 215q52 0 90.5 38.5t38.5 90.5t-38.5 90.5t-90.5 38.5t-90.5 -38.5t-38.5 -90.5t38.5 -90.5
t90.5 -38.5zM408 782q-152 0 -259.5 107.5t-107.5 259.5t107.5 259.5t259.5 107.5t259 -107.5t107 -259.5t-107 -259.5t-259 -107.5zM408 1020q52 0 90.5 38t38.5 91t-38.5 91t-90.5 38t-90.5 -38t-38.5 -91t38.5 -91t90.5 -38zM2052 -23q-152 0 -259 107.5t-107 259.5
t107 259.5t259 107.5t259.5 -107.5t107.5 -259.5t-107.5 -259.5t-259.5 -107.5zM2052 215q52 0 90.5 38.5t38.5 90.5t-38.5 90.5t-90.5 38.5t-90.5 -38.5t-38.5 -90.5t38.5 -90.5t90.5 -38.5z" />
    <glyph glyph-name="minute" unicode="&#x2032;" horiz-adv-x="423" 
d="M229 1077h-174l70 418h248z" />
    <glyph glyph-name="second" unicode="&#x2033;" horiz-adv-x="757" 
d="M229 1077h-174l70 418h248zM563 1077h-174l70 418h248z" />
    <glyph glyph-name="tripleprime" unicode="&#x2034;" horiz-adv-x="964" 
d="M141 1024q-18 43 -43.5 148.5t-25.5 150.5v172h219v-172q0 -46 -27 -151.5t-45 -147.5h-78zM442 1024q-18 43 -43.5 148.5t-25.5 150.5v172h219v-172q0 -46 -27 -151.5t-45 -147.5h-78zM743 1024q-18 43 -43.5 148.5t-25.5 150.5v172h219v-172q0 -46 -27 -151.5
t-45 -147.5h-78z" />
    <glyph glyph-name="guilsinglleft" unicode="&#x2039;" horiz-adv-x="561" 
d="M455 193l-349 243v174l349 244v-211l-181 -121l181 -119v-210z" />
    <glyph glyph-name="guilsinglright" unicode="&#x203a;" horiz-adv-x="561" 
d="M106 195v211l181 118l-181 121v211l349 -244v-174z" />
    <glyph glyph-name="fraction" unicode="&#x2044;" horiz-adv-x="1445" 
d="M20 0l1080 1495h327l-1079 -1495h-328z" />
    <glyph glyph-name="uni2070" unicode="&#x2070;" horiz-adv-x="925" 
d="M461 618q-185 0 -313 130t-128 315t128 314.5t313 129.5q186 0 315 -129.5t129 -314.5t-128.5 -315t-315.5 -130zM461 850q90 0 147.5 61.5t57.5 151.5q0 89 -58 151t-147 62q-88 0 -145.5 -62t-57.5 -151q0 -90 57 -151.5t146 -61.5z" />
    <glyph glyph-name="uni2074" unicode="&#x2074;" horiz-adv-x="741" 
d="M371 631v170h-344v207l342 487h219v-496h127v-198h-127v-170h-217zM268 999h103v148z" />
    <glyph glyph-name="uni2075" unicode="&#x2075;" horiz-adv-x="653" 
d="M319 618q-104 0 -186 42.5t-125 117.5l225 119q25 -57 86 -57q37 0 59.5 22.5t22.5 59.5q0 35 -23.5 56t-62.5 21q-27 0 -51 -15.5t-33 -37.5l-213 74l66 475h496v-215h-316l-12 -86q43 16 98 16q129 0 207 -76.5t78 -211.5t-89.5 -219.5t-226.5 -84.5z" />
    <glyph glyph-name="uni2076" unicode="&#x2076;" horiz-adv-x="720" 
d="M360 618q-149 0 -244.5 92t-95.5 230q0 114 86 252l191 303h268l-153 -242q125 -5 206.5 -90t81.5 -223q2 -139 -94 -230.5t-246 -91.5zM360 836q45 0 77 31t32 75t-32.5 75.5t-76.5 31.5t-74 -31t-30 -76q0 -44 30 -75t74 -31z" />
    <glyph glyph-name="uni2077" unicode="&#x2077;" horiz-adv-x="626" 
d="M53 631l301 647h-327v217h573v-205l-295 -659h-252z" />
    <glyph glyph-name="uni2078" unicode="&#x2078;" horiz-adv-x="669" 
d="M334 618q-134 0 -220.5 77.5t-86.5 209.5q0 108 79 187q-55 61 -55 153q0 123 78 192.5t205 69.5t205.5 -69.5t78.5 -192.5q0 -88 -51 -151q76 -76 76 -189q0 -132 -87.5 -209.5t-221.5 -77.5zM334 819q39 0 64.5 24.5t25.5 61.5q0 36 -25.5 60t-64.5 24t-63.5 -24.5
t-24.5 -59.5q0 -37 24.5 -61.5t63.5 -24.5zM334 1176q35 0 55.5 19.5t20.5 49.5t-20 51t-54 21q-35 0 -55.5 -20.5t-20.5 -51.5q0 -30 20.5 -49.5t53.5 -19.5z" />
    <glyph glyph-name="uni2079" unicode="&#x2079;" horiz-adv-x="720" 
d="M158 631l151 243q-123 3 -206 88.5t-83 223.5q0 139 95 230t245 91q149 0 244.5 -91.5t95.5 -229.5q0 -114 -86 -252l-190 -303h-266zM360 1077q44 0 75.5 31.5t31.5 75.5q0 45 -31 75.5t-76 30.5t-75.5 -30.5t-30.5 -75.5q0 -44 31 -75.5t75 -31.5z" />
    <glyph glyph-name="uni207A" unicode="&#x207a;" horiz-adv-x="501" 
d="M31 967v190h127v123h184v-123h127v-190h-127v-123h-184v123h-127z" />
    <glyph glyph-name="uni207B" unicode="&#x207b;" horiz-adv-x="501" 
d="M31 967v188h438v-188h-438z" />
    <glyph glyph-name="uni207C" unicode="&#x207c;" horiz-adv-x="489" 
d="M27 1075v180h436v-180h-436zM27 864v183h436v-183h-436z" />
    <glyph glyph-name="uni207D" unicode="&#x207d;" horiz-adv-x="544" 
d="M352 438q-307 238 -307 619q0 378 307 618l142 -190q-213 -160 -213 -428q0 -262 213 -428z" />
    <glyph glyph-name="uni207E" unicode="&#x207e;" horiz-adv-x="544" 
d="M193 438l-142 191q213 166 213 428q0 268 -213 428l142 190q307 -240 307 -618q0 -381 -307 -619z" />
    <glyph glyph-name="uni2080" unicode="&#x2080;" horiz-adv-x="925" 
d="M461 -12q-185 0 -313 129.5t-128 314.5t128 315t313 130q122 0 224 -59.5t161 -162t59 -223.5q0 -185 -128.5 -314.5t-315.5 -129.5zM461 219q90 0 147.5 61.5t57.5 151.5q0 89 -58 151t-147 62q-88 0 -145.5 -62t-57.5 -151q0 -90 57 -151.5t146 -61.5z" />
    <glyph glyph-name="uni2081" unicode="&#x2081;" horiz-adv-x="610" 
d="M27 0v217h166v332q-42 -53 -130 -53h-12v223h6q54 0 88 24.5t45 55t11 65.5h227v-647h160v-217h-561z" />
    <glyph glyph-name="uni2082" unicode="&#x2082;" horiz-adv-x="675" 
d="M27 0v172q0 61 20 112t57.5 88t73 61.5t84.5 49.5q8 4 22 12q47 25 68.5 38.5t41.5 34.5t20 42q0 28 -21 46t-59 18q-43 0 -75.5 -32.5t-49.5 -78.5l-203 105q47 99 131 154t201 55q140 0 228.5 -74.5t88.5 -190.5q0 -58 -21 -106.5t-61 -85t-75.5 -59.5t-85.5 -48
q-94 -49 -115 -68q-15 -15 -18 -28h370v-217h-622z" />
    <glyph glyph-name="uni2083" unicode="&#x2083;" horiz-adv-x="665" 
d="M324 -12q-93 0 -177.5 27t-138.5 81l178 160q52 -55 123 -55q39 0 63.5 18t24.5 51q0 66 -116 66h-91v205h86q49 0 76 18.5t27 50.5q0 29 -22 45.5t-62 16.5q-32 0 -61 -15.5t-44 -40.5l-167 146q52 53 128.5 84t151.5 31q144 0 234 -70t90 -189q0 -99 -84 -167
q104 -65 104 -187q0 -120 -88.5 -198t-234.5 -78z" />
    <glyph glyph-name="uni2084" unicode="&#x2084;" horiz-adv-x="741" 
d="M371 0v170h-344v207l342 487h219v-495h127v-199h-127v-170h-217zM268 369h103v147z" />
    <glyph glyph-name="uni2085" unicode="&#x2085;" horiz-adv-x="653" 
d="M319 -12q-105 0 -186.5 42.5t-124.5 116.5l225 119q25 -57 86 -57q37 0 59.5 22.5t22.5 59.5q0 35 -24 56.5t-62 21.5q-27 0 -51 -16t-33 -38l-213 74l66 475h496v-215h-316l-12 -86q46 17 98 17q129 0 207 -77t78 -212t-89.5 -219t-226.5 -84z" />
    <glyph glyph-name="uni2086" unicode="&#x2086;" horiz-adv-x="720" 
d="M360 -12q-149 0 -244.5 91.5t-95.5 229.5q0 114 86 252l191 303h268l-153 -241q124 -5 206 -90.5t82 -223.5q2 -139 -94 -230t-246 -91zM360 205q45 0 77 31t32 75t-32.5 75.5t-76.5 31.5t-74 -31t-30 -76q0 -44 30 -75t74 -31z" />
    <glyph glyph-name="uni2087" unicode="&#x2087;" horiz-adv-x="626" 
d="M53 0l301 647h-327v217h573v-205l-295 -659h-252z" />
    <glyph glyph-name="uni2088" unicode="&#x2088;" horiz-adv-x="669" 
d="M334 -12q-134 0 -220.5 77t-86.5 209q0 108 79 187q-55 61 -55 153q0 124 78 193.5t205 69.5t205.5 -70t78.5 -193q0 -88 -51 -151q76 -76 76 -189q0 -132 -87.5 -209t-221.5 -77zM334 188q39 0 64.5 24.5t25.5 61.5q0 36 -25.5 60t-64.5 24t-63.5 -24.5t-24.5 -59.5
q0 -37 24.5 -61.5t63.5 -24.5zM334 545q35 0 55.5 19.5t20.5 49.5t-20 51t-54 21q-35 0 -55.5 -20.5t-20.5 -51.5q0 -30 20.5 -49.5t53.5 -19.5z" />
    <glyph glyph-name="uni2089" unicode="&#x2089;" horiz-adv-x="720" 
d="M158 0l151 244q-123 3 -206 88t-83 223q0 139 95 230.5t245 91.5q149 0 244.5 -92t95.5 -230q0 -114 -86 -252l-190 -303h-266zM360 446q44 0 75.5 31.5t31.5 75.5q0 45 -31 75.5t-76 30.5t-75.5 -30.5t-30.5 -75.5q0 -44 31 -75.5t75 -31.5z" />
    <glyph glyph-name="uni208A" unicode="&#x208a;" horiz-adv-x="501" 
d="M31 336v190h127v123h184v-123h127v-190h-127v-123h-184v123h-127z" />
    <glyph glyph-name="uni208B" unicode="&#x208b;" horiz-adv-x="501" 
d="M31 336v188h438v-188h-438z" />
    <glyph glyph-name="uni208C" unicode="&#x208c;" horiz-adv-x="489" 
d="M27 444v181h436v-181h-436zM27 233v183h436v-183h-436z" />
    <glyph glyph-name="uni208D" unicode="&#x208d;" horiz-adv-x="544" 
d="M352 -193q-307 238 -307 619q0 378 307 618l142 -190q-213 -160 -213 -428q0 -262 213 -428z" />
    <glyph glyph-name="uni208E" unicode="&#x208e;" horiz-adv-x="544" 
d="M193 -193l-142 191q213 166 213 428q0 268 -213 428l142 190q307 -240 307 -618q0 -381 -307 -619z" />
    <glyph glyph-name="uni20A1" unicode="&#x20a1;" horiz-adv-x="1505" 
d="M301 -246h-151l161 393q-129 106 -199.5 262t-70.5 339q0 164 59.5 307.5t162 244t244.5 158.5t302 58q10 0 30 -1.5t29 -1.5l86 207h156l-96 -233q29 -7 96 -33l111 266h155l-139 -336q140 -93 227 -239l-250 -160q-45 78 -90 123l-348 -844h27q134 0 237.5 67.5
t167.5 180.5l256 -147q-105 -178 -273.5 -281.5t-381.5 -103.5q-51 0 -145 12l-97 -238h-153l110 273q-36 13 -94 43zM324 748q0 -179 106 -310l324 795q-188 -20 -309 -156.5t-121 -328.5zM541 338q42 -26 94 -45l369 901q-50 23 -99 31z" />
    <glyph glyph-name="uni20A2" unicode="&#x20a2;" horiz-adv-x="1505" 
d="M809 -20q-170 0 -315 60t-243.5 164t-154 244.5t-55.5 299.5q0 164 59.5 307.5t162 244t244.5 158.5t302 58q207 0 381 -100.5t274 -270.5l-250 -160q-135 250 -405 250q-208 0 -346.5 -140t-138.5 -347q0 -150 77 -269.5t207 -175.5v600h279v-168q81 168 282 168h52
v-272h-117q-113 0 -164 -63.5t-51 -205.5v-92q116 21 202.5 91.5t137.5 177.5l256 -142q-100 -193 -278 -305t-398 -112z" />
    <glyph glyph-name="franc" unicode="&#x20a3;" horiz-adv-x="989" 
d="M72 0v1495h846v-272h-562v-199h562v-240h-562v-120h562v-240h-562v-424h-284z" />
    <glyph glyph-name="lira" unicode="&#x20a4;" horiz-adv-x="1445" 
d="M176 784v205h133q-6 37 -6 82q0 194 133 319.5t342 125.5q186 0 309.5 -79.5t165.5 -219.5l-270 -97q-19 71 -71 109.5t-130 38.5q-94 0 -152.5 -57t-58.5 -136q0 -45 9 -86h430v-205h-359q38 -84 41 -92h318v-205h-254q10 -58 10 -112q0 -50 -14 -111q118 -59 186 -59
q80 0 112.5 38t32.5 126v100h291v-137q0 -352 -362 -352q-173 0 -359 112q-112 -115 -264 -115q-137 0 -211 53t-74 160q0 96 72 160t178 64q99 0 230 -60q0 3 1 9.5t1 9.5q0 53 -23 114h-387v205h268q-56 91 -57 92h-211zM389 143q66 0 115 43q-85 47 -135 47
q-26 0 -40 -11t-14 -29q0 -22 19.5 -36t54.5 -14z" />
    <glyph glyph-name="uni20A6" unicode="&#x20a6;" horiz-adv-x="1652" 
d="M61 795v137h185v563h303l311 -563h262v563h285v-563h184v-137h-184v-62h184v-137h-184v-596h-283l-329 596h-265v-596h-284v596h-185v137h185v62h-185zM530 795v-62h189l-33 62h-156zM936 795l33 -62h153v62h-186zM610 932l-80 143v-143h80zM1044 596l78 -139v139h-78z
" />
    <glyph glyph-name="peseta" unicode="&#x20a7;" horiz-adv-x="2871" 
d="M1094 772v4q-57 -157 -193.5 -253.5t-316.5 -96.5h-228v-426h-284v1495h514q212 0 361 -134.5t173 -336.5h148v240l280 153v-393h213v-252h-213v-326q0 -52 4 -81t14 -52t33.5 -32.5t55 -14t86.5 -4.5h500q68 0 104.5 20.5t36.5 57.5q0 20 -12.5 34t-48.5 24t-57.5 14
t-79.5 12q-9 1 -13 2q-45 7 -74.5 12.5t-73 16.5t-72.5 24.5t-61 35.5t-51.5 49.5t-32 66.5t-12.5 86q0 147 112 238.5t296 88.5q173 0 279 -61t167 -176l-248 -105q-21 52 -70.5 82.5t-117.5 30.5q-66 0 -99.5 -21.5t-33.5 -56.5q0 -18 12 -30.5t44.5 -21.5t54 -13
t75.5 -12q7 -1 11 -1.5t10.5 -1.5t11.5 -2q59 -9 102.5 -19.5t96 -33t86 -53.5t56.5 -82.5t23 -118.5q0 -53 -13 -101.5t-44.5 -94.5t-80 -79.5t-124.5 -53.5t-172 -19h-528q-244 0 -338 96.5t-94 347.5v328h-174zM565 1231h-209v-541h209q120 0 196.5 78.5t76.5 192.5
t-76.5 192t-196.5 78z" />
    <glyph glyph-name="uni20A8" unicode="&#x20a8;" horiz-adv-x="2021" 
d="M1503 0q-72 0 -136.5 6t-148 25.5t-159.5 51.5t-165 88.5t-172.5 132.5t-175 187t-177.5 248h139q79 0 139 24.5t93 63.5t49 81t16 85q0 117 -70.5 176.5t-226.5 59.5h-152v-1229h-284v1495h469q252 0 401.5 -142t149.5 -360q0 -139 -63.5 -254.5t-188.5 -175.5
q80 -94 166 -156.5t176 -92.5t167.5 -41t174.5 -11q170 0 170 78q0 20 -13 33.5t-44 22.5t-56 13.5t-76 11.5q-5 1 -7.5 1t-7 1t-7.5 1q-44 7 -74.5 12.5t-73 17t-72 25t-61.5 36t-51.5 49.5t-32 66.5t-12.5 86.5q0 147 111.5 238.5t295.5 88.5q117 0 206 -30.5t145 -81
t96 -125.5l-248 -105q-21 52 -70.5 82.5t-117.5 30.5q-66 0 -99.5 -21.5t-33.5 -56.5q0 -18 12 -30.5t44.5 -21.5t54 -13t75.5 -12q22 -3 33 -5q59 -9 102.5 -19.5t96 -33t86 -53.5t56.5 -82.5t23 -118.5q0 -53 -13.5 -101t-47 -95t-85.5 -80t-135.5 -53t-189.5 -19z" />
    <glyph glyph-name="uni20A9" unicode="&#x20a9;" horiz-adv-x="2205" 
d="M51 795v137h187l-160 563h297l151 -563h287l168 563h260l168 -563h285l149 563h289l-160 -563h182v-137h-221l-16 -62h237v-137h-276l-168 -596h-280l-177 596h-284l-176 -596h-291l-170 596h-281v137h242l-17 62h-225zM563 795l17 -62h174l18 62h-209zM1450 795l18 -62
h172l17 62h-207zM1028 795l-18 -62h202l-18 62h-166zM713 596h-97l46 -172zM1604 596h-95l50 -168zM1153 932l-43 145l-43 -145h86z" />
    <glyph glyph-name="uni20AA" unicode="&#x20aa;" horiz-adv-x="1650" 
d="M479 0v1124q64 0 105.5 -3t75.5 -13t52.5 -25.5t31 -44t16.5 -64t4 -89.5v-621h135q121 0 196.5 17.5t120.5 61t61.5 106.5t16.5 165v881h285v-881q0 -614 -651 -614h-449zM72 0v1495h448q651 0 651 -614v-263q2 -140 -57 -191.5t-227 -51.5v506q0 103 -15.5 165.5
t-60 106t-120.5 61t-199 17.5h-136v-1231h-284z" />
    <glyph glyph-name="Euro" unicode="&#x20ac;" 
d="M63 838v223h189q15 198 156 326.5t352 128.5q236 0 383 -160l-215 -193q-65 72 -168 72q-91 0 -148 -48t-73 -126h456l-39 -223h-421v-181h395l-35 -223h-358q12 -78 68.5 -125t148.5 -47q102 0 170 94l256 -168q-135 -208 -424 -208q-232 0 -363.5 123t-142.5 331h-187
v223h187v181h-187z" />
    <glyph glyph-name="uni20AE" unicode="&#x20ae;" horiz-adv-x="1222" 
d="M246 610v154l223 92v367h-397v272h1079v-272h-397v-250l215 88v-154l-215 -88v-112l215 88v-154l-215 -88v-553h-285v436l-223 -92v154l223 92v112z" />
    <glyph glyph-name="uni20B1" unicode="&#x20b1;" horiz-adv-x="1488" 
d="M72 995v138h157v362h514q181 0 318.5 -100.5t191.5 -261.5h185v-138h-158q2 -12 2 -34v-27h156v-137h-181q-52 -166 -191 -268.5t-325 -102.5h-227v-426h-285v797h-157v137h157v61h-157zM723 690q69 0 126 28.5t93 78.5h-428v-107h209zM723 1231h-209v-98h422
q-36 45 -91.5 71.5t-121.5 26.5zM995 961q0 5 -1 16.5t-1 17.5h-479v-61h479q2 8 2 27z" />
    <glyph glyph-name="published" unicode="&#x2117;" horiz-adv-x="1611" 
d="M805 -20q-209 0 -384.5 102.5t-277.5 279t-102 386.5q0 209 102 385.5t278 279.5t384 103q209 0 385.5 -103t278.5 -279.5t102 -385.5q0 -157 -60 -299.5t-162.5 -245t-244.5 -163t-299 -60.5zM805 197q149 0 275 74t199 201t73 276t-73 275.5t-199 200.5t-275 74
q-151 0 -275.5 -74t-194 -200t-69.5 -276t69.5 -276t194 -200.5t275.5 -74.5zM514 348v787h379q125 0 213 -89t88 -215t-85.5 -214.5t-213.5 -88.5h-145v-180h-236zM852 940h-102v-217h102q45 0 77 33t32 75t-32 75.5t-77 33.5z" />
    <glyph glyph-name="servicemark" unicode="&#x2120;" horiz-adv-x="1282" 
d="M557 901v594h191l139 -182l149 182h174v-594h-200v283l-127 -142l-125 142v-283h-201zM279 887q-170 0 -254 121l172 108q11 -22 35.5 -39.5t46.5 -17.5q17 0 27.5 7.5t10.5 18.5q0 12 -20 21t-50.5 15t-65.5 19.5t-65.5 32t-50.5 56t-20 88.5q0 82 66.5 136t171.5 54
q138 0 223 -110l-152 -97q-31 50 -71 50q-20 0 -31.5 -7t-11.5 -18q0 -8 28 -16t68 -20.5t80 -32.5t68 -60.5t28 -95.5q0 -97 -63.5 -155t-169.5 -58z" />
    <glyph glyph-name="trademark" unicode="&#x2122;" horiz-adv-x="1327" 
d="M602 901v594h191l139 -182l149 182h174v-594h-200v283l-127 -142l-125 142v-283h-201zM199 901v408h-148v186h490v-186h-144v-408h-198z" />
    <glyph glyph-name="uni2153" unicode="&#x2153;" horiz-adv-x="1816" 
d="M172 0l1079 1495h328l-1079 -1495h-328zM1475 -12q-93 0 -177.5 27t-138.5 81l178 160q52 -55 123 -55q39 0 63.5 18t24.5 51q0 66 -116 66h-91v205h86q49 0 76 18.5t27 50.5q0 29 -22 45.5t-62 16.5q-32 0 -61 -15.5t-44 -40.5l-167 146q52 53 128.5 84t151.5 31
q144 0 234 -70t90 -189q0 -99 -84 -167q104 -65 104 -187q0 -120 -88.5 -198t-234.5 -78zM27 631v217h166v332q-42 -54 -130 -54h-12v224h6q54 0 88 24.5t45 55t11 65.5h227v-647h160v-217h-561z" />
    <glyph glyph-name="uni2154" unicode="&#x2154;" horiz-adv-x="1878" 
d="M233 0l1080 1495h327l-1079 -1495h-328zM27 631v172q0 61 20 112t57.5 88t73 61.5t84.5 49.5q8 4 22 12q47 25 68.5 38.5t41.5 34.5t20 42q0 28 -21 46t-59 18q-43 0 -75.5 -32.5t-49.5 -78.5l-203 104q47 99 131 154t201 55q140 0 228.5 -74t88.5 -190q0 -58 -21 -106.5
t-61 -85t-75.5 -59.5t-85.5 -48q-94 -49 -115 -68q-15 -15 -18 -28h370v-217h-622zM1536 -12q-93 0 -177 27t-138 81l178 160q52 -55 123 -55q39 0 63.5 18t24.5 51q0 66 -117 66h-90v205h86q49 0 75.5 18t26.5 51q0 29 -22 45.5t-62 16.5q-32 0 -60.5 -15.5t-43.5 -40.5
l-168 146q52 53 129 84t152 31q144 0 233.5 -70t89.5 -189q0 -99 -84 -167q105 -65 105 -187q0 -119 -89 -197.5t-235 -78.5z" />
    <glyph glyph-name="uni2155" unicode="&#x2155;" horiz-adv-x="1734" 
d="M172 0l1079 1495h328l-1079 -1495h-328zM1401 -12q-105 0 -186.5 42.5t-124.5 116.5l225 119q25 -57 86 -57q37 0 59.5 22.5t22.5 59.5q0 35 -24 56.5t-62 21.5q-27 0 -51 -16t-33 -38l-213 74l65 475h496v-215h-315l-13 -86q46 17 99 17q129 0 206.5 -77t77.5 -212
t-89 -219t-226 -84zM27 631v217h166v332q-42 -54 -130 -54h-12v224h6q54 0 88 24.5t45 55t11 65.5h227v-647h160v-217h-561z" />
    <glyph glyph-name="uni2156" unicode="&#x2156;" horiz-adv-x="1798" 
d="M233 0l1080 1495h327l-1079 -1495h-328zM27 631v172q0 61 20 112t57.5 88t73 61.5t84.5 49.5q8 4 22 12q47 25 68.5 38.5t41.5 34.5t20 42q0 28 -21 46t-59 18q-43 0 -75.5 -32.5t-49.5 -78.5l-203 104q47 99 131 154t201 55q140 0 228.5 -74t88.5 -190q0 -58 -21 -106.5
t-61 -85t-75.5 -59.5t-85.5 -48q-94 -49 -115 -68q-15 -15 -18 -28h370v-217h-622zM1464 -12q-105 0 -186.5 42.5t-124.5 116.5l225 119q25 -57 86 -57q37 0 59.5 22.5t22.5 59.5q0 35 -24 56.5t-62 21.5q-27 0 -51 -16t-33 -38l-213 74l66 475h495v-215h-315l-12 -86
q46 17 98 17q129 0 207 -77t78 -212t-89.5 -219t-226.5 -84z" />
    <glyph glyph-name="uni2157" unicode="&#x2157;" horiz-adv-x="1748" 
d="M186 0l1080 1495h327l-1079 -1495h-328zM1415 -12q-105 0 -186.5 42.5t-124.5 116.5l225 119q25 -57 86 -57q37 0 59.5 22.5t22.5 59.5q0 35 -24 56.5t-62 21.5q-27 0 -51 -16t-33 -38l-213 74l66 475h495v-215h-315l-12 -86q46 17 98 17q129 0 207 -77t78 -212
t-89.5 -219t-226.5 -84zM324 618q-93 0 -177.5 27.5t-138.5 81.5l178 160q53 -56 123 -56q39 0 63.5 18.5t24.5 51.5q0 66 -116 66h-91v204h86q49 0 76 18.5t27 51.5q0 29 -22 45.5t-62 16.5q-32 0 -61 -15.5t-44 -40.5l-167 146q51 53 128 83.5t152 30.5q144 0 234 -70
t90 -188q0 -100 -84 -168q104 -65 104 -186q0 -120 -88.5 -198.5t-234.5 -78.5z" />
    <glyph glyph-name="uni2158" unicode="&#x2158;" horiz-adv-x="1736" 
d="M172 0l1079 1495h328l-1079 -1495h-328zM1403 -12q-105 0 -186.5 42.5t-124.5 116.5l225 119q25 -57 86 -57q37 0 59.5 22.5t22.5 59.5q0 35 -24 56.5t-62 21.5q-27 0 -51 -16t-33 -38l-213 74l65 475h496v-215h-315l-13 -86q46 17 99 17q129 0 206.5 -77t77.5 -212
t-89 -219t-226 -84zM371 631v170h-344v207l342 487h219v-496h127v-198h-127v-170h-217zM268 999h103v148z" />
    <glyph glyph-name="uni2159" unicode="&#x2159;" horiz-adv-x="1814" 
d="M172 0l1079 1495h328l-1079 -1495h-328zM1454 -12q-149 0 -244.5 91.5t-95.5 229.5q0 114 86 252l191 303h268l-154 -241q125 -5 207 -90.5t82 -223.5q2 -139 -94 -230t-246 -91zM27 631v217h166v332q-42 -54 -130 -54h-12v224h6q54 0 88 24.5t45 55t11 65.5h227v-647
h160v-217h-561zM1454 205q45 0 77 31t32 75t-32.5 75.5t-76.5 31.5t-74 -31t-30 -76q0 -44 30 -75t74 -31z" />
    <glyph glyph-name="uni215A" unicode="&#x215a;" horiz-adv-x="1808" 
d="M166 0l1079 1495h328l-1079 -1495h-328zM1448 -12q-149 0 -244.5 91.5t-95.5 229.5q0 114 86 252l190 303h269l-154 -241q125 -5 207 -90.5t82 -223.5q2 -139 -94 -230t-246 -91zM319 618q-104 0 -186 42.5t-125 117.5l225 119q25 -57 86 -57q37 0 59.5 22.5t22.5 59.5
q0 35 -23.5 56t-62.5 21q-27 0 -51 -15.5t-33 -37.5l-213 74l66 475h496v-215h-316l-12 -86q43 16 98 16q129 0 207 -76.5t78 -211.5t-89.5 -219.5t-226.5 -84.5zM1448 205q44 0 76 31t32 75t-32 75.5t-76 31.5t-74.5 -31.5t-30.5 -75.5t30.5 -75t74.5 -31z" />
    <glyph glyph-name="uni215B" unicode="&#x215b;" horiz-adv-x="1753" 
d="M172 0l1079 1495h328l-1079 -1495h-328zM1417 -12q-134 0 -220.5 77t-86.5 209q0 107 80 187q-55 61 -55 153q0 124 77.5 193.5t204.5 69.5t206 -70t79 -193q0 -88 -51 -151q75 -75 75 -189q0 -132 -87.5 -209t-221.5 -77zM27 631v217h166v332q-42 -54 -130 -54h-12v224
h6q54 0 88 24.5t45 55t11 65.5h227v-647h160v-217h-561zM1417 188q39 0 64.5 24.5t25.5 61.5q0 36 -25.5 60t-64.5 24t-63.5 -24.5t-24.5 -59.5q0 -37 24.5 -61.5t63.5 -24.5zM1417 545q35 0 55.5 19.5t20.5 49.5t-20 51t-54 21q-35 0 -55.5 -20.5t-20.5 -51.5
q0 -30 20.5 -49.5t53.5 -19.5z" />
    <glyph glyph-name="uni215C" unicode="&#x215c;" horiz-adv-x="1767" 
d="M186 0l1080 1495h327l-1079 -1495h-328zM1432 -12q-134 0 -221 77t-87 209q0 107 80 187q-55 61 -55 153q0 124 78 193.5t205 69.5t205.5 -70t78.5 -193q0 -88 -51 -151q76 -76 76 -189q0 -132 -87.5 -209t-221.5 -77zM324 618q-93 0 -177.5 27.5t-138.5 81.5l178 160
q53 -56 123 -56q39 0 63.5 18.5t24.5 51.5q0 66 -116 66h-91v204h86q49 0 76 18.5t27 51.5q0 29 -22 45.5t-62 16.5q-32 0 -61 -15.5t-44 -40.5l-167 146q51 53 128 83.5t152 30.5q144 0 234 -70t90 -188q0 -100 -84 -168q104 -65 104 -186q0 -120 -88.5 -198.5
t-234.5 -78.5zM1432 188q39 0 64.5 24.5t25.5 61.5q0 36 -25.5 60t-64.5 24t-64 -24.5t-25 -59.5q0 -37 25 -61.5t64 -24.5zM1432 545q34 0 54.5 19.5t20.5 49.5q0 31 -19.5 51.5t-53.5 20.5q-35 0 -55.5 -20.5t-20.5 -51.5q0 -30 20.5 -49.5t53.5 -19.5z" />
    <glyph glyph-name="uni215D" unicode="&#x215d;" horiz-adv-x="1746" 
d="M166 0l1079 1495h328l-1079 -1495h-328zM1411 -12q-134 0 -220.5 77t-86.5 209q0 107 80 187q-56 62 -56 153q0 124 78 193.5t205 69.5t206 -70t79 -193q0 -88 -51 -151q75 -75 75 -189q0 -132 -87.5 -209t-221.5 -77zM319 618q-104 0 -186 42.5t-125 117.5l225 119
q25 -57 86 -57q37 0 59.5 22.5t22.5 59.5q0 35 -23.5 56t-62.5 21q-27 0 -51 -15.5t-33 -37.5l-213 74l66 475h496v-215h-316l-12 -86q43 16 98 16q129 0 207 -76.5t78 -211.5t-89.5 -219.5t-226.5 -84.5zM1411 188q39 0 64.5 24.5t25.5 61.5q0 36 -25.5 60t-64.5 24
t-63.5 -24.5t-24.5 -59.5q0 -37 24.5 -61.5t63.5 -24.5zM1411 545q35 0 55.5 19.5t20.5 49.5t-20 51t-54 21q-35 0 -55.5 -20.5t-20.5 -51.5q0 -30 20.5 -49.5t53.5 -19.5z" />
    <glyph glyph-name="uni215E" unicode="&#x215e;" horiz-adv-x="1699" 
d="M119 0l1079 1495h328l-1080 -1495h-327zM1364 -12q-134 0 -220.5 77t-86.5 209q0 107 80 187q-56 62 -56 153q0 124 78 193.5t205 69.5t206 -70t79 -193q0 -86 -52 -151q76 -76 76 -189q0 -132 -87.5 -209t-221.5 -77zM53 631l301 647h-327v217h573v-205l-295 -659h-252z
M1364 188q39 0 64.5 24.5t25.5 61.5q0 36 -25.5 60t-64.5 24t-63.5 -24.5t-24.5 -59.5q0 -37 24.5 -61.5t63.5 -24.5zM1364 545q35 0 55.5 19.5t20.5 49.5t-20 51t-54 21q-35 0 -55.5 -20.5t-20.5 -51.5q0 -30 20.5 -49.5t53.5 -19.5z" />
    <glyph glyph-name="uni215F" unicode="&#x215f;" horiz-adv-x="1597" 
d="M172 0l1079 1495h328l-1079 -1495h-328zM27 631v217h166v332q-42 -54 -130 -54h-12v224h6q54 0 88 24.5t45 55t11 65.5h227v-647h160v-217h-561z" />
    <glyph glyph-name="arrowleft" unicode="&#x2190;" horiz-adv-x="1835" 
d="M639 129q-77 164 -206.5 311t-280.5 242v119q98 66 194.5 172.5t161 211t86.5 181.5l254 -135q-73 -196 -260 -348h1059v-273h-1053q158 -107 274 -321z" />
    <glyph glyph-name="arrowup" unicode="&#x2191;" horiz-adv-x="1835" 
d="M764 0v1059q-153 -189 -348 -260l-135 254q77 22 181.5 86.5t211 161t172.5 194.5h108q98 -146 270 -277t294 -165l-136 -254q-196 71 -346 256v-1055h-272z" />
    <glyph glyph-name="arrowright" unicode="&#x2192;" horiz-adv-x="1835" 
d="M1159 129l-229 160q109 207 272 321h-1050v273h1058q-189 149 -260 348l254 135q34 -121 165 -293t278 -272v-119q-152 -95 -281.5 -242.5t-206.5 -310.5z" />
    <glyph glyph-name="arrowdown" unicode="&#x2193;" horiz-adv-x="1835" 
d="M844 0q-98 147 -270 277.5t-293 164.5l135 254q192 -72 346 -258v1057h272v-1059q152 187 348 260l136 -254q-77 -22 -181.5 -86.5t-211.5 -161t-173 -194.5h-108z" />
    <glyph glyph-name="uni2196" unicode="&#x2196;" horiz-adv-x="1835" 
d="M1350 123l-748 747q21 -244 -63 -428l-275 84q62 108 90.5 316t-2.5 397l76 76q187 -32 394.5 -4t316.5 90l84 -275q-183 -88 -426 -63l745 -748z" />
    <glyph glyph-name="uni2197" unicode="&#x2197;" horiz-adv-x="1835" 
d="M457 123l-193 192l748 748q-245 -25 -428 63l84 275q108 -62 315.5 -90.5t396.5 2.5l76 -76q-32 -187 -4 -394.5t90 -316.5l-274 -84q-89 184 -64 426z" />
    <glyph glyph-name="uni2198" unicode="&#x2198;" horiz-adv-x="1835" 
d="M1442 266q-187 32 -394.5 4t-316.5 -90l-84 275q183 84 426 63l-745 748l192 192l748 -747q-25 245 63 428l275 -84q-62 -108 -90.5 -316t2.5 -397z" />
    <glyph glyph-name="uni2199" unicode="&#x2199;" horiz-adv-x="1835" 
d="M1141 119q-108 62 -316 90.5t-397 -2.5l-76 76q32 187 4 394t-90 316l275 84q85 -184 63 -426l748 746l192 -193l-747 -747q243 21 428 -64z" />
    <glyph glyph-name="partialdiff" unicode="&#x2202;" horiz-adv-x="1148" 
d="M569 -20q-141 0 -261.5 68t-193.5 190.5t-73 271.5q0 222 143 366t357 144q101 0 176 -43q-85 114 -228.5 238t-367.5 280h418q158 -123 270.5 -250t175 -249.5t90 -236.5t27.5 -233q0 -152 -70.5 -277.5t-193 -197t-269.5 -71.5zM571 246q104 0 181 79t77 185
q0 111 -74 189.5t-182 78.5q-106 0 -182 -75.5t-76 -192.5q0 -113 75.5 -188.5t180.5 -75.5z" />
    <glyph glyph-name="increment" unicode="&#x2206;" horiz-adv-x="1837" 
d="M1796 0h-1755l879 1520zM918 977l-406 -705h811z" />
    <glyph glyph-name="product" unicode="&#x220f;" horiz-adv-x="1597" 
d="M74 1223v272h1450v-272h-248v-1223h-285v1223h-385v-1223h-284v1223h-248z" />
    <glyph glyph-name="summation" unicode="&#x2211;" horiz-adv-x="1153" 
d="M72 0v305l446 461l-432 457v272h995v-272h-630l432 -457l-477 -494h675v-272h-1009z" />
    <glyph glyph-name="minus" unicode="&#x2212;" horiz-adv-x="901" 
d="M72 627v239h757v-239h-757z" />
    <glyph glyph-name="radical" unicode="&#x221a;" horiz-adv-x="1615" 
d="M569 0l-299 776h-178v248h373l254 -684l526 1155h303l-702 -1495h-277z" />
    <glyph glyph-name="infinity" unicode="&#x221e;" horiz-adv-x="1822" 
d="M510 420q-152 0 -259.5 107t-107.5 259t107.5 259.5t259.5 107.5q110 0 205.5 -54.5t197.5 -150.5q99 96 195 150.5t205 54.5q152 0 259 -107.5t107 -259.5t-107 -259t-259 -107q-108 0 -202 53.5t-198 149.5q-49 -45 -90.5 -77.5t-93 -63t-106.5 -46.5t-113 -16z
M510 657q99 0 235 129q-136 129 -235 129q-52 0 -90.5 -38.5t-38.5 -90.5t38.5 -90.5t90.5 -38.5zM1313 657q53 0 91 38.5t38 90.5t-38 90.5t-91 38.5q-55 0 -110.5 -33t-123.5 -96q68 -63 123.5 -96t110.5 -33z" />
    <glyph glyph-name="integral" unicode="&#x222b;" horiz-adv-x="747" 
d="M33 -442v262q46 0 74.5 2t51.5 10t34.5 19t19.5 33.5t10 48t2 67.5v1051q0 251 97.5 347.5t353.5 96.5h22v-262q-46 0 -74.5 -2t-51.5 -10.5t-34.5 -19.5t-19.5 -33.5t-10 -49t-2 -69.5v-1047q0 -251 -97.5 -347.5t-353.5 -96.5h-22z" />
    <glyph glyph-name="approxequal" unicode="&#x2248;" horiz-adv-x="901" 
d="M72 784v240q54 27 97.5 40t100.5 13q64 0 188 -39t175 -39q38 0 73 7.5t56.5 16t66.5 28.5v-240q-46 -27 -89 -39t-107 -12q-59 0 -185.5 39t-177.5 39q-39 0 -76 -8.5t-60.5 -18t-61.5 -27.5zM72 442v240q41 20 59.5 28.5t56 17.5t76.5 9q64 0 193 -37.5t180 -37.5
q56 0 94.5 10.5t97.5 36.5v-240q-45 -26 -86 -36.5t-106 -10.5q-59 0 -190.5 38t-182.5 38q-13 0 -25.5 -0.5t-25.5 -3t-21.5 -4t-22 -6.5t-19 -6.5t-20.5 -8t-18.5 -8.5t-20 -10t-19.5 -9z" />
    <glyph glyph-name="notequal" unicode="&#x2260;" horiz-adv-x="901" 
d="M743 1178l-65 -144h151v-239h-258l-45 -103h303v-239h-409l-64 -144h-198l61 144h-147v239h252l43 103h-295v239h399l64 144h208z" />
    <glyph glyph-name="equivalence" unicode="&#x2261;" horiz-adv-x="901" 
d="M72 623v239h757v-239h-757zM72 281v239h757v-239h-757zM72 965v239h757v-239h-757z" />
    <glyph glyph-name="lessequal" unicode="&#x2264;" horiz-adv-x="901" 
d="M827 532l-757 275v240l757 272v-248l-450 -145l450 -146v-248zM70 229v240h757v-240h-757z" />
    <glyph glyph-name="greaterequal" unicode="&#x2265;" horiz-adv-x="901" 
d="M70 532v248l450 146l-450 145v248l757 -272v-240zM70 229v240h757v-240h-757z" />
    <glyph glyph-name="squaremultiply" unicode="&#x22a0;" horiz-adv-x="1896" 
d="M205 0v1495h1487v-1495h-1487zM489 1223v-951h918v951h-918zM698 330l-168 164l250 258l-252 262l168 164l248 -256l252 258l168 -164l-256 -264l254 -260l-168 -164l-250 256z" />
    <glyph glyph-name="house" unicode="&#x2302;" horiz-adv-x="1789" 
d="M1585 0h-1380v874l690 662l690 -662v-874z" />
    <glyph glyph-name="blacksquare" unicode="&#x25a0;" horiz-adv-x="1896" 
d="M205 0v1495h1487v-1495h-1487z" />
    <glyph glyph-name="blacksquare" unicode="&#xe740;" horiz-adv-x="1896" 
d="M205 0v1495h1487v-1495h-1487z" />
    <glyph glyph-name="whitesquare" unicode="&#x25a1;" horiz-adv-x="1896" 
d="M205 0v1495h1487v-1495h-1487zM489 1223v-951h918v951h-918z" />
    <glyph glyph-name="blacksmallsquare" unicode="&#x25aa;" horiz-adv-x="1433" 
d="M205 0v1024h1024v-1024h-1024z" />
    <glyph glyph-name="whitesmallsquare" unicode="&#x25ab;" horiz-adv-x="1433" 
d="M205 0v1024h1024v-1024h-1024zM485 745v-466h463v466h-463z" />
    <glyph glyph-name="triagup" unicode="&#x25b2;" horiz-adv-x="1837" 
d="M1796 0h-1755l879 1520z" />
    <glyph glyph-name="triagrt" unicode="&#x25ba;" horiz-adv-x="1837" 
d="M205 -117v1755l1519 -876z" />
    <glyph glyph-name="triagdn" unicode="&#x25bc;" horiz-adv-x="1837" 
d="M41 1495h1755l-876 -1520z" />
    <glyph glyph-name="triaglf" unicode="&#x25c4;" horiz-adv-x="1837" 
d="M1632 1638v-1755l-1519 879z" />
    <glyph glyph-name="lozenge" unicode="&#x25ca;" horiz-adv-x="1726" 
d="M850 -33l-782 783l778 778l782 -783zM434 752l418 -418l408 407l-418 418z" />
    <glyph glyph-name="whitecircle" unicode="&#x25cb;" horiz-adv-x="1898" 
d="M948 -20q-209 0 -384.5 102.5t-277.5 279t-102 386.5q0 209 102 385.5t278 279.5t384 103q209 0 385.5 -103t278.5 -279.5t102 -385.5q0 -157 -60 -299.5t-162.5 -245t-244.5 -163t-299 -60.5zM948 260q99 0 188.5 39t154.5 104.5t103 155.5t38 189q0 132 -64.5 244
t-176 177.5t-243.5 65.5t-242.5 -65.5t-174.5 -177.5t-64 -244t64 -244.5t174.5 -178t242.5 -65.5z" />
    <glyph glyph-name="whitecircle" unicode="&#x25ef;" horiz-adv-x="1898" 
d="M948 -20q-209 0 -384.5 102.5t-277.5 279t-102 386.5q0 209 102 385.5t278 279.5t384 103q209 0 385.5 -103t278.5 -279.5t102 -385.5q0 -157 -60 -299.5t-162.5 -245t-244.5 -163t-299 -60.5zM948 260q99 0 188.5 39t154.5 104.5t103 155.5t38 189q0 132 -64.5 244
t-176 177.5t-243.5 65.5t-242.5 -65.5t-174.5 -177.5t-64 -244t64 -244.5t174.5 -178t242.5 -65.5z" />
    <glyph glyph-name="bullseye" unicode="&#x25ce;" horiz-adv-x="1898" 
d="M948 -20q-209 0 -384.5 102.5t-277.5 279t-102 386.5q0 209 102 385.5t278 279.5t384 103q209 0 385.5 -103t278.5 -279.5t102 -385.5q0 -157 -60 -299.5t-162.5 -245t-244.5 -163t-299 -60.5zM948 260q99 0 188.5 39t154.5 104.5t103 155.5t38 189q0 132 -64.5 244
t-176 177.5t-243.5 65.5t-242.5 -65.5t-174.5 -177.5t-64 -244t64 -244.5t174.5 -178t242.5 -65.5zM948 512q-96 0 -164.5 69.5t-68.5 166.5t68 166t165 69t165.5 -69t68.5 -166t-68.5 -166.5t-165.5 -69.5z" />
    <glyph glyph-name="blackcircle" unicode="&#x25cf;" horiz-adv-x="1898" 
d="M948 -20q-209 0 -384.5 102.5t-277.5 279t-102 386.5q0 209 102 385.5t278 279.5t384 103q209 0 385.5 -103t278.5 -279.5t102 -385.5q0 -157 -60 -299.5t-162.5 -245t-244.5 -163t-299 -60.5z" />
    <glyph glyph-name="uni25E2" unicode="&#x25e2;" horiz-adv-x="1837" 
d="M1788 1092l-1241 -1242l-455 1696z" />
    <glyph glyph-name="uni25E3" unicode="&#x25e3;" horiz-adv-x="1837" 
d="M1294 -150l-1241 1242l1696 454z" />
    <glyph glyph-name="uni25E4" unicode="&#x25e4;" horiz-adv-x="1837" 
d="M1755 -111l-1696 455l1241 1241z" />
    <glyph glyph-name="uni25E5" unicode="&#x25e5;" horiz-adv-x="1837" 
d="M1786 334l-1696 -453l457 1696z" />
    <glyph glyph-name="uni2605" unicode="&#x2605;" horiz-adv-x="1843" 
d="M1151 621l147 -447l-383 277l-380 -277l147 449l-381 276l469 -2l148 446l145 -446l471 -2z" />
    <glyph glyph-name="ballotboxwithx" unicode="&#x2612;" horiz-adv-x="1433" 
d="M205 0v1024h1024v-1024h-1024zM451 780v-536h532v536h-532zM608 754l109 -109l110 113l136 -135l-111 -113l109 -109l-136 -135l-108 107l-107 -109l-135 135l107 109l-109 110z" />
    <glyph glyph-name="uni263C" unicode="&#x263c;" horiz-adv-x="1900" 
d="M588 748q0 146 105 251t251 105t251 -105t105 -251t-105 -251.5t-251 -105.5t-251 105.5t-105 251.5zM924 1182l-35 291h110l-34 -291h-41zM965 317l34 -290h-110l35 290h41zM512 729l-291 -35v111l291 -35v-41zM1376 770l291 35v-111l-291 35v41zM559 950l-272 113
l57 96l236 -178zM1329 549l273 -113l-58 -96l-235 178zM713 1114l-178 236l96 57l112 -272zM1176 385l178 -235l-97 -58l-112 273zM1145 1135l112 272l97 -57l-178 -236zM743 365l-112 -273l-96 58l178 235zM1309 983l231 176l62 -94l-273 -115zM580 516l-232 -176l-61 94
l272 115z" />
    <glyph glyph-name="uni263E" unicode="&#x263e;" horiz-adv-x="1611" 
d="M1094 1262q-202 0 -346 -151t-144 -363t144 -363.5t346 -151.5q61 0 145 25q-164 -117 -365 -117q-123 0 -235 48t-193.5 129.5t-129.5 194t-48 235.5t48 235t129.5 193.5t193.5 129.5t235 48q201 0 365 -117q-98 25 -145 25z" />
    <glyph glyph-name="spade" unicode="&#x2660;" horiz-adv-x="1884" 
d="M1217 0h-531q85 161 120 250q73 188 73 344q-43 -120 -131 -199.5t-218 -79.5q-143 0 -246.5 96t-103.5 228q0 88 26 163.5t89.5 155.5t147 156.5t219.5 185.5l286 230h2l287 -230q178 -142 274 -241.5t144.5 -200.5t48.5 -219q0 -132 -95 -227t-227 -95
q-140 0 -233.5 78.5t-136.5 198.5q0 -59 12.5 -125t27 -114t43.5 -114t43 -94t46 -86.5t33 -60.5z" />
    <glyph glyph-name="club" unicode="&#x2663;" horiz-adv-x="1884" 
d="M1219 0h-531q91 170 129 276q44 123 57 232q-44 -109 -135 -175.5t-207 -66.5q-151 0 -256.5 106t-105.5 257t105.5 256.5t256.5 105.5q39 0 86 -14q-38 81 -38 178q0 150 104.5 255.5t253.5 105.5t254.5 -106t105.5 -255q0 -96 -38 -180q46 16 94 16q151 0 255.5 -105.5
t104.5 -256.5t-105.5 -257t-256.5 -106q-115 0 -203 66t-131 174q7 -51 22.5 -107t31 -98.5t40 -95t39 -80t39 -72.5t29.5 -53z" />
    <glyph glyph-name="heart" unicode="&#x2665;" horiz-adv-x="1884" 
d="M182 1126q0 160 109 275t266 115q154 0 257.5 -93.5t121.5 -236.5q19 144 122 237t257 93q158 0 272.5 -115.5t114.5 -274.5q0 -174 -108 -362t-367 -477l-291 -322l-289 322q-255 285 -360 473.5t-105 365.5z" />
    <glyph glyph-name="diamond" unicode="&#x2666;" horiz-adv-x="1884" 
d="M272 799l670 821l670 -821l-670 -819z" />
    <glyph glyph-name="uni267B" unicode="&#x267b;" horiz-adv-x="1886" 
d="M1681 504l2 -4l-186 -322q-20 -30 -30 -43t-30 -31t-46 -25t-62 -7h-110v-97l-218 263l218 260v-95h278q32 0 63 10.5t52 25.5t37 29.5t24 25.5zM377 227h-4l-185 324q-16 29 -23 45.5t-12 42.5t2 52t25 57l56 94l-82 47l335 59l113 -319l-78 47q-135 -232 -139 -242
q-25 -44 -27 -95.5t8 -81.5zM797 1491v2h372q35 -1 52.5 -3t43 -10t44.5 -27t37 -50l53 -94l84 47l-119 -322l-332 62l78 45l-137 241q-26 44 -70 71.5t-75 32.5zM403 1143l129 229q24 38 66 60q60 33 124.5 29.5t118.5 -31.5t74 -66l-223 -387zM879 72h-261q-47 0 -86 24
q-42 24 -71 66t-39.5 86t-8 86t18.5 69h447v-331zM1571 1006l133 -226q18 -29 18 -84q1 -93 -73.5 -167t-141.5 -74l-223 387z" />
    <glyph glyph-name="uni267C" unicode="&#x267c;" horiz-adv-x="1886" 
d="M1714 750q0 -209 -103 -386t-279.5 -279.5t-385.5 -102.5q-158 0 -301 60.5t-246 163t-164 245t-61 299.5t61 300t164 246.5t246 164.5t301 61q209 0 385.5 -103.5t279.5 -281t103 -387.5zM623 1241l-101 -176l223 -129l173 299q-16 29 -58 50.5t-92 24t-96 -21.5
q-39 -24 -49 -47zM817 1335v-2q4 0 10.5 -1t25 -6.5t35 -14t35.5 -25t31 -37.5l109 -186l-62 -37l259 -47l90 250l-64 -37l-43 74q-27 45 -56.5 57t-80.5 12h-289zM680 233h203v259h-348q-12 -21 -14 -54t7 -67.5t31.5 -67t54.5 -51.5q36 -19 66 -19zM498 354h2
q-4 9 -9 25.5t-4.5 59t19.5 77.5l108 186l62 -36l-88 247l-260 -45l63 -37l-43 -73q-19 -32 -21 -61.5t4 -44t23 -48.5zM1528 784l-101 174l-225 -129l174 -301q52 0 110.5 59t57.5 132q0 37 -16 65zM1513 565l-2 2q-2 -3 -6 -8t-18 -18t-29.5 -23t-40 -18t-49.5 -8h-215v71
l-170 -201l170 -202v73h84q38 0 64.5 12.5t38 27t28.5 42.5z" />
    <glyph glyph-name="uni267D" unicode="&#x267d;" horiz-adv-x="1886" 
d="M1714 750q0 -209 -103 -386t-279.5 -279.5t-385.5 -102.5q-158 0 -301 60.5t-246 163t-164 245t-61 299.5t61 300t164 246.5t246 164.5t301 61q209 0 385.5 -103.5t279.5 -281t103 -387.5zM1675 750q0 200 -97.5 368.5t-265.5 266.5t-366 98q-201 0 -370 -98t-267 -266.5
t-98 -368.5q0 -150 58 -285.5t156 -233.5t234.5 -155.5t286.5 -57.5q149 0 283.5 57.5t232.5 155.5t155.5 233.5t57.5 285.5zM522 1065l101 176q10 23 49 47q46 24 96 21.5t92 -24t58 -50.5l-173 -299zM817 1333v2h289q51 0 80.5 -12t56.5 -57l43 -74l64 37l-90 -250
l-259 47l62 37l-109 186q-19 34 -53.5 55t-58.5 25zM883 233h-203q-30 0 -66 19q-32 19 -54.5 51.5t-31.5 67t-7 67.5t14 54h348v-259zM500 354h-2l-144 250q-17 34 -23 48.5t-4 44t21 61.5l43 73l-63 37l260 45l88 -247l-62 36l-108 -186q-19 -35 -20.5 -75.5t6.5 -63.5z
M1427 958l101 -174q16 -28 16 -65q1 -73 -57.5 -132t-110.5 -59l-174 301zM1511 567l2 -2l-145 -250q-17 -28 -28.5 -42.5t-38 -27t-64.5 -12.5h-84v-73l-170 202l170 201v-71h215q40 0 76 19t52 37z" />
    <glyph glyph-name="mediumwhitecircle" unicode="&#x26aa;" horiz-adv-x="1429" 
d="M715 -20q-145 0 -267.5 71t-193 193.5t-70.5 267.5t70.5 267.5t193 193.5t267.5 71t267 -71t192.5 -193.5t70.5 -267.5t-70.5 -267.5t-192.5 -193.5t-267 -71zM715 246q107 0 182.5 78.5t75.5 187.5t-75.5 187.5t-182.5 78.5q-108 0 -182 -78t-74 -188t74 -188t182 -78z
" />
    <glyph glyph-name="mediumblackcircle" unicode="&#x26ab;" horiz-adv-x="1429" 
d="M715 -20q-145 0 -267.5 71t-193 193.5t-70.5 267.5t70.5 267.5t193 193.5t267.5 71t267 -71t192.5 -193.5t70.5 -267.5t-70.5 -267.5t-192.5 -193.5t-267 -71z" />
    <glyph glyph-name="anglebracketleft" unicode="&#x3008;" horiz-adv-x="804" 
d="M485 -471l-465 983l465 983h301l-467 -983l467 -983h-301z" />
    <glyph glyph-name="anglebracketright" unicode="&#x3009;" horiz-adv-x="804" 
d="M322 -471h-302l467 983l-467 983h302l464 -983z" />
    <glyph glyph-name="cordinal" unicode="&#xe181;" horiz-adv-x="655" 
d="M344 891q-128 0 -217.5 89.5t-89.5 217.5q0 129 89.5 219t217.5 90q99 0 174.5 -51t110.5 -135l-180 -80q-12 33 -40 52.5t-63 19.5q-46 0 -78 -34t-32 -81q0 -46 32.5 -79.5t77.5 -33.5q35 0 63 19.5t40 50.5l180 -78q-35 -84 -110.5 -135t-174.5 -51z" />
    <glyph glyph-name="p.smcp" unicode="&#xe200;" horiz-adv-x="991" 
d="M72 0v1221h415q206 0 334.5 -128.5t128.5 -316.5t-129 -319t-336 -131h-133v-326h-280zM477 963h-125v-377h125q82 0 136.5 52.5t54.5 135.5t-54.5 136t-136.5 53z" />
    <glyph glyph-name="p.smcp" unicode="&#xf770;" horiz-adv-x="991" 
d="M72 0v1221h415q206 0 334.5 -128.5t128.5 -316.5t-129 -319t-336 -131h-133v-326h-280zM477 963h-125v-377h125q82 0 136.5 52.5t54.5 135.5t-54.5 136t-136.5 53z" />
    <glyph glyph-name="a.smcp" unicode="&#xe201;" horiz-adv-x="1189" 
d="M39 0l420 1221h272l420 -1221h-285l-61 186h-422l-61 -186h-283zM594 819l-125 -377h250z" />
    <glyph glyph-name="a.smcp" unicode="&#xf761;" horiz-adv-x="1189" 
d="M39 0l420 1221h272l420 -1221h-285l-61 186h-422l-61 -186h-283zM594 819l-125 -377h250z" />
    <glyph glyph-name="b.smcp" unicode="&#xe202;" horiz-adv-x="997" 
d="M72 0v1221h405q219 0 331 -87.5t112 -259.5q0 -156 -121 -235q157 -82 157 -270q1 -185 -119.5 -277t-342.5 -92h-422zM494 496h-142v-246h146q174 0 174 127q0 62 -39.5 90.5t-138.5 28.5zM487 971h-135v-219h135q154 0 154 114q0 54 -36.5 79.5t-117.5 25.5z" />
    <glyph glyph-name="b.smcp" unicode="&#xf762;" horiz-adv-x="997" 
d="M72 0v1221h405q219 0 331 -87.5t112 -259.5q0 -156 -121 -235q157 -82 157 -270q1 -185 -119.5 -277t-342.5 -92h-422zM494 496h-142v-246h146q174 0 174 127q0 62 -39.5 90.5t-138.5 28.5zM487 971h-135v-219h135q154 0 154 114q0 54 -36.5 79.5t-117.5 25.5z" />
    <glyph glyph-name="c.smcp" unicode="&#xe203;" horiz-adv-x="1271" 
d="M686 -16q-182 0 -327.5 84t-224.5 226.5t-79 315.5q0 175 80.5 318.5t226 226t326.5 82.5q169 0 313.5 -82t225.5 -219l-242 -152q-42 81 -121.5 130t-177.5 49q-151 0 -248.5 -102.5t-97.5 -250.5q0 -147 96 -248.5t244 -101.5q105 0 183.5 54t119.5 147l260 -131
q-81 -159 -225 -252.5t-332 -93.5z" />
    <glyph glyph-name="c.smcp" unicode="&#xf763;" horiz-adv-x="1271" 
d="M686 -16q-182 0 -327.5 84t-224.5 226.5t-79 315.5q0 175 80.5 318.5t226 226t326.5 82.5q169 0 313.5 -82t225.5 -219l-242 -152q-42 81 -121.5 130t-177.5 49q-151 0 -248.5 -102.5t-97.5 -250.5q0 -147 96 -248.5t244 -101.5q105 0 183.5 54t119.5 147l260 -131
q-81 -159 -225 -252.5t-332 -93.5z" />
    <glyph glyph-name="d.smcp" unicode="&#xe204;" horiz-adv-x="1122" 
d="M72 0v1221h358q142 0 262 -47t202 -128.5t127.5 -194t45.5 -241.5q0 -172 -81 -311.5t-225.5 -219t-324.5 -79.5h-364zM414 961h-64v-701h72q163 0 263.5 99.5t100.5 250.5q0 155 -97.5 253t-274.5 98z" />
    <glyph glyph-name="d.smcp" unicode="&#xf764;" horiz-adv-x="1122" 
d="M72 0v1221h358q142 0 262 -47t202 -128.5t127.5 -194t45.5 -241.5q0 -172 -81 -311.5t-225.5 -219t-324.5 -79.5h-364zM414 961h-64v-701h72q163 0 263.5 99.5t100.5 250.5q0 155 -97.5 253t-274.5 98z" />
    <glyph glyph-name="e.smcp" unicode="&#xe205;" horiz-adv-x="860" 
d="M72 0v1221h723v-263h-445v-215h445v-262h-445v-219h445v-262h-723z" />
    <glyph glyph-name="e.smcp" unicode="&#xf765;" horiz-adv-x="860" 
d="M72 0v1221h723v-263h-445v-215h445v-262h-445v-219h445v-262h-723z" />
    <glyph glyph-name="f.smcp" unicode="&#xe206;" horiz-adv-x="829" 
d="M72 0v1221h696v-263h-418v-215h418v-262h-418v-481h-278z" />
    <glyph glyph-name="f.smcp" unicode="&#xf766;" horiz-adv-x="829" 
d="M72 0v1221h696v-263h-418v-215h418v-262h-418v-481h-278z" />
    <glyph glyph-name="g.smcp" unicode="&#xe207;" horiz-adv-x="1316" 
d="M680 -16q-144 0 -265.5 50.5t-202.5 136t-126 199t-45 240.5q0 175 79.5 318t223.5 226t324 83q186 0 330 -83t225 -222l-246 -139q-44 85 -123.5 130.5t-183.5 45.5q-147 0 -249 -103t-102 -256q0 -158 100 -259t257 -101q108 0 185 53.5t108 149.5h-348v262h651v-129
q0 -122 -43 -231.5t-119 -191.5t-188 -130.5t-242 -48.5z" />
    <glyph glyph-name="g.smcp" unicode="&#xf767;" horiz-adv-x="1316" 
d="M680 -16q-144 0 -265.5 50.5t-202.5 136t-126 199t-45 240.5q0 175 79.5 318t223.5 226t324 83q186 0 330 -83t225 -222l-246 -139q-44 85 -123.5 130.5t-183.5 45.5q-147 0 -249 -103t-102 -256q0 -158 100 -259t257 -101q108 0 185 53.5t108 149.5h-348v262h651v-129
q0 -122 -43 -231.5t-119 -191.5t-188 -130.5t-242 -48.5z" />
    <glyph glyph-name="h.smcp" unicode="&#xe208;" horiz-adv-x="1075" 
d="M723 0v475h-371v-475h-280v1221h280v-469h371v469h281v-1221h-281z" />
    <glyph glyph-name="h.smcp" unicode="&#xf768;" horiz-adv-x="1075" 
d="M723 0v475h-371v-475h-280v1221h280v-469h371v469h281v-1221h-281z" />
    <glyph glyph-name="i.smcp" unicode="&#xe209;" horiz-adv-x="446" 
d="M82 0v1221h283v-1221h-283z" />
    <glyph glyph-name="i.smcp" unicode="&#xf769;" horiz-adv-x="446" 
d="M82 0v1221h283v-1221h-283z" />
    <glyph glyph-name="j.smcp" unicode="&#xe20a;" horiz-adv-x="890" 
d="M432 -16q-152 0 -255.5 72.5t-139.5 197.5l268 104q26 -116 125 -116q52 0 79.5 34.5t27.5 90.5v854h282v-836q0 -190 -98 -295.5t-289 -105.5z" />
    <glyph glyph-name="j.smcp" unicode="&#xf76a;" horiz-adv-x="890" 
d="M432 -16q-152 0 -255.5 72.5t-139.5 197.5l268 104q26 -116 125 -116q52 0 79.5 34.5t27.5 90.5v854h282v-836q0 -190 -98 -295.5t-289 -105.5z" />
    <glyph glyph-name="k.smcp" unicode="&#xe20b;" horiz-adv-x="1071" 
d="M739 0l-282 535l-105 -142v-393h-280v1221h280v-453l342 453h332l-369 -482l398 -739h-316z" />
    <glyph glyph-name="k.smcp" unicode="&#xf76b;" horiz-adv-x="1071" 
d="M739 0l-282 535l-105 -142v-393h-280v1221h280v-453l342 453h332l-369 -482l398 -739h-316z" />
    <glyph glyph-name="l.smcp" unicode="&#xe20c;" horiz-adv-x="813" 
d="M72 0v1221h280v-953h406v-268h-686z" />
    <glyph glyph-name="l.smcp" unicode="&#xf76c;" horiz-adv-x="813" 
d="M72 0v1221h280v-953h406v-268h-686z" />
    <glyph glyph-name="m.smcp" unicode="&#xe20d;" horiz-adv-x="1339" 
d="M72 0v1221h280l320 -445l332 445h266v-1221h-281v768l-319 -428l-320 432v-772h-278z" />
    <glyph glyph-name="m.smcp" unicode="&#xf76d;" horiz-adv-x="1339" 
d="M72 0v1221h280l320 -445l332 445h266v-1221h-281v768l-319 -428l-320 432v-772h-278z" />
    <glyph glyph-name="n.smcp" unicode="&#xe20e;" horiz-adv-x="1179" 
d="M72 0v1221h303l454 -721v721h279v-1221h-281l-477 754v-754h-278z" />
    <glyph glyph-name="n.smcp" unicode="&#xf76e;" horiz-adv-x="1179" 
d="M72 0v1221h303l454 -721v721h279v-1221h-281l-477 754v-754h-278z" />
    <glyph glyph-name="o.smcp" unicode="&#xe20f;" horiz-adv-x="1331" 
d="M664 -16q-171 0 -314.5 83.5t-226 227.5t-82.5 315t82.5 315t226 228t314.5 84t315 -84t227.5 -228.5t83.5 -314.5q0 -171 -83 -315t-227 -227.5t-316 -83.5zM664 260q148 0 246 102t98 248t-99 248.5t-245 102.5q-144 0 -242 -102.5t-98 -248.5t97.5 -248t242.5 -102z
" />
    <glyph glyph-name="o.smcp" unicode="&#xf76f;" horiz-adv-x="1331" 
d="M664 -16q-171 0 -314.5 83.5t-226 227.5t-82.5 315t82.5 315t226 228t314.5 84t315 -84t227.5 -228.5t83.5 -314.5q0 -171 -83 -315t-227 -227.5t-316 -83.5zM664 260q148 0 246 102t98 248t-99 248.5t-245 102.5q-144 0 -242 -102.5t-98 -248.5t97.5 -248t242.5 -102z
" />
    <glyph glyph-name="q.smcp" unicode="&#xe211;" horiz-adv-x="1359" 
d="M678 -16q-171 0 -314.5 83.5t-226 227.5t-82.5 315t82.5 315t226 228t314.5 84t315.5 -84t228 -228.5t83.5 -314.5q0 -220 -140 -397l166 -213h-305l-459 604h297l119 -155q39 76 39 161q0 146 -99 248.5t-245 102.5q-144 0 -242 -102.5t-98 -248.5t97.5 -248t242.5 -102
q46 0 80 6l174 -229q-109 -53 -254 -53z" />
    <glyph glyph-name="q.smcp" unicode="&#xf771;" horiz-adv-x="1359" 
d="M678 -16q-171 0 -314.5 83.5t-226 227.5t-82.5 315t82.5 315t226 228t314.5 84t315.5 -84t228 -228.5t83.5 -314.5q0 -220 -140 -397l166 -213h-305l-459 604h297l119 -155q39 76 39 161q0 146 -99 248.5t-245 102.5q-144 0 -242 -102.5t-98 -248.5t97.5 -248t242.5 -102
q46 0 80 6l174 -229q-109 -53 -254 -53z" />
    <glyph glyph-name="r.smcp" unicode="&#xe212;" horiz-adv-x="999" 
d="M72 0v1221h426q107 0 195 -33t145.5 -90t88.5 -133t31 -162q0 -119 -59 -214t-170 -145l264 -444h-317l-326 582v-582h-278zM477 963h-127v-336h127q93 0 143 51t50 121q0 164 -193 164z" />
    <glyph glyph-name="r.smcp" unicode="&#xf772;" horiz-adv-x="999" 
d="M72 0v1221h426q107 0 195 -33t145.5 -90t88.5 -133t31 -162q0 -119 -59 -214t-170 -145l264 -444h-317l-326 582v-582h-278zM477 963h-127v-336h127q93 0 143 51t50 121q0 164 -193 164z" />
    <glyph glyph-name="s.smcp" unicode="&#xe213;" horiz-adv-x="999" 
d="M500 -16q-165 0 -280.5 59t-205.5 162l246 192q42 -71 106 -111t134 -40q69 0 111 36.5t42 88.5q0 35 -32.5 61.5t-64 38.5t-105.5 34q-19 6 -29 9q-59 16 -100 30.5t-92 43.5t-82.5 64t-53.5 90.5t-22 125.5q0 160 118 265.5t302 105.5q148 0 249 -50.5t183 -139.5
l-226 -175q-76 119 -204 119q-63 0 -100.5 -30.5t-37.5 -77.5q0 -34 32 -60.5t64 -39t106 -35.5q19 -6 28 -9q60 -18 101.5 -33.5t94 -46t85 -66t55 -92t22.5 -126.5q0 -77 -30 -147.5t-85 -125.5t-140.5 -87.5t-188.5 -32.5z" />
    <glyph glyph-name="s.smcp" unicode="&#xf773;" horiz-adv-x="999" 
d="M500 -16q-165 0 -280.5 59t-205.5 162l246 192q42 -71 106 -111t134 -40q69 0 111 36.5t42 88.5q0 35 -32.5 61.5t-64 38.5t-105.5 34q-19 6 -29 9q-59 16 -100 30.5t-92 43.5t-82.5 64t-53.5 90.5t-22 125.5q0 160 118 265.5t302 105.5q148 0 249 -50.5t183 -139.5
l-226 -175q-76 119 -204 119q-63 0 -100.5 -30.5t-37.5 -77.5q0 -34 32 -60.5t64 -39t106 -35.5q19 -6 28 -9q60 -18 101.5 -33.5t94 -46t85 -66t55 -92t22.5 -126.5q0 -77 -30 -147.5t-85 -125.5t-140.5 -87.5t-188.5 -32.5z" />
    <glyph glyph-name="t.smcp" unicode="&#xe214;" horiz-adv-x="1009" 
d="M371 0v958h-310v263h887v-263h-305v-958h-272z" />
    <glyph glyph-name="t.smcp" unicode="&#xf774;" horiz-adv-x="1009" 
d="M371 0v958h-310v263h887v-263h-305v-958h-272z" />
    <glyph glyph-name="u.smcp" unicode="&#xe215;" horiz-adv-x="1060" 
d="M530 -16q-211 0 -334.5 120t-123.5 338v779h280v-787q0 -87 49 -140.5t127 -53.5q80 0 130.5 53.5t50.5 140.5v787h280v-779q0 -218 -124 -338t-335 -120z" />
    <glyph glyph-name="u.smcp" unicode="&#xf775;" horiz-adv-x="1060" 
d="M530 -16q-211 0 -334.5 120t-123.5 338v779h280v-787q0 -87 49 -140.5t127 -53.5q80 0 130.5 53.5t50.5 140.5v787h280v-779q0 -218 -124 -338t-335 -120z" />
    <glyph glyph-name="v.smcp" unicode="&#xe216;" horiz-adv-x="1148" 
d="M432 0l-395 1221h291l250 -783l243 783h289l-387 -1221h-291z" />
    <glyph glyph-name="v.smcp" unicode="&#xf776;" horiz-adv-x="1148" 
d="M432 0l-395 1221h291l250 -783l243 783h289l-387 -1221h-291z" />
    <glyph glyph-name="w.smcp" unicode="&#xe217;" horiz-adv-x="1738" 
d="M375 0l-338 1221h285l196 -762l217 762h279l215 -764l196 764h281l-338 -1221h-276l-218 776l-217 -776h-282z" />
    <glyph glyph-name="w.smcp" unicode="&#xf777;" horiz-adv-x="1738" 
d="M375 0l-338 1221h285l196 -762l217 762h279l215 -764l196 764h281l-338 -1221h-276l-218 776l-217 -776h-282z" />
    <glyph glyph-name="x.smcp" unicode="&#xe218;" horiz-adv-x="1101" 
d="M770 0l-219 373l-217 -373h-307l368 621l-354 600h307l207 -355l205 355h307l-358 -600l368 -621h-307z" />
    <glyph glyph-name="x.smcp" unicode="&#xf778;" horiz-adv-x="1101" 
d="M770 0l-219 373l-217 -373h-307l368 621l-354 600h307l207 -355l205 355h307l-358 -600l368 -621h-307z" />
    <glyph glyph-name="y.smcp" unicode="&#xe219;" horiz-adv-x="1101" 
d="M412 0v573l-381 648h305l219 -377l219 377h303l-383 -650v-571h-282z" />
    <glyph glyph-name="y.smcp" unicode="&#xf779;" horiz-adv-x="1101" 
d="M412 0v573l-381 648h305l219 -377l219 377h303l-383 -650v-571h-282z" />
    <glyph glyph-name="z.smcp" unicode="&#xe21a;" horiz-adv-x="929" 
d="M61 0v258l480 703h-469v260h796v-252l-485 -709h485v-260h-807z" />
    <glyph glyph-name="z.smcp" unicode="&#xf77a;" horiz-adv-x="929" 
d="M61 0v258l480 703h-469v260h796v-252l-485 -709h485v-260h-807z" />
    <glyph glyph-name="anocross.smcp" unicode="&#xe220;" horiz-adv-x="1189" 
d="M39 0l420 1221h272l420 -1221h-285l-272 819l-272 -819h-283z" />
    <glyph glyph-name="aacute.smcp" unicode="&#xe221;" horiz-adv-x="1189" 
d="M39 0l420 1221h272l420 -1221h-285l-61 186h-422l-61 -186h-283zM502 1323l233 348h262l-307 -348h-188zM594 819l-125 -377h250z" />
    <glyph glyph-name="aacute.smcp" unicode="&#xf7e1;" horiz-adv-x="1189" 
d="M39 0l420 1221h272l420 -1221h-285l-61 186h-422l-61 -186h-283zM502 1323l233 348h262l-307 -348h-188zM594 819l-125 -377h250z" />
    <glyph glyph-name="agrave.smcp" unicode="&#xe222;" horiz-adv-x="1189" 
d="M39 0l420 1221h272l420 -1221h-285l-61 186h-422l-61 -186h-283zM508 1323l-307 348h262l233 -348h-188zM594 819l-125 -377h250z" />
    <glyph glyph-name="agrave.smcp" unicode="&#xf7e0;" horiz-adv-x="1189" 
d="M39 0l420 1221h272l420 -1221h-285l-61 186h-422l-61 -186h-283zM508 1323l-307 348h262l233 -348h-188zM594 819l-125 -377h250z" />
    <glyph glyph-name="acircumflex.smcp" unicode="&#xe223;" horiz-adv-x="1189" 
d="M39 0l420 1221h272l420 -1221h-285l-61 186h-422l-61 -186h-283zM264 1323l244 348h174l244 -348h-211l-121 180l-119 -180h-211zM594 819l-125 -377h250z" />
    <glyph glyph-name="acircumflex.smcp" unicode="&#xf7e2;" horiz-adv-x="1189" 
d="M39 0l420 1221h272l420 -1221h-285l-61 186h-422l-61 -186h-283zM264 1323l244 348h174l244 -348h-211l-121 180l-119 -180h-211zM594 819l-125 -377h250z" />
    <glyph glyph-name="adieresis.smcp" unicode="&#xe224;" horiz-adv-x="1189" 
d="M39 0l420 1221h272l420 -1221h-285l-61 186h-422l-61 -186h-283zM647 1323v281h281v-281h-281zM264 1323v281h281v-281h-281zM594 819l-125 -377h250z" />
    <glyph glyph-name="adieresis.smcp" unicode="&#xf7e4;" horiz-adv-x="1189" 
d="M39 0l420 1221h272l420 -1221h-285l-61 186h-422l-61 -186h-283zM647 1323v281h281v-281h-281zM264 1323v281h281v-281h-281zM594 819l-125 -377h250z" />
    <glyph glyph-name="atilde.smcp" unicode="&#xe225;" horiz-adv-x="1189" 
d="M39 0l420 1221h272l420 -1221h-285l-61 186h-422l-61 -186h-283zM244 1323q0 126 57.5 201t157.5 75q75 0 155 -49q4 -2 14.5 -9t14 -9.5t13 -8t14 -7.5t12.5 -6t13.5 -5t12.5 -2.5t13 -1.5q55 0 55 90h162q0 -129 -55 -202.5t-160 -73.5q-37 0 -74 11.5t-53.5 20.5
t-50.5 29q-60 35 -86 35q-53 0 -53 -88h-162zM594 819l-125 -377h250z" />
    <glyph glyph-name="atilde.smcp" unicode="&#xf7e3;" horiz-adv-x="1189" 
d="M39 0l420 1221h272l420 -1221h-285l-61 186h-422l-61 -186h-283zM244 1323q0 126 57.5 201t157.5 75q75 0 155 -49q4 -2 14.5 -9t14 -9.5t13 -8t14 -7.5t12.5 -6t13.5 -5t12.5 -2.5t13 -1.5q55 0 55 90h162q0 -129 -55 -202.5t-160 -73.5q-37 0 -74 11.5t-53.5 20.5
t-50.5 29q-60 35 -86 35q-53 0 -53 -88h-162zM594 819l-125 -377h250z" />
    <glyph glyph-name="aring.smcp" unicode="&#xe226;" horiz-adv-x="1189" 
d="M39 0l401 1165q-86 73 -86 185q0 101 69.5 171t168.5 70q101 0 171.5 -70t70.5 -171q0 -110 -86 -183l403 -1167h-285l-61 186h-422l-61 -186h-283zM594 819l-125 -377h250zM592 1270q34 0 59 24t25 56q0 34 -25 59t-59 25q-32 0 -56 -25t-24 -59q0 -32 24 -56t56 -24z
" />
    <glyph glyph-name="aring.smcp" unicode="&#xf7e5;" horiz-adv-x="1189" 
d="M39 0l401 1165q-86 73 -86 185q0 101 69.5 171t168.5 70q101 0 171.5 -70t70.5 -171q0 -110 -86 -183l403 -1167h-285l-61 186h-422l-61 -186h-283zM594 819l-125 -377h250zM592 1270q34 0 59 24t25 56q0 34 -25 59t-59 25q-32 0 -56 -25t-24 -59q0 -32 24 -56t56 -24z
" />
    <glyph glyph-name="amacron.smcp" unicode="&#xe228;" horiz-adv-x="1189" 
d="M39 0l420 1221h272l420 -1221h-285l-61 186h-422l-61 -186h-283zM326 1323v176h540v-176h-540zM594 819l-125 -377h250z" />
    <glyph glyph-name="amacron.smcp" unicode="&#xf641;" horiz-adv-x="1189" 
d="M39 0l420 1221h272l420 -1221h-285l-61 186h-422l-61 -186h-283zM326 1323v176h540v-176h-540zM594 819l-125 -377h250z" />
    <glyph glyph-name="abreve.smcp" unicode="&#xe229;" horiz-adv-x="1189" 
d="M39 0l420 1221h272l420 -1221h-285l-61 186h-422l-61 -186h-283zM590 1307q-162 0 -246 95.5t-84 252.5h176q0 -191 154 -197q153 6 153 197h179q0 -152 -90.5 -250t-241.5 -98zM594 819l-125 -377h250z" />
    <glyph glyph-name="abreve.smcp" unicode="&#xf640;" horiz-adv-x="1189" 
d="M39 0l420 1221h272l420 -1221h-285l-61 186h-422l-61 -186h-283zM590 1307q-162 0 -246 95.5t-84 252.5h176q0 -191 154 -197q153 6 153 197h179q0 -152 -90.5 -250t-241.5 -98zM594 819l-125 -377h250z" />
    <glyph glyph-name="aringacute.smcp" unicode="&#xe22d;" horiz-adv-x="1189" 
d="M39 0l401 1165q-86 73 -86 185q0 101 69.5 171t168.5 70q101 0 171.5 -70t70.5 -171q0 -110 -86 -183l403 -1167h-285l-61 186h-422l-61 -186h-283zM498 1677l233 348h262l-307 -348h-188zM594 819l-125 -377h250zM592 1270q34 0 59 24t25 56q0 34 -25 59t-59 25
q-32 0 -56 -25t-24 -59q0 -32 24 -56t56 -24z" />
    <glyph glyph-name="aringacute.smcp" unicode="&#xf625;" horiz-adv-x="1189" 
d="M39 0l401 1165q-86 73 -86 185q0 101 69.5 171t168.5 70q101 0 171.5 -70t70.5 -171q0 -110 -86 -183l403 -1167h-285l-61 186h-422l-61 -186h-283zM498 1677l233 348h262l-307 -348h-188zM594 819l-125 -377h250zM592 1270q34 0 59 24t25 56q0 34 -25 59t-59 25
q-32 0 -56 -25t-24 -59q0 -32 24 -56t56 -24z" />
    <glyph glyph-name="aogonek.smcp" unicode="&#xe22f;" horiz-adv-x="1189" 
d="M971 -465q-130 0 -212.5 64t-82.5 159q0 71 41 132.5t143 125.5l-55 170h-422l-61 -186h-283l420 1221h272l420 -1221q-174 -115 -220 -154t-46 -77q0 -32 24.5 -47t61.5 -15q26 0 50.5 10t34 17t38.5 30l163 -110q-58 -51 -136.5 -85t-149.5 -34zM594 819l-125 -377h250
z" />
    <glyph glyph-name="aogonek.smcp" unicode="&#xf642;" horiz-adv-x="1189" 
d="M971 -465q-130 0 -212.5 64t-82.5 159q0 71 41 132.5t143 125.5l-55 170h-422l-61 -186h-283l420 1221h272l420 -1221q-174 -115 -220 -154t-46 -77q0 -32 24.5 -47t61.5 -15q26 0 50.5 10t34 17t38.5 30l163 -110q-58 -51 -136.5 -85t-149.5 -34zM594 819l-125 -377h250
z" />
    <glyph glyph-name="edieresis.smcp" unicode="&#xe230;" horiz-adv-x="856" 
d="M72 0v1221h723v-263h-445v-215h445v-262h-445v-219h445v-262h-723zM487 1323v281h281v-281h-281zM104 1323v281h281v-281h-281z" />
    <glyph glyph-name="edieresis.smcp" unicode="&#xf7eb;" horiz-adv-x="856" 
d="M72 0v1221h723v-263h-445v-215h445v-262h-445v-219h445v-262h-723zM487 1323v281h281v-281h-281zM104 1323v281h281v-281h-281z" />
    <glyph glyph-name="ae.smcp" unicode="&#xe231;" horiz-adv-x="1603" 
d="M25 0l555 1221h962v-263h-610l39 -215h571v-262h-524l39 -219h485v-262h-723l-31 174h-382l-78 -174h-303zM680 793l-162 -365h225z" />
    <glyph glyph-name="ae.smcp" unicode="&#xf7e6;" horiz-adv-x="1603" 
d="M25 0l555 1221h962v-263h-610l39 -215h571v-262h-524l39 -219h485v-262h-723l-31 174h-382l-78 -174h-303zM680 793l-162 -365h225z" />
    <glyph glyph-name="aeacute.smcp" unicode="&#xe232;" horiz-adv-x="1603" 
d="M25 0l555 1221h962v-263h-610l39 -215h571v-262h-524l39 -219h485v-262h-723l-31 174h-382l-78 -174h-303zM856 1323l234 348h262l-308 -348h-188zM680 793l-162 -365h225z" />
    <glyph glyph-name="aeacute.smcp" unicode="&#xf624;" horiz-adv-x="1603" 
d="M25 0l555 1221h962v-263h-610l39 -215h571v-262h-524l39 -219h485v-262h-723l-31 174h-382l-78 -174h-303zM856 1323l234 348h262l-308 -348h-188zM680 793l-162 -365h225z" />
    <glyph glyph-name="cacute.smcp" unicode="&#xe234;" horiz-adv-x="1271" 
d="M686 -16q-182 0 -327.5 84t-224.5 226.5t-79 315.5q0 175 80.5 318.5t226 226t326.5 82.5q169 0 313.5 -82t225.5 -219l-242 -152q-42 81 -121.5 130t-177.5 49q-151 0 -248.5 -102.5t-97.5 -250.5q0 -147 96 -248.5t244 -101.5q105 0 183.5 54t119.5 147l260 -131
q-81 -159 -225 -252.5t-332 -93.5zM588 1323l233 348h262l-307 -348h-188z" />
    <glyph glyph-name="cacute.smcp" unicode="&#xf643;" horiz-adv-x="1271" 
d="M686 -16q-182 0 -327.5 84t-224.5 226.5t-79 315.5q0 175 80.5 318.5t226 226t326.5 82.5q169 0 313.5 -82t225.5 -219l-242 -152q-42 81 -121.5 130t-177.5 49q-151 0 -248.5 -102.5t-97.5 -250.5q0 -147 96 -248.5t244 -101.5q105 0 183.5 54t119.5 147l260 -131
q-81 -159 -225 -252.5t-332 -93.5zM588 1323l233 348h262l-307 -348h-188z" />
    <glyph glyph-name="ccircumflex.smcp" unicode="&#xe235;" horiz-adv-x="1271" 
d="M686 -16q-182 0 -327.5 84t-224.5 226.5t-79 315.5q0 175 80.5 318.5t226 226t326.5 82.5q169 0 313.5 -82t225.5 -219l-242 -152q-42 81 -121.5 130t-177.5 49q-151 0 -248.5 -102.5t-97.5 -250.5q0 -147 96 -248.5t244 -101.5q105 0 183.5 54t119.5 147l260 -131
q-81 -159 -225 -252.5t-332 -93.5zM360 1323l244 348h174l244 -348h-211l-121 180l-119 -180h-211z" />
    <glyph glyph-name="ccircumflex.smcp" unicode="&#xf628;" horiz-adv-x="1271" 
d="M686 -16q-182 0 -327.5 84t-224.5 226.5t-79 315.5q0 175 80.5 318.5t226 226t326.5 82.5q169 0 313.5 -82t225.5 -219l-242 -152q-42 81 -121.5 130t-177.5 49q-151 0 -248.5 -102.5t-97.5 -250.5q0 -147 96 -248.5t244 -101.5q105 0 183.5 54t119.5 147l260 -131
q-81 -159 -225 -252.5t-332 -93.5zM360 1323l244 348h174l244 -348h-211l-121 180l-119 -180h-211z" />
    <glyph glyph-name="ccaron.smcp" unicode="&#xe236;" horiz-adv-x="1271" 
d="M686 -16q-182 0 -327.5 84t-224.5 226.5t-79 315.5q0 175 80.5 318.5t226 226t326.5 82.5q169 0 313.5 -82t225.5 -219l-242 -152q-42 81 -121.5 130t-177.5 49q-151 0 -248.5 -102.5t-97.5 -250.5q0 -147 96 -248.5t244 -101.5q105 0 183.5 54t119.5 147l260 -131
q-81 -159 -225 -252.5t-332 -93.5zM604 1323l-244 348h211l119 -180l121 180h211l-244 -348h-174z" />
    <glyph glyph-name="ccaron.smcp" unicode="&#xf644;" horiz-adv-x="1271" 
d="M686 -16q-182 0 -327.5 84t-224.5 226.5t-79 315.5q0 175 80.5 318.5t226 226t326.5 82.5q169 0 313.5 -82t225.5 -219l-242 -152q-42 81 -121.5 130t-177.5 49q-151 0 -248.5 -102.5t-97.5 -250.5q0 -147 96 -248.5t244 -101.5q105 0 183.5 54t119.5 147l260 -131
q-81 -159 -225 -252.5t-332 -93.5zM604 1323l-244 348h211l119 -180l121 180h211l-244 -348h-174z" />
    <glyph glyph-name="cdotaccent.smcp" unicode="&#xe237;" horiz-adv-x="1271" 
d="M686 -16q-182 0 -327.5 84t-224.5 226.5t-79 315.5q0 175 80.5 318.5t226 226t326.5 82.5q169 0 313.5 -82t225.5 -219l-242 -152q-42 81 -121.5 130t-177.5 49q-151 0 -248.5 -102.5t-97.5 -250.5q0 -147 96 -248.5t244 -101.5q105 0 183.5 54t119.5 147l260 -131
q-81 -159 -225 -252.5t-332 -93.5zM551 1323v281h280v-281h-280z" />
    <glyph glyph-name="cdotaccent.smcp" unicode="&#xf629;" horiz-adv-x="1271" 
d="M686 -16q-182 0 -327.5 84t-224.5 226.5t-79 315.5q0 175 80.5 318.5t226 226t326.5 82.5q169 0 313.5 -82t225.5 -219l-242 -152q-42 81 -121.5 130t-177.5 49q-151 0 -248.5 -102.5t-97.5 -250.5q0 -147 96 -248.5t244 -101.5q105 0 183.5 54t119.5 147l260 -131
q-81 -159 -225 -252.5t-332 -93.5zM551 1323v281h280v-281h-280z" />
    <glyph glyph-name="ccedilla.smcp" unicode="&#xe238;" horiz-adv-x="1271" 
d="M666 -492q-77 0 -154.5 33t-138.5 88l159 97q31 -24 47.5 -35.5t46 -22t62.5 -10.5q45 0 78 17.5t33 43.5q0 56 -117 56h-104v217q-233 35 -378 208t-145 410q0 175 80.5 318.5t226 226t326.5 82.5q169 0 313.5 -82t225.5 -219l-242 -152q-42 81 -121.5 130t-177.5 49
q-151 0 -248.5 -102.5t-97.5 -250.5q0 -147 96 -248.5t244 -101.5q105 0 183.5 54t119.5 147l260 -131q-75 -145 -200.5 -236t-290.5 -106v-97q112 4 173.5 -41t61.5 -122q0 -95 -92.5 -157.5t-228.5 -62.5z" />
    <glyph glyph-name="ccedilla.smcp" unicode="&#xf7e7;" horiz-adv-x="1271" 
d="M666 -492q-77 0 -154.5 33t-138.5 88l159 97q31 -24 47.5 -35.5t46 -22t62.5 -10.5q45 0 78 17.5t33 43.5q0 56 -117 56h-104v217q-233 35 -378 208t-145 410q0 175 80.5 318.5t226 226t326.5 82.5q169 0 313.5 -82t225.5 -219l-242 -152q-42 81 -121.5 130t-177.5 49
q-151 0 -248.5 -102.5t-97.5 -250.5q0 -147 96 -248.5t244 -101.5q105 0 183.5 54t119.5 147l260 -131q-75 -145 -200.5 -236t-290.5 -106v-97q112 4 173.5 -41t61.5 -122q0 -95 -92.5 -157.5t-228.5 -62.5z" />
    <glyph glyph-name="dcaron.smcp" unicode="&#xe239;" horiz-adv-x="1122" 
d="M72 0v1221h358q142 0 262 -47t202 -128.5t127.5 -194t45.5 -241.5q0 -172 -81 -311.5t-225.5 -219t-324.5 -79.5h-364zM414 961h-64v-701h72q163 0 263.5 99.5t100.5 250.5q0 155 -97.5 253t-274.5 98zM416 1323l-244 348h211l119 -180l121 180h211l-244 -348h-174z" />
    <glyph glyph-name="dcaron.smcp" unicode="&#xf645;" horiz-adv-x="1122" 
d="M72 0v1221h358q142 0 262 -47t202 -128.5t127.5 -194t45.5 -241.5q0 -172 -81 -311.5t-225.5 -219t-324.5 -79.5h-364zM414 961h-64v-701h72q163 0 263.5 99.5t100.5 250.5q0 155 -97.5 253t-274.5 98zM416 1323l-244 348h211l119 -180l121 180h211l-244 -348h-174z" />
    <glyph glyph-name="dcroat.smcp" unicode="&#xe23c;" horiz-adv-x="1196" 
d="M41 496v229h102v496h361q142 0 261.5 -47t201.5 -128.5t128 -194t46 -241.5q0 -172 -81 -311.5t-225.5 -219t-324.5 -79.5h-367v496h-102zM664 496h-240v-236h70q164 0 264 99.5t100 250.5q0 155 -97 253t-274 98h-63v-236h240v-229z" />
    <glyph glyph-name="dcroat.smcp" unicode="&#xf646;" horiz-adv-x="1196" 
d="M41 496v229h102v496h361q142 0 261.5 -47t201.5 -128.5t128 -194t46 -241.5q0 -172 -81 -311.5t-225.5 -219t-324.5 -79.5h-367v496h-102zM664 496h-240v-236h70q164 0 264 99.5t100 250.5q0 155 -97 253t-274 98h-63v-236h240v-229z" />
    <glyph glyph-name="eacute.smcp" unicode="&#xe23d;" horiz-adv-x="856" 
d="M72 0v1221h723v-263h-445v-215h445v-262h-445v-219h445v-262h-723zM328 1323l233 348h262l-307 -348h-188z" />
    <glyph glyph-name="eacute.smcp" unicode="&#xf7e9;" horiz-adv-x="856" 
d="M72 0v1221h723v-263h-445v-215h445v-262h-445v-219h445v-262h-723zM328 1323l233 348h262l-307 -348h-188z" />
    <glyph glyph-name="egrave.smcp" unicode="&#xe23e;" horiz-adv-x="856" 
d="M72 0v1221h723v-263h-445v-215h445v-262h-445v-219h445v-262h-723zM385 1323l-307 348h262l233 -348h-188z" />
    <glyph glyph-name="egrave.smcp" unicode="&#xf7e8;" horiz-adv-x="856" 
d="M72 0v1221h723v-263h-445v-215h445v-262h-445v-219h445v-262h-723zM385 1323l-307 348h262l233 -348h-188z" />
    <glyph glyph-name="ecircumflex.smcp" unicode="&#xe23f;" horiz-adv-x="856" 
d="M72 0v1221h723v-263h-445v-215h445v-262h-445v-219h445v-262h-723zM109 1323l243 348h174l244 -348h-211l-121 180l-119 -180h-210z" />
    <glyph glyph-name="ecircumflex.smcp" unicode="&#xf7ea;" horiz-adv-x="856" 
d="M72 0v1221h723v-263h-445v-215h445v-262h-445v-219h445v-262h-723zM109 1323l243 348h174l244 -348h-211l-121 180l-119 -180h-210z" />
    <glyph glyph-name="gcommaaccent.smcp" unicode="&#xe240;" horiz-adv-x="1316" 
d="M680 -16q-144 0 -265.5 50.5t-202.5 136t-126 199t-45 240.5q0 175 79.5 318t223.5 226t324 83q186 0 330 -83t225 -222l-246 -139q-44 85 -123.5 130.5t-183.5 45.5q-147 0 -249 -103t-102 -256q0 -158 100 -259t257 -101q108 0 185 53.5t108 149.5h-348v262h651v-129
q0 -122 -43 -231.5t-119 -191.5t-188 -130.5t-242 -48.5zM655 -510h-174l70 418h248z" />
    <glyph glyph-name="gcommaaccent.smcp" unicode="&#xf64c;" horiz-adv-x="1316" 
d="M680 -16q-144 0 -265.5 50.5t-202.5 136t-126 199t-45 240.5q0 175 79.5 318t223.5 226t324 83q186 0 330 -83t225 -222l-246 -139q-44 85 -123.5 130.5t-183.5 45.5q-147 0 -249 -103t-102 -256q0 -158 100 -259t257 -101q108 0 185 53.5t108 149.5h-348v262h651v-129
q0 -122 -43 -231.5t-119 -191.5t-188 -130.5t-242 -48.5zM655 -510h-174l70 418h248z" />
    <glyph glyph-name="ecaron.smcp" unicode="&#xe241;" horiz-adv-x="856" 
d="M72 0v1221h723v-263h-445v-215h445v-262h-445v-219h445v-262h-723zM360 1323l-243 348h211l118 -180l121 180h211l-243 -348h-175z" />
    <glyph glyph-name="ecaron.smcp" unicode="&#xf647;" horiz-adv-x="856" 
d="M72 0v1221h723v-263h-445v-215h445v-262h-445v-219h445v-262h-723zM360 1323l-243 348h211l118 -180l121 180h211l-243 -348h-175z" />
    <glyph glyph-name="emacron.smcp" unicode="&#xe242;" horiz-adv-x="856" 
d="M72 0v1221h723v-263h-445v-215h445v-262h-445v-219h445v-262h-723zM170 1323v176h541v-176h-541z" />
    <glyph glyph-name="emacron.smcp" unicode="&#xf649;" horiz-adv-x="856" 
d="M72 0v1221h723v-263h-445v-215h445v-262h-445v-219h445v-262h-723zM170 1323v176h541v-176h-541z" />
    <glyph glyph-name="ebreve.smcp" unicode="&#xe243;" horiz-adv-x="856" 
d="M72 0v1221h723v-263h-445v-215h445v-262h-445v-219h445v-262h-723zM457 1307q-162 0 -246 95.5t-84 252.5h176q0 -191 154 -197q153 6 153 197h178q0 -152 -90 -250t-241 -98z" />
    <glyph glyph-name="ebreve.smcp" unicode="&#xf62a;" horiz-adv-x="856" 
d="M72 0v1221h723v-263h-445v-215h445v-262h-445v-219h445v-262h-723zM457 1307q-162 0 -246 95.5t-84 252.5h176q0 -191 154 -197q153 6 153 197h178q0 -152 -90 -250t-241 -98z" />
    <glyph glyph-name="edotaccent.smcp" unicode="&#xe246;" horiz-adv-x="856" 
d="M72 0v1221h723v-263h-445v-215h445v-262h-445v-219h445v-262h-723zM297 1323v281h281v-281h-281z" />
    <glyph glyph-name="edotaccent.smcp" unicode="&#xf648;" horiz-adv-x="856" 
d="M72 0v1221h723v-263h-445v-215h445v-262h-445v-219h445v-262h-723zM297 1323v281h281v-281h-281z" />
    <glyph glyph-name="eogonek.smcp" unicode="&#xe249;" horiz-adv-x="856" 
d="M72 0v1221h723v-263h-445v-215h445v-262h-445v-219h445v-262q-176 -116 -221.5 -154.5t-45.5 -76.5q0 -32 24.5 -47t61.5 -15q26 0 50.5 10t34 17t38.5 30l164 -110q-58 -51 -137 -85t-150 -34q-130 0 -212.5 64t-82.5 159q0 65 35.5 123.5t122.5 118.5h-405z" />
    <glyph glyph-name="eogonek.smcp" unicode="&#xf64a;" horiz-adv-x="856" 
d="M72 0v1221h723v-263h-445v-215h445v-262h-445v-219h445v-262q-176 -116 -221.5 -154.5t-45.5 -76.5q0 -32 24.5 -47t61.5 -15q26 0 50.5 10t34 17t38.5 30l164 -110q-58 -51 -137 -85t-150 -34q-130 0 -212.5 64t-82.5 159q0 65 35.5 123.5t122.5 118.5h-405z" />
    <glyph glyph-name="gcircumflex.smcp" unicode="&#xe24b;" horiz-adv-x="1316" 
d="M680 -16q-144 0 -265.5 50.5t-202.5 136t-126 199t-45 240.5q0 175 79.5 318t223.5 226t324 83q186 0 330 -83t225 -222l-246 -139q-44 85 -123.5 130.5t-183.5 45.5q-147 0 -249 -103t-102 -256q0 -158 100 -259t257 -101q108 0 185 53.5t108 149.5h-348v262h651v-129
q0 -122 -43 -231.5t-119 -191.5t-188 -130.5t-242 -48.5zM348 1323l244 348h174l244 -348h-211l-121 180l-119 -180h-211z" />
    <glyph glyph-name="gcircumflex.smcp" unicode="&#xf62c;" horiz-adv-x="1316" 
d="M680 -16q-144 0 -265.5 50.5t-202.5 136t-126 199t-45 240.5q0 175 79.5 318t223.5 226t324 83q186 0 330 -83t225 -222l-246 -139q-44 85 -123.5 130.5t-183.5 45.5q-147 0 -249 -103t-102 -256q0 -158 100 -259t257 -101q108 0 185 53.5t108 149.5h-348v262h651v-129
q0 -122 -43 -231.5t-119 -191.5t-188 -130.5t-242 -48.5zM348 1323l244 348h174l244 -348h-211l-121 180l-119 -180h-211z" />
    <glyph glyph-name="gbreve.smcp" unicode="&#xe24e;" horiz-adv-x="1316" 
d="M680 -16q-144 0 -265.5 50.5t-202.5 136t-126 199t-45 240.5q0 175 79.5 318t223.5 226t324 83q186 0 330 -83t225 -222l-246 -139q-44 85 -123.5 130.5t-183.5 45.5q-147 0 -249 -103t-102 -256q0 -158 100 -259t257 -101q108 0 185 53.5t108 149.5h-348v262h651v-129
q0 -122 -43 -231.5t-119 -191.5t-188 -130.5t-242 -48.5zM678 1307q-162 0 -246 95.5t-84 252.5h176q0 -191 154 -197q153 6 153 197h179q0 -152 -90.5 -250t-241.5 -98z" />
    <glyph glyph-name="gbreve.smcp" unicode="&#xf64b;" horiz-adv-x="1316" 
d="M680 -16q-144 0 -265.5 50.5t-202.5 136t-126 199t-45 240.5q0 175 79.5 318t223.5 226t324 83q186 0 330 -83t225 -222l-246 -139q-44 85 -123.5 130.5t-183.5 45.5q-147 0 -249 -103t-102 -256q0 -158 100 -259t257 -101q108 0 185 53.5t108 149.5h-348v262h651v-129
q0 -122 -43 -231.5t-119 -191.5t-188 -130.5t-242 -48.5zM678 1307q-162 0 -246 95.5t-84 252.5h176q0 -191 154 -197q153 6 153 197h179q0 -152 -90.5 -250t-241.5 -98z" />
    <glyph glyph-name="gdotaccent.smcp" unicode="&#xe24f;" horiz-adv-x="1316" 
d="M680 -16q-144 0 -265.5 50.5t-202.5 136t-126 199t-45 240.5q0 175 79.5 318t223.5 226t324 83q186 0 330 -83t225 -222l-246 -139q-44 85 -123.5 130.5t-183.5 45.5q-147 0 -249 -103t-102 -256q0 -158 100 -259t257 -101q108 0 185 53.5t108 149.5h-348v262h651v-129
q0 -122 -43 -231.5t-119 -191.5t-188 -130.5t-242 -48.5zM537 1323v281h280v-281h-280z" />
    <glyph glyph-name="gdotaccent.smcp" unicode="&#xf62d;" horiz-adv-x="1316" 
d="M680 -16q-144 0 -265.5 50.5t-202.5 136t-126 199t-45 240.5q0 175 79.5 318t223.5 226t324 83q186 0 330 -83t225 -222l-246 -139q-44 85 -123.5 130.5t-183.5 45.5q-147 0 -249 -103t-102 -256q0 -158 100 -259t257 -101q108 0 185 53.5t108 149.5h-348v262h651v-129
q0 -122 -43 -231.5t-119 -191.5t-188 -130.5t-242 -48.5zM537 1323v281h280v-281h-280z" />
    <glyph glyph-name="hcircumflex.smcp" unicode="&#xe253;" horiz-adv-x="1075" 
d="M723 0v475h-371v-475h-280v1221h280v-469h371v469h281v-1221h-281zM209 1323l244 348h174l243 -348h-211l-120 180l-119 -180h-211z" />
    <glyph glyph-name="hcircumflex.smcp" unicode="&#xf62f;" horiz-adv-x="1075" 
d="M723 0v475h-371v-475h-280v1221h280v-469h371v469h281v-1221h-281zM209 1323l244 348h174l243 -348h-211l-120 180l-119 -180h-211z" />
    <glyph glyph-name="hbar.smcp" unicode="&#xe257;" horiz-adv-x="1116" 
d="M743 0v434h-370v-434h-281v825h-72v277h72v119h281v-119h370v119h281v-119h70v-277h-70v-825h-281zM373 825v-114h370v114h-370z" />
    <glyph glyph-name="hbar.smcp" unicode="&#xf62e;" horiz-adv-x="1116" 
d="M743 0v434h-370v-434h-281v825h-72v277h72v119h281v-119h370v119h281v-119h70v-277h-70v-825h-281zM373 825v-114h370v114h-370z" />
    <glyph glyph-name="iacute.smcp" unicode="&#xe258;" horiz-adv-x="446" 
d="M125 1323l233 348h263l-308 -348h-188zM82 0v1221h283v-1221h-283z" />
    <glyph glyph-name="iacute.smcp" unicode="&#xf7ed;" horiz-adv-x="446" 
d="M125 1323l233 348h263l-308 -348h-188zM82 0v1221h283v-1221h-283z" />
    <glyph glyph-name="igrave.smcp" unicode="&#xe259;" horiz-adv-x="446" 
d="M137 1323l-307 348h262l234 -348h-189zM82 0v1221h283v-1221h-283z" />
    <glyph glyph-name="igrave.smcp" unicode="&#xf7ec;" horiz-adv-x="446" 
d="M137 1323l-307 348h262l234 -348h-189zM82 0v1221h283v-1221h-283z" />
    <glyph glyph-name="icircumflex.smcp" unicode="&#xe25a;" horiz-adv-x="446" 
d="M82 0v1221h283v-1221h-283zM-86 1323l244 348h174l243 -348h-210l-121 180l-119 -180h-211z" />
    <glyph glyph-name="icircumflex.smcp" unicode="&#xf7ee;" horiz-adv-x="446" 
d="M82 0v1221h283v-1221h-283zM-86 1323l244 348h174l243 -348h-210l-121 180l-119 -180h-211z" />
    <glyph glyph-name="idieresis.smcp" unicode="&#xe25b;" horiz-adv-x="446" 
d="M342 1323v281h281v-281h-281zM-133 1323v281h280v-281h-280zM82 0v1221h283v-1221h-283z" />
    <glyph glyph-name="idieresis.smcp" unicode="&#xf7ef;" horiz-adv-x="446" 
d="M342 1323v281h281v-281h-281zM-133 1323v281h280v-281h-280zM82 0v1221h283v-1221h-283z" />
    <glyph glyph-name="itilde.smcp" unicode="&#xe25c;" horiz-adv-x="446" 
d="M-106 1323q0 126 57.5 201t157.5 75q75 0 155 -49q4 -2 14.5 -9t14 -9.5t13 -8t14 -7.5t12.5 -6t13.5 -5t12.5 -2.5t13 -1.5q55 0 55 90h162q0 -129 -55 -202.5t-160 -73.5q-37 0 -74 11.5t-53.5 20.5t-50.5 29q-60 35 -86 35q-54 0 -54 -88h-161zM82 0v1221h283v-1221
h-283z" />
    <glyph glyph-name="itilde.smcp" unicode="&#xf632;" horiz-adv-x="446" 
d="M-106 1323q0 126 57.5 201t157.5 75q75 0 155 -49q4 -2 14.5 -9t14 -9.5t13 -8t14 -7.5t12.5 -6t13.5 -5t12.5 -2.5t13 -1.5q55 0 55 90h162q0 -129 -55 -202.5t-160 -73.5q-37 0 -74 11.5t-53.5 20.5t-50.5 29q-60 35 -86 35q-54 0 -54 -88h-161zM82 0v1221h283v-1221
h-283z" />
    <glyph glyph-name="imacron.smcp" unicode="&#xe25e;" horiz-adv-x="446" 
d="M-49 1323v176h541v-176h-541zM82 0v1221h283v-1221h-283z" />
    <glyph glyph-name="imacron.smcp" unicode="&#xf64d;" horiz-adv-x="446" 
d="M-49 1323v176h541v-176h-541zM82 0v1221h283v-1221h-283z" />
    <glyph glyph-name="ibreve.smcp" unicode="&#xe25f;" horiz-adv-x="446" 
d="M223 1307q-162 0 -245.5 95.5t-83.5 252.5h176q0 -191 153 -197q154 6 154 197h178q0 -152 -90.5 -250t-241.5 -98zM82 0v1221h283v-1221h-283z" />
    <glyph glyph-name="ibreve.smcp" unicode="&#xf630;" horiz-adv-x="446" 
d="M223 1307q-162 0 -245.5 95.5t-83.5 252.5h176q0 -191 153 -197q154 6 154 197h178q0 -152 -90.5 -250t-241.5 -98zM82 0v1221h283v-1221h-283z" />
    <glyph glyph-name="idotaccent.smcp" unicode="&#xe262;" horiz-adv-x="446" 
d="M82 0v1221h283v-1221h-283zM84 1323v281h281v-281h-281z" />
    <glyph glyph-name="idotaccent.smcp" unicode="&#xf666;" horiz-adv-x="446" 
d="M82 0v1221h283v-1221h-283zM84 1323v281h281v-281h-281z" />
    <glyph glyph-name="iogonek.smcp" unicode="&#xe264;" horiz-adv-x="446" 
d="M213 -471q-118 0 -193 62.5t-77 158.5q-3 137 139 256v1215h283v-1221q-110 -65 -164 -126t-54 -101q0 -33 21 -50.5t55 -17.5q51 0 103 64l163 -113q-120 -127 -276 -127z" />
    <glyph glyph-name="iogonek.smcp" unicode="&#xf64e;" horiz-adv-x="446" 
d="M213 -471q-118 0 -193 62.5t-77 158.5q-3 137 139 256v1215h283v-1221q-110 -65 -164 -126t-54 -101q0 -33 21 -50.5t55 -17.5q51 0 103 64l163 -113q-120 -127 -276 -127z" />
    <glyph glyph-name="jcircumflex.smcp" unicode="&#xe265;" horiz-adv-x="890" 
d="M432 -16q-152 0 -255.5 72.5t-139.5 197.5l268 104q26 -116 125 -116q52 0 79.5 34.5t27.5 90.5v854h282v-836q0 -190 -98 -295.5t-289 -105.5zM346 1323l244 348h174l244 -348h-211l-121 180l-119 -180h-211z" />
    <glyph glyph-name="jcircumflex.smcp" unicode="&#xf633;" horiz-adv-x="890" 
d="M432 -16q-152 0 -255.5 72.5t-139.5 197.5l268 104q26 -116 125 -116q52 0 79.5 34.5t27.5 90.5v854h282v-836q0 -190 -98 -295.5t-289 -105.5zM346 1323l244 348h174l244 -348h-211l-121 180l-119 -180h-211z" />
    <glyph glyph-name="kcommaaccent.smcp" unicode="&#xe268;" horiz-adv-x="1071" 
d="M739 0l-282 535l-105 -142v-393h-280v1221h280v-453l342 453h332l-369 -482l398 -739h-316zM520 -500h-174l70 418h248z" />
    <glyph glyph-name="kcommaaccent.smcp" unicode="&#xf64f;" horiz-adv-x="1071" 
d="M739 0l-282 535l-105 -142v-393h-280v1221h280v-453l342 453h332l-369 -482l398 -739h-316zM520 -500h-174l70 418h248z" />
    <glyph glyph-name="lacute.smcp" unicode="&#xe26b;" horiz-adv-x="813" 
d="M72 0v1221h280v-953h406v-268h-686zM113 1323l233 348h262l-307 -348h-188z" />
    <glyph glyph-name="lacute.smcp" unicode="&#xf650;" horiz-adv-x="813" 
d="M72 0v1221h280v-953h406v-268h-686zM113 1323l233 348h262l-307 -348h-188z" />
    <glyph glyph-name="lcaron.smcp" unicode="&#xe26c;" horiz-adv-x="813" 
d="M72 0v1221h280v-953h406v-268h-686zM498 872l49 349h227l-102 -349h-174z" />
    <glyph glyph-name="lcaron.smcp" unicode="&#xf651;" horiz-adv-x="813" 
d="M72 0v1221h280v-953h406v-268h-686zM498 872l49 349h227l-102 -349h-174z" />
    <glyph glyph-name="lcommaaccent.smcp" unicode="&#xe26d;" horiz-adv-x="813" 
d="M72 0v1221h280v-953h406v-268h-686zM397 -520h-174l70 418h248z" />
    <glyph glyph-name="lcommaaccent.smcp" unicode="&#xf652;" horiz-adv-x="813" 
d="M72 0v1221h280v-953h406v-268h-686zM397 -520h-174l70 418h248z" />
    <glyph glyph-name="ldot.smcp" unicode="&#xe271;" horiz-adv-x="811" 
d="M72 0v1221h280v-953h404v-268h-684zM475 504v280h281v-280h-281z" />
    <glyph glyph-name="ldot.smcp" unicode="&#xf634;" horiz-adv-x="811" 
d="M72 0v1221h280v-953h404v-268h-684zM475 504v280h281v-280h-281z" />
    <glyph glyph-name="lslash.smcp" unicode="&#xe272;" horiz-adv-x="884" 
d="M25 469v203l118 35v514h281v-435l270 80v-202l-270 -80v-316h405v-268h-686v504z" />
    <glyph glyph-name="lslash.smcp" unicode="&#xf6f9;" horiz-adv-x="884" 
d="M25 469v203l118 35v514h281v-435l270 80v-202l-270 -80v-316h405v-268h-686v504z" />
    <glyph glyph-name="nacute.smcp" unicode="&#xe276;" horiz-adv-x="1179" 
d="M72 0v1221h303l454 -721v721h279v-1221h-281l-477 754v-754h-278zM506 1323l233 348h262l-307 -348h-188z" />
    <glyph glyph-name="nacute.smcp" unicode="&#xf653;" horiz-adv-x="1179" 
d="M72 0v1221h303l454 -721v721h279v-1221h-281l-477 754v-754h-278zM506 1323l233 348h262l-307 -348h-188z" />
    <glyph glyph-name="ntilde.smcp" unicode="&#xe279;" horiz-adv-x="1179" 
d="M72 0v1221h303l454 -721v721h279v-1221h-281l-477 754v-754h-278zM252 1323q0 126 57.5 201t157.5 75q76 0 156 -49q4 -3 16 -10.5t16.5 -10.5t14 -8.5t15.5 -8t14 -6t15.5 -4.5t14.5 -1q55 0 55 90h162q0 -129 -55 -202.5t-160 -73.5q-37 0 -74 11.5t-53.5 20.5
t-50.5 29q-60 35 -86 35q-53 0 -53 -88h-162z" />
    <glyph glyph-name="ncaron.smcp" unicode="&#xe27a;" horiz-adv-x="1179" 
d="M72 0v1221h303l454 -721v721h279v-1221h-281l-477 754v-754h-278zM516 1307l-244 348h211l119 -180l121 180h211l-244 -348h-174z" />
    <glyph glyph-name="ncaron.smcp" unicode="&#xf654;" horiz-adv-x="1179" 
d="M72 0v1221h303l454 -721v721h279v-1221h-281l-477 754v-754h-278zM516 1307l-244 348h211l119 -180l121 180h211l-244 -348h-174z" />
    <glyph glyph-name="ncommaaccent.smcp" unicode="&#xe27d;" horiz-adv-x="1179" 
d="M72 0v1221h303l454 -721v721h279v-1221h-281l-477 754v-754h-278zM590 -520h-174l69 418h248z" />
    <glyph glyph-name="ncommaaccent.smcp" unicode="&#xf655;" horiz-adv-x="1179" 
d="M72 0v1221h303l454 -721v721h279v-1221h-281l-477 754v-754h-278zM590 -520h-174l69 418h248z" />
    <glyph glyph-name="oacute.smcp" unicode="&#xe281;" horiz-adv-x="1331" 
d="M664 -16q-171 0 -314.5 83.5t-226 227.5t-82.5 315t82.5 315t226 228t314.5 84t315 -84t227.5 -228.5t83.5 -314.5q0 -171 -83 -315t-227 -227.5t-316 -83.5zM664 260q148 0 246 102t98 248t-99 248.5t-245 102.5q-144 0 -242 -102.5t-98 -248.5t97.5 -248t242.5 -102z
M565 1323l234 348h262l-307 -348h-189z" />
    <glyph glyph-name="oacute.smcp" unicode="&#xf7f3;" horiz-adv-x="1331" 
d="M664 -16q-171 0 -314.5 83.5t-226 227.5t-82.5 315t82.5 315t226 228t314.5 84t315 -84t227.5 -228.5t83.5 -314.5q0 -171 -83 -315t-227 -227.5t-316 -83.5zM664 260q148 0 246 102t98 248t-99 248.5t-245 102.5q-144 0 -242 -102.5t-98 -248.5t97.5 -248t242.5 -102z
M565 1323l234 348h262l-307 -348h-189z" />
    <glyph glyph-name="ograve.smcp" unicode="&#xe282;" horiz-adv-x="1331" 
d="M664 -16q-171 0 -314.5 83.5t-226 227.5t-82.5 315t82.5 315t226 228t314.5 84t315 -84t227.5 -228.5t83.5 -314.5q0 -171 -83 -315t-227 -227.5t-316 -83.5zM664 260q148 0 246 102t98 248t-99 248.5t-245 102.5q-144 0 -242 -102.5t-98 -248.5t97.5 -248t242.5 -102z
M600 1323l-307 348h262l233 -348h-188z" />
    <glyph glyph-name="ograve.smcp" unicode="&#xf7f2;" horiz-adv-x="1331" 
d="M664 -16q-171 0 -314.5 83.5t-226 227.5t-82.5 315t82.5 315t226 228t314.5 84t315 -84t227.5 -228.5t83.5 -314.5q0 -171 -83 -315t-227 -227.5t-316 -83.5zM664 260q148 0 246 102t98 248t-99 248.5t-245 102.5q-144 0 -242 -102.5t-98 -248.5t97.5 -248t242.5 -102z
M600 1323l-307 348h262l233 -348h-188z" />
    <glyph glyph-name="ocircumflex.smcp" unicode="&#xe283;" horiz-adv-x="1331" 
d="M664 -16q-171 0 -314.5 83.5t-226 227.5t-82.5 315t82.5 315t226 228t314.5 84t315 -84t227.5 -228.5t83.5 -314.5q0 -171 -83 -315t-227 -227.5t-316 -83.5zM664 260q148 0 246 102t98 248t-99 248.5t-245 102.5q-144 0 -242 -102.5t-98 -248.5t97.5 -248t242.5 -102z
M334 1323l244 348h174l243 -348h-211l-120 180l-119 -180h-211z" />
    <glyph glyph-name="ocircumflex.smcp" unicode="&#xf7f4;" horiz-adv-x="1331" 
d="M664 -16q-171 0 -314.5 83.5t-226 227.5t-82.5 315t82.5 315t226 228t314.5 84t315 -84t227.5 -228.5t83.5 -314.5q0 -171 -83 -315t-227 -227.5t-316 -83.5zM664 260q148 0 246 102t98 248t-99 248.5t-245 102.5q-144 0 -242 -102.5t-98 -248.5t97.5 -248t242.5 -102z
M334 1323l244 348h174l243 -348h-211l-120 180l-119 -180h-211z" />
    <glyph glyph-name="odieresis.smcp" unicode="&#xe284;" horiz-adv-x="1331" 
d="M664 -16q-171 0 -314.5 83.5t-226 227.5t-82.5 315t82.5 315t226 228t314.5 84t315 -84t227.5 -228.5t83.5 -314.5q0 -171 -83 -315t-227 -227.5t-316 -83.5zM664 260q148 0 246 102t98 248t-99 248.5t-245 102.5q-144 0 -242 -102.5t-98 -248.5t97.5 -248t242.5 -102z
M717 1323v281h280v-281h-280zM334 1323v281h280v-281h-280z" />
    <glyph glyph-name="odieresis.smcp" unicode="&#xf7f6;" horiz-adv-x="1331" 
d="M664 -16q-171 0 -314.5 83.5t-226 227.5t-82.5 315t82.5 315t226 228t314.5 84t315 -84t227.5 -228.5t83.5 -314.5q0 -171 -83 -315t-227 -227.5t-316 -83.5zM664 260q148 0 246 102t98 248t-99 248.5t-245 102.5q-144 0 -242 -102.5t-98 -248.5t97.5 -248t242.5 -102z
M717 1323v281h280v-281h-280zM334 1323v281h280v-281h-280z" />
    <glyph glyph-name="otilde.smcp" unicode="&#xe285;" horiz-adv-x="1331" 
d="M664 -16q-171 0 -314.5 83.5t-226 227.5t-82.5 315t82.5 315t226 228t314.5 84t315 -84t227.5 -228.5t83.5 -314.5q0 -171 -83 -315t-227 -227.5t-316 -83.5zM664 260q148 0 246 102t98 248t-99 248.5t-245 102.5q-144 0 -242 -102.5t-98 -248.5t97.5 -248t242.5 -102z
M340 1323q0 126 57.5 201t157.5 75q76 0 156 -49q4 -3 16 -10.5t16.5 -10.5t14 -8.5t15.5 -8t14 -6t15.5 -4.5t14.5 -1q55 0 55 90h162q0 -129 -55 -202.5t-160 -73.5q-37 0 -74 11.5t-53.5 20.5t-50.5 29q-60 35 -86 35q-53 0 -53 -88h-162z" />
    <glyph glyph-name="otilde.smcp" unicode="&#xf7f5;" horiz-adv-x="1331" 
d="M664 -16q-171 0 -314.5 83.5t-226 227.5t-82.5 315t82.5 315t226 228t314.5 84t315 -84t227.5 -228.5t83.5 -314.5q0 -171 -83 -315t-227 -227.5t-316 -83.5zM664 260q148 0 246 102t98 248t-99 248.5t-245 102.5q-144 0 -242 -102.5t-98 -248.5t97.5 -248t242.5 -102z
M340 1323q0 126 57.5 201t157.5 75q76 0 156 -49q4 -3 16 -10.5t16.5 -10.5t14 -8.5t15.5 -8t14 -6t15.5 -4.5t14.5 -1q55 0 55 90h162q0 -129 -55 -202.5t-160 -73.5q-37 0 -74 11.5t-53.5 20.5t-50.5 29q-60 35 -86 35q-53 0 -53 -88h-162z" />
    <glyph glyph-name="omacron.smcp" unicode="&#xe287;" horiz-adv-x="1331" 
d="M664 -16q-171 0 -314.5 83.5t-226 227.5t-82.5 315t82.5 315t226 228t314.5 84t315 -84t227.5 -228.5t83.5 -314.5q0 -171 -83 -315t-227 -227.5t-316 -83.5zM664 260q148 0 246 102t98 248t-99 248.5t-245 102.5q-144 0 -242 -102.5t-98 -248.5t97.5 -248t242.5 -102z
M393 1323v176h541v-176h-541z" />
    <glyph glyph-name="omacron.smcp" unicode="&#xf657;" horiz-adv-x="1331" 
d="M664 -16q-171 0 -314.5 83.5t-226 227.5t-82.5 315t82.5 315t226 228t314.5 84t315 -84t227.5 -228.5t83.5 -314.5q0 -171 -83 -315t-227 -227.5t-316 -83.5zM664 260q148 0 246 102t98 248t-99 248.5t-245 102.5q-144 0 -242 -102.5t-98 -248.5t97.5 -248t242.5 -102z
M393 1323v176h541v-176h-541z" />
    <glyph glyph-name="obreve.smcp" unicode="&#xe288;" horiz-adv-x="1331" 
d="M664 -16q-171 0 -314.5 83.5t-226 227.5t-82.5 315t82.5 315t226 228t314.5 84t315 -84t227.5 -228.5t83.5 -314.5q0 -171 -83 -315t-227 -227.5t-316 -83.5zM664 260q148 0 246 102t98 248t-99 248.5t-245 102.5q-144 0 -242 -102.5t-98 -248.5t97.5 -248t242.5 -102z
M664 1307q-162 0 -246 95.5t-84 252.5h176q0 -191 154 -197q153 6 153 197h178q0 -152 -90 -250t-241 -98z" />
    <glyph glyph-name="obreve.smcp" unicode="&#xf635;" horiz-adv-x="1331" 
d="M664 -16q-171 0 -314.5 83.5t-226 227.5t-82.5 315t82.5 315t226 228t314.5 84t315 -84t227.5 -228.5t83.5 -314.5q0 -171 -83 -315t-227 -227.5t-316 -83.5zM664 260q148 0 246 102t98 248t-99 248.5t-245 102.5q-144 0 -242 -102.5t-98 -248.5t97.5 -248t242.5 -102z
M664 1307q-162 0 -246 95.5t-84 252.5h176q0 -191 154 -197q153 6 153 197h178q0 -152 -90 -250t-241 -98z" />
    <glyph glyph-name="ohungarumlaut.smcp" unicode="&#xe28a;" horiz-adv-x="1331" 
d="M664 -16q-171 0 -314.5 83.5t-226 227.5t-82.5 315t82.5 315t226 228t314.5 84t315 -84t227.5 -228.5t83.5 -314.5q0 -171 -83 -315t-227 -227.5t-316 -83.5zM664 260q148 0 246 102t98 248t-99 248.5t-245 102.5q-144 0 -242 -102.5t-98 -248.5t97.5 -248t242.5 -102z
M393 1317l234 348h247l-307 -348h-174zM735 1317l234 348h248l-308 -348h-174z" />
    <glyph glyph-name="ohungarumlaut.smcp" unicode="&#xf656;" horiz-adv-x="1331" 
d="M664 -16q-171 0 -314.5 83.5t-226 227.5t-82.5 315t82.5 315t226 228t314.5 84t315 -84t227.5 -228.5t83.5 -314.5q0 -171 -83 -315t-227 -227.5t-316 -83.5zM664 260q148 0 246 102t98 248t-99 248.5t-245 102.5q-144 0 -242 -102.5t-98 -248.5t97.5 -248t242.5 -102z
M393 1317l234 348h247l-307 -348h-174zM735 1317l234 348h248l-308 -348h-174z" />
    <glyph glyph-name="oslash.smcp" unicode="&#xe295;" horiz-adv-x="1331" 
d="M664 -16q-160 0 -297 73l-48 -57h-313l174 211q-139 172 -139 399q0 171 82.5 315t226 228t314.5 84q160 0 303 -78l51 62h313l-180 -217q139 -176 139 -394q0 -171 -83 -315t-227 -227.5t-316 -83.5zM324 610q0 -93 43 -174l417 502q-61 23 -120 23q-144 0 -242 -102.5
t-98 -248.5zM664 260q148 0 246 102t98 248q0 89 -43 170l-414 -501q55 -19 113 -19z" />
    <glyph glyph-name="oslash.smcp" unicode="&#xf7f8;" horiz-adv-x="1331" 
d="M664 -16q-160 0 -297 73l-48 -57h-313l174 211q-139 172 -139 399q0 171 82.5 315t226 228t314.5 84q160 0 303 -78l51 62h313l-180 -217q139 -176 139 -394q0 -171 -83 -315t-227 -227.5t-316 -83.5zM324 610q0 -93 43 -174l417 502q-61 23 -120 23q-144 0 -242 -102.5
t-98 -248.5zM664 260q148 0 246 102t98 248q0 89 -43 170l-414 -501q55 -19 113 -19z" />
    <glyph glyph-name="oslashacute.smcp" unicode="&#xe296;" horiz-adv-x="1331" 
d="M664 -16q-160 0 -297 73l-48 -57h-313l174 211q-139 172 -139 399q0 171 82.5 315t226 228t314.5 84q160 0 303 -78l51 62h313l-180 -217q139 -176 139 -394q0 -171 -83 -315t-227 -227.5t-316 -83.5zM324 610q0 -93 43 -174l417 502q-61 23 -120 23q-144 0 -242 -102.5
t-98 -248.5zM664 260q148 0 246 102t98 248q0 89 -43 170l-414 -501q55 -19 113 -19zM553 1323l233 348h263l-308 -348h-188z" />
    <glyph glyph-name="oslashacute.smcp" unicode="&#xf627;" horiz-adv-x="1331" 
d="M664 -16q-160 0 -297 73l-48 -57h-313l174 211q-139 172 -139 399q0 171 82.5 315t226 228t314.5 84q160 0 303 -78l51 62h313l-180 -217q139 -176 139 -394q0 -171 -83 -315t-227 -227.5t-316 -83.5zM324 610q0 -93 43 -174l417 502q-61 23 -120 23q-144 0 -242 -102.5
t-98 -248.5zM664 260q148 0 246 102t98 248q0 89 -43 170l-414 -501q55 -19 113 -19zM553 1323l233 348h263l-308 -348h-188z" />
    <glyph glyph-name="oe.smcp" unicode="&#xe298;" horiz-adv-x="1800" 
d="M1016 0v104q-148 -120 -352 -120q-171 0 -314.5 83.5t-226 227.5t-82.5 315t82.5 315t226 228t314.5 84q204 0 352 -123v107h723v-263h-445v-215h445v-262h-445v-219h445v-262h-723zM664 260q148 0 246 102t98 248t-99 248.5t-245 102.5q-144 0 -242 -102.5t-98 -248.5
t97.5 -248t242.5 -102z" />
    <glyph glyph-name="oe.smcp" unicode="&#xf6fa;" horiz-adv-x="1800" 
d="M1016 0v104q-148 -120 -352 -120q-171 0 -314.5 83.5t-226 227.5t-82.5 315t82.5 315t226 228t314.5 84q204 0 352 -123v107h723v-263h-445v-215h445v-262h-445v-219h445v-262h-723zM664 260q148 0 246 102t98 248t-99 248.5t-245 102.5q-144 0 -242 -102.5t-98 -248.5
t97.5 -248t242.5 -102z" />
    <glyph glyph-name="racute.smcp" unicode="&#xe29a;" horiz-adv-x="999" 
d="M72 0v1221h426q107 0 195 -33t145.5 -90t88.5 -133t31 -162q0 -119 -59 -214t-170 -145l264 -444h-317l-326 582v-582h-278zM477 963h-127v-336h127q93 0 143 51t50 121q0 164 -193 164zM348 1323l234 348h262l-307 -348h-189z" />
    <glyph glyph-name="racute.smcp" unicode="&#xf658;" horiz-adv-x="999" 
d="M72 0v1221h426q107 0 195 -33t145.5 -90t88.5 -133t31 -162q0 -119 -59 -214t-170 -145l264 -444h-317l-326 582v-582h-278zM477 963h-127v-336h127q93 0 143 51t50 121q0 164 -193 164zM348 1323l234 348h262l-307 -348h-189z" />
    <glyph glyph-name="rcaron.smcp" unicode="&#xe29b;" horiz-adv-x="999" 
d="M72 0v1221h426q107 0 195 -33t145.5 -90t88.5 -133t31 -162q0 -119 -59 -214t-170 -145l264 -444h-317l-326 582v-582h-278zM397 1323l-243 348h211l118 -180l121 180h211l-244 -348h-174zM477 963h-127v-336h127q93 0 143 51t50 121q0 164 -193 164z" />
    <glyph glyph-name="rcaron.smcp" unicode="&#xf659;" horiz-adv-x="999" 
d="M72 0v1221h426q107 0 195 -33t145.5 -90t88.5 -133t31 -162q0 -119 -59 -214t-170 -145l264 -444h-317l-326 582v-582h-278zM397 1323l-243 348h211l118 -180l121 180h211l-244 -348h-174zM477 963h-127v-336h127q93 0 143 51t50 121q0 164 -193 164z" />
    <glyph glyph-name="rcommaaccent.smcp" unicode="&#xe29e;" horiz-adv-x="999" 
d="M72 0v1221h426q107 0 195 -33t145.5 -90t88.5 -133t31 -162q0 -119 -59 -214t-170 -145l264 -444h-317l-326 582v-582h-278zM477 963h-127v-336h127q93 0 143 51t50 121q0 164 -193 164zM485 -516h-174l70 418h248z" />
    <glyph glyph-name="rcommaaccent.smcp" unicode="&#xf65a;" horiz-adv-x="999" 
d="M72 0v1221h426q107 0 195 -33t145.5 -90t88.5 -133t31 -162q0 -119 -59 -214t-170 -145l264 -444h-317l-326 582v-582h-278zM477 963h-127v-336h127q93 0 143 51t50 121q0 164 -193 164zM485 -516h-174l70 418h248z" />
    <glyph glyph-name="ucircumflex.smcp" unicode="&#xe300;" horiz-adv-x="1060" 
d="M530 -16q-211 0 -334.5 120t-123.5 338v779h280v-787q0 -87 49 -140.5t127 -53.5q80 0 130.5 53.5t50.5 140.5v787h280v-779q0 -218 -124 -338t-335 -120zM205 1323l244 348h174l243 -348h-211l-120 180l-119 -180h-211z" />
    <glyph glyph-name="ucircumflex.smcp" unicode="&#xf7fb;" horiz-adv-x="1060" 
d="M530 -16q-211 0 -334.5 120t-123.5 338v779h280v-787q0 -87 49 -140.5t127 -53.5q80 0 130.5 53.5t50.5 140.5v787h280v-779q0 -218 -124 -338t-335 -120zM205 1323l244 348h174l243 -348h-211l-120 180l-119 -180h-211z" />
    <glyph glyph-name="sacute.smcp" unicode="&#xe302;" horiz-adv-x="999" 
d="M500 -16q-165 0 -280.5 59t-205.5 162l246 192q42 -71 106 -111t134 -40q69 0 111 36.5t42 88.5q0 35 -32.5 61.5t-64 38.5t-105.5 34q-19 6 -29 9q-59 16 -100 30.5t-92 43.5t-82.5 64t-53.5 90.5t-22 125.5q0 160 118 265.5t302 105.5q148 0 249 -50.5t183 -139.5
l-226 -175q-76 119 -204 119q-63 0 -100.5 -30.5t-37.5 -77.5q0 -34 32 -60.5t64 -39t106 -35.5q19 -6 28 -9q60 -18 101.5 -33.5t94 -46t85 -66t55 -92t22.5 -126.5q0 -77 -30 -147.5t-85 -125.5t-140.5 -87.5t-188.5 -32.5zM393 1323l234 348h262l-307 -348h-189z" />
    <glyph glyph-name="sacute.smcp" unicode="&#xf65b;" horiz-adv-x="999" 
d="M500 -16q-165 0 -280.5 59t-205.5 162l246 192q42 -71 106 -111t134 -40q69 0 111 36.5t42 88.5q0 35 -32.5 61.5t-64 38.5t-105.5 34q-19 6 -29 9q-59 16 -100 30.5t-92 43.5t-82.5 64t-53.5 90.5t-22 125.5q0 160 118 265.5t302 105.5q148 0 249 -50.5t183 -139.5
l-226 -175q-76 119 -204 119q-63 0 -100.5 -30.5t-37.5 -77.5q0 -34 32 -60.5t64 -39t106 -35.5q19 -6 28 -9q60 -18 101.5 -33.5t94 -46t85 -66t55 -92t22.5 -126.5q0 -77 -30 -147.5t-85 -125.5t-140.5 -87.5t-188.5 -32.5zM393 1323l234 348h262l-307 -348h-189z" />
    <glyph glyph-name="scircumflex.smcp" unicode="&#xe303;" horiz-adv-x="999" 
d="M500 -16q-165 0 -280.5 59t-205.5 162l246 192q42 -71 106 -111t134 -40q69 0 111 36.5t42 88.5q0 35 -32.5 61.5t-64 38.5t-105.5 34q-19 6 -29 9q-59 16 -100 30.5t-92 43.5t-82.5 64t-53.5 90.5t-22 125.5q0 160 118 265.5t302 105.5q148 0 249 -50.5t183 -139.5
l-226 -175q-76 119 -204 119q-63 0 -100.5 -30.5t-37.5 -77.5q0 -34 32 -60.5t64 -39t106 -35.5q19 -6 28 -9q60 -18 101.5 -33.5t94 -46t85 -66t55 -92t22.5 -126.5q0 -77 -30 -147.5t-85 -125.5t-140.5 -87.5t-188.5 -32.5zM182 1323l244 348h174l244 -348h-211l-121 180
l-119 -180h-211z" />
    <glyph glyph-name="scircumflex.smcp" unicode="&#xf636;" horiz-adv-x="999" 
d="M500 -16q-165 0 -280.5 59t-205.5 162l246 192q42 -71 106 -111t134 -40q69 0 111 36.5t42 88.5q0 35 -32.5 61.5t-64 38.5t-105.5 34q-19 6 -29 9q-59 16 -100 30.5t-92 43.5t-82.5 64t-53.5 90.5t-22 125.5q0 160 118 265.5t302 105.5q148 0 249 -50.5t183 -139.5
l-226 -175q-76 119 -204 119q-63 0 -100.5 -30.5t-37.5 -77.5q0 -34 32 -60.5t64 -39t106 -35.5q19 -6 28 -9q60 -18 101.5 -33.5t94 -46t85 -66t55 -92t22.5 -126.5q0 -77 -30 -147.5t-85 -125.5t-140.5 -87.5t-188.5 -32.5zM182 1323l244 348h174l244 -348h-211l-121 180
l-119 -180h-211z" />
    <glyph glyph-name="scaron.smcp" unicode="&#xe304;" horiz-adv-x="999" 
d="M500 -16q-165 0 -280.5 59t-205.5 162l246 192q42 -71 106 -111t134 -40q69 0 111 36.5t42 88.5q0 35 -32.5 61.5t-64 38.5t-105.5 34q-19 6 -29 9q-59 16 -100 30.5t-92 43.5t-82.5 64t-53.5 90.5t-22 125.5q0 160 118 265.5t302 105.5q148 0 249 -50.5t183 -139.5
l-226 -175q-76 119 -204 119q-63 0 -100.5 -30.5t-37.5 -77.5q0 -34 32 -60.5t64 -39t106 -35.5q19 -6 28 -9q60 -18 101.5 -33.5t94 -46t85 -66t55 -92t22.5 -126.5q0 -77 -30 -147.5t-85 -125.5t-140.5 -87.5t-188.5 -32.5zM428 1323l-244 348h211l119 -180l121 180h211
l-244 -348h-174z" />
    <glyph glyph-name="scaron.smcp" unicode="&#xf6fd;" horiz-adv-x="999" 
d="M500 -16q-165 0 -280.5 59t-205.5 162l246 192q42 -71 106 -111t134 -40q69 0 111 36.5t42 88.5q0 35 -32.5 61.5t-64 38.5t-105.5 34q-19 6 -29 9q-59 16 -100 30.5t-92 43.5t-82.5 64t-53.5 90.5t-22 125.5q0 160 118 265.5t302 105.5q148 0 249 -50.5t183 -139.5
l-226 -175q-76 119 -204 119q-63 0 -100.5 -30.5t-37.5 -77.5q0 -34 32 -60.5t64 -39t106 -35.5q19 -6 28 -9q60 -18 101.5 -33.5t94 -46t85 -66t55 -92t22.5 -126.5q0 -77 -30 -147.5t-85 -125.5t-140.5 -87.5t-188.5 -32.5zM428 1323l-244 348h211l119 -180l121 180h211
l-244 -348h-174z" />
    <glyph glyph-name="scommaaccent.smcp" unicode="&#xe305;" horiz-adv-x="999" 
d="M500 -16q-165 0 -280.5 59t-205.5 162l246 192q42 -71 106 -111t134 -40q69 0 111 36.5t42 88.5q0 35 -32.5 61.5t-64 38.5t-105.5 34q-19 6 -29 9q-59 16 -100 30.5t-92 43.5t-82.5 64t-53.5 90.5t-22 125.5q0 160 118 265.5t302 105.5q148 0 249 -50.5t183 -139.5
l-226 -175q-76 119 -204 119q-63 0 -100.5 -30.5t-37.5 -77.5q0 -34 32 -60.5t64 -39t106 -35.5q19 -6 28 -9q60 -18 101.5 -33.5t94 -46t85 -66t55 -92t22.5 -126.5q0 -77 -30 -147.5t-85 -125.5t-140.5 -87.5t-188.5 -32.5zM481 -510h-174l70 418h248z" />
    <glyph glyph-name="scommaaccent.smcp" unicode="&#xf65d;" horiz-adv-x="999" 
d="M500 -16q-165 0 -280.5 59t-205.5 162l246 192q42 -71 106 -111t134 -40q69 0 111 36.5t42 88.5q0 35 -32.5 61.5t-64 38.5t-105.5 34q-19 6 -29 9q-59 16 -100 30.5t-92 43.5t-82.5 64t-53.5 90.5t-22 125.5q0 160 118 265.5t302 105.5q148 0 249 -50.5t183 -139.5
l-226 -175q-76 119 -204 119q-63 0 -100.5 -30.5t-37.5 -77.5q0 -34 32 -60.5t64 -39t106 -35.5q19 -6 28 -9q60 -18 101.5 -33.5t94 -46t85 -66t55 -92t22.5 -126.5q0 -77 -30 -147.5t-85 -125.5t-140.5 -87.5t-188.5 -32.5zM481 -510h-174l70 418h248z" />
    <glyph glyph-name="scedilla.smcp" unicode="&#xe306;" horiz-adv-x="999" 
d="M479 -492q-77 0 -154.5 33t-138.5 88l160 97q31 -24 47.5 -35.5t46 -22t62.5 -10.5q45 0 77.5 17.5t32.5 43.5q0 56 -116 56h-105v217q-221 32 -377 213l246 192q42 -71 106 -111t134 -40q69 0 111 36.5t42 88.5q0 35 -32.5 61.5t-64 38.5t-105.5 34q-19 6 -29 9
q-59 16 -100 30.5t-92 43.5t-82.5 64t-53.5 90.5t-22 125.5q0 160 118 265.5t302 105.5q148 0 249 -50.5t183 -139.5l-226 -175q-76 119 -204 119q-63 0 -100.5 -30.5t-37.5 -77.5q0 -34 32 -60.5t64 -39t106 -35.5q19 -6 28 -9q60 -18 101.5 -33.5t94 -46t85 -66t55 -92
t22.5 -126.5q0 -147 -102 -259t-277 -130v-97q113 4 174.5 -41t61.5 -122q0 -95 -93 -157.5t-229 -62.5z" />
    <glyph glyph-name="scedilla.smcp" unicode="&#xf65c;" horiz-adv-x="999" 
d="M479 -492q-77 0 -154.5 33t-138.5 88l160 97q31 -24 47.5 -35.5t46 -22t62.5 -10.5q45 0 77.5 17.5t32.5 43.5q0 56 -116 56h-105v217q-221 32 -377 213l246 192q42 -71 106 -111t134 -40q69 0 111 36.5t42 88.5q0 35 -32.5 61.5t-64 38.5t-105.5 34q-19 6 -29 9
q-59 16 -100 30.5t-92 43.5t-82.5 64t-53.5 90.5t-22 125.5q0 160 118 265.5t302 105.5q148 0 249 -50.5t183 -139.5l-226 -175q-76 119 -204 119q-63 0 -100.5 -30.5t-37.5 -77.5q0 -34 32 -60.5t64 -39t106 -35.5q19 -6 28 -9q60 -18 101.5 -33.5t94 -46t85 -66t55 -92
t22.5 -126.5q0 -147 -102 -259t-277 -130v-97q113 4 174.5 -41t61.5 -122q0 -95 -93 -157.5t-229 -62.5z" />
    <glyph glyph-name="tcaron.smcp" unicode="&#xe309;" horiz-adv-x="1009" 
d="M375 0v958h-309v263h886v-263h-305v-958h-272zM422 1323l-244 348h211l119 -180l121 180h211l-244 -348h-174z" />
    <glyph glyph-name="tcaron.smcp" unicode="&#xf65e;" horiz-adv-x="1009" 
d="M375 0v958h-309v263h886v-263h-305v-958h-272zM422 1323l-244 348h211l119 -180l121 180h211l-244 -348h-174z" />
    <glyph glyph-name="tcommaaccent.smcp" unicode="&#xe30a;" horiz-adv-x="1009" 
d="M375 0v958h-309v263h886v-263h-305v-958h-272zM489 -541h-174l70 418h248z" />
    </font>
</defs>
</svg>
